%TF.GenerationSoftware,KiCad,Pcbnew,9.0.3*%
%TF.CreationDate,2025-07-23T20:32:43-05:00*%
%TF.ProjectId,MouseWB5,4d6f7573-6557-4423-952e-6b696361645f,rev?*%
%TF.SameCoordinates,Original*%
%TF.FileFunction,Legend,Top*%
%TF.FilePolarity,Positive*%
%FSLAX46Y46*%
G04 Gerber Fmt 4.6, Leading zero omitted, Abs format (unit mm)*
G04 Created by KiCad (PCBNEW 9.0.3) date 2025-07-23 20:32:43*
%MOMM*%
%LPD*%
G01*
G04 APERTURE LIST*
%ADD10C,0.300000*%
%ADD11C,0.050000*%
%ADD12C,0.150000*%
%ADD13C,0.120000*%
%ADD14C,0.100000*%
%ADD15C,0.203200*%
G04 APERTURE END LIST*
D10*
X149750000Y-135000000D02*
X149750000Y-130750000D01*
X149750000Y-109250000D02*
X149750000Y-105000000D01*
X117250000Y-105000000D02*
X117250000Y-109000000D01*
X117250000Y-135000000D02*
X117250000Y-130750000D01*
D11*
X101776576Y-127477213D02*
X101976576Y-127477213D01*
X101976576Y-127477213D02*
X101976576Y-127524832D01*
X101976576Y-127524832D02*
X101967052Y-127553403D01*
X101967052Y-127553403D02*
X101948004Y-127572451D01*
X101948004Y-127572451D02*
X101928957Y-127581974D01*
X101928957Y-127581974D02*
X101890861Y-127591498D01*
X101890861Y-127591498D02*
X101862290Y-127591498D01*
X101862290Y-127591498D02*
X101824195Y-127581974D01*
X101824195Y-127581974D02*
X101805147Y-127572451D01*
X101805147Y-127572451D02*
X101786100Y-127553403D01*
X101786100Y-127553403D02*
X101776576Y-127524832D01*
X101776576Y-127524832D02*
X101776576Y-127477213D01*
X101976576Y-127715308D02*
X101976576Y-127753403D01*
X101976576Y-127753403D02*
X101967052Y-127772451D01*
X101967052Y-127772451D02*
X101948004Y-127791498D01*
X101948004Y-127791498D02*
X101909909Y-127801022D01*
X101909909Y-127801022D02*
X101843242Y-127801022D01*
X101843242Y-127801022D02*
X101805147Y-127791498D01*
X101805147Y-127791498D02*
X101786100Y-127772451D01*
X101786100Y-127772451D02*
X101776576Y-127753403D01*
X101776576Y-127753403D02*
X101776576Y-127715308D01*
X101776576Y-127715308D02*
X101786100Y-127696260D01*
X101786100Y-127696260D02*
X101805147Y-127677213D01*
X101805147Y-127677213D02*
X101843242Y-127667689D01*
X101843242Y-127667689D02*
X101909909Y-127667689D01*
X101909909Y-127667689D02*
X101948004Y-127677213D01*
X101948004Y-127677213D02*
X101967052Y-127696260D01*
X101967052Y-127696260D02*
X101976576Y-127715308D01*
X100926676Y-128377213D02*
X101126676Y-128377213D01*
X101126676Y-128377213D02*
X101126676Y-128424832D01*
X101126676Y-128424832D02*
X101117152Y-128453403D01*
X101117152Y-128453403D02*
X101098104Y-128472451D01*
X101098104Y-128472451D02*
X101079057Y-128481974D01*
X101079057Y-128481974D02*
X101040961Y-128491498D01*
X101040961Y-128491498D02*
X101012390Y-128491498D01*
X101012390Y-128491498D02*
X100974295Y-128481974D01*
X100974295Y-128481974D02*
X100955247Y-128472451D01*
X100955247Y-128472451D02*
X100936200Y-128453403D01*
X100936200Y-128453403D02*
X100926676Y-128424832D01*
X100926676Y-128424832D02*
X100926676Y-128377213D01*
X100926676Y-128577213D02*
X101126676Y-128577213D01*
D12*
X115942199Y-122651179D02*
X115942199Y-122413084D01*
X116180294Y-122508322D02*
X115942199Y-122413084D01*
X115942199Y-122413084D02*
X115704104Y-122508322D01*
X116085056Y-122222608D02*
X115942199Y-122413084D01*
X115942199Y-122413084D02*
X115799342Y-122222608D01*
X115942200Y-121560818D02*
X115942200Y-121798913D01*
X115704105Y-121703675D02*
X115942200Y-121798913D01*
X115942200Y-121798913D02*
X116180295Y-121703675D01*
X115799343Y-121989389D02*
X115942200Y-121798913D01*
X115942200Y-121798913D02*
X116085057Y-121989389D01*
D11*
X100926676Y-105377213D02*
X101126676Y-105377213D01*
X101126676Y-105377213D02*
X101126676Y-105424832D01*
X101126676Y-105424832D02*
X101117152Y-105453403D01*
X101117152Y-105453403D02*
X101098104Y-105472451D01*
X101098104Y-105472451D02*
X101079057Y-105481974D01*
X101079057Y-105481974D02*
X101040961Y-105491498D01*
X101040961Y-105491498D02*
X101012390Y-105491498D01*
X101012390Y-105491498D02*
X100974295Y-105481974D01*
X100974295Y-105481974D02*
X100955247Y-105472451D01*
X100955247Y-105472451D02*
X100936200Y-105453403D01*
X100936200Y-105453403D02*
X100926676Y-105424832D01*
X100926676Y-105424832D02*
X100926676Y-105377213D01*
X100926676Y-105577213D02*
X101126676Y-105577213D01*
X101776576Y-104477213D02*
X101976576Y-104477213D01*
X101976576Y-104477213D02*
X101976576Y-104524832D01*
X101976576Y-104524832D02*
X101967052Y-104553403D01*
X101967052Y-104553403D02*
X101948004Y-104572451D01*
X101948004Y-104572451D02*
X101928957Y-104581974D01*
X101928957Y-104581974D02*
X101890861Y-104591498D01*
X101890861Y-104591498D02*
X101862290Y-104591498D01*
X101862290Y-104591498D02*
X101824195Y-104581974D01*
X101824195Y-104581974D02*
X101805147Y-104572451D01*
X101805147Y-104572451D02*
X101786100Y-104553403D01*
X101786100Y-104553403D02*
X101776576Y-104524832D01*
X101776576Y-104524832D02*
X101776576Y-104477213D01*
X101976576Y-104715308D02*
X101976576Y-104753403D01*
X101976576Y-104753403D02*
X101967052Y-104772451D01*
X101967052Y-104772451D02*
X101948004Y-104791498D01*
X101948004Y-104791498D02*
X101909909Y-104801022D01*
X101909909Y-104801022D02*
X101843242Y-104801022D01*
X101843242Y-104801022D02*
X101805147Y-104791498D01*
X101805147Y-104791498D02*
X101786100Y-104772451D01*
X101786100Y-104772451D02*
X101776576Y-104753403D01*
X101776576Y-104753403D02*
X101776576Y-104715308D01*
X101776576Y-104715308D02*
X101786100Y-104696260D01*
X101786100Y-104696260D02*
X101805147Y-104677213D01*
X101805147Y-104677213D02*
X101843242Y-104667689D01*
X101843242Y-104667689D02*
X101909909Y-104667689D01*
X101909909Y-104667689D02*
X101948004Y-104677213D01*
X101948004Y-104677213D02*
X101967052Y-104696260D01*
X101967052Y-104696260D02*
X101976576Y-104715308D01*
X100926676Y-138627213D02*
X101126676Y-138627213D01*
X101126676Y-138627213D02*
X101126676Y-138674832D01*
X101126676Y-138674832D02*
X101117152Y-138703403D01*
X101117152Y-138703403D02*
X101098104Y-138722451D01*
X101098104Y-138722451D02*
X101079057Y-138731974D01*
X101079057Y-138731974D02*
X101040961Y-138741498D01*
X101040961Y-138741498D02*
X101012390Y-138741498D01*
X101012390Y-138741498D02*
X100974295Y-138731974D01*
X100974295Y-138731974D02*
X100955247Y-138722451D01*
X100955247Y-138722451D02*
X100936200Y-138703403D01*
X100936200Y-138703403D02*
X100926676Y-138674832D01*
X100926676Y-138674832D02*
X100926676Y-138627213D01*
X100926676Y-138827213D02*
X101126676Y-138827213D01*
X101776576Y-137727213D02*
X101976576Y-137727213D01*
X101976576Y-137727213D02*
X101976576Y-137774832D01*
X101976576Y-137774832D02*
X101967052Y-137803403D01*
X101967052Y-137803403D02*
X101948004Y-137822451D01*
X101948004Y-137822451D02*
X101928957Y-137831974D01*
X101928957Y-137831974D02*
X101890861Y-137841498D01*
X101890861Y-137841498D02*
X101862290Y-137841498D01*
X101862290Y-137841498D02*
X101824195Y-137831974D01*
X101824195Y-137831974D02*
X101805147Y-137822451D01*
X101805147Y-137822451D02*
X101786100Y-137803403D01*
X101786100Y-137803403D02*
X101776576Y-137774832D01*
X101776576Y-137774832D02*
X101776576Y-137727213D01*
X101976576Y-137965308D02*
X101976576Y-138003403D01*
X101976576Y-138003403D02*
X101967052Y-138022451D01*
X101967052Y-138022451D02*
X101948004Y-138041498D01*
X101948004Y-138041498D02*
X101909909Y-138051022D01*
X101909909Y-138051022D02*
X101843242Y-138051022D01*
X101843242Y-138051022D02*
X101805147Y-138041498D01*
X101805147Y-138041498D02*
X101786100Y-138022451D01*
X101786100Y-138022451D02*
X101776576Y-138003403D01*
X101776576Y-138003403D02*
X101776576Y-137965308D01*
X101776576Y-137965308D02*
X101786100Y-137946260D01*
X101786100Y-137946260D02*
X101805147Y-137927213D01*
X101805147Y-137927213D02*
X101843242Y-137917689D01*
X101843242Y-137917689D02*
X101909909Y-137917689D01*
X101909909Y-137917689D02*
X101948004Y-137927213D01*
X101948004Y-137927213D02*
X101967052Y-137946260D01*
X101967052Y-137946260D02*
X101976576Y-137965308D01*
X101776576Y-107977213D02*
X101976576Y-107977213D01*
X101976576Y-107977213D02*
X101976576Y-108024832D01*
X101976576Y-108024832D02*
X101967052Y-108053403D01*
X101967052Y-108053403D02*
X101948004Y-108072451D01*
X101948004Y-108072451D02*
X101928957Y-108081974D01*
X101928957Y-108081974D02*
X101890861Y-108091498D01*
X101890861Y-108091498D02*
X101862290Y-108091498D01*
X101862290Y-108091498D02*
X101824195Y-108081974D01*
X101824195Y-108081974D02*
X101805147Y-108072451D01*
X101805147Y-108072451D02*
X101786100Y-108053403D01*
X101786100Y-108053403D02*
X101776576Y-108024832D01*
X101776576Y-108024832D02*
X101776576Y-107977213D01*
X101976576Y-108215308D02*
X101976576Y-108253403D01*
X101976576Y-108253403D02*
X101967052Y-108272451D01*
X101967052Y-108272451D02*
X101948004Y-108291498D01*
X101948004Y-108291498D02*
X101909909Y-108301022D01*
X101909909Y-108301022D02*
X101843242Y-108301022D01*
X101843242Y-108301022D02*
X101805147Y-108291498D01*
X101805147Y-108291498D02*
X101786100Y-108272451D01*
X101786100Y-108272451D02*
X101776576Y-108253403D01*
X101776576Y-108253403D02*
X101776576Y-108215308D01*
X101776576Y-108215308D02*
X101786100Y-108196260D01*
X101786100Y-108196260D02*
X101805147Y-108177213D01*
X101805147Y-108177213D02*
X101843242Y-108167689D01*
X101843242Y-108167689D02*
X101909909Y-108167689D01*
X101909909Y-108167689D02*
X101948004Y-108177213D01*
X101948004Y-108177213D02*
X101967052Y-108196260D01*
X101967052Y-108196260D02*
X101976576Y-108215308D01*
X100926676Y-108877213D02*
X101126676Y-108877213D01*
X101126676Y-108877213D02*
X101126676Y-108924832D01*
X101126676Y-108924832D02*
X101117152Y-108953403D01*
X101117152Y-108953403D02*
X101098104Y-108972451D01*
X101098104Y-108972451D02*
X101079057Y-108981974D01*
X101079057Y-108981974D02*
X101040961Y-108991498D01*
X101040961Y-108991498D02*
X101012390Y-108991498D01*
X101012390Y-108991498D02*
X100974295Y-108981974D01*
X100974295Y-108981974D02*
X100955247Y-108972451D01*
X100955247Y-108972451D02*
X100936200Y-108953403D01*
X100936200Y-108953403D02*
X100926676Y-108924832D01*
X100926676Y-108924832D02*
X100926676Y-108877213D01*
X100926676Y-109077213D02*
X101126676Y-109077213D01*
X100926676Y-112377213D02*
X101126676Y-112377213D01*
X101126676Y-112377213D02*
X101126676Y-112424832D01*
X101126676Y-112424832D02*
X101117152Y-112453403D01*
X101117152Y-112453403D02*
X101098104Y-112472451D01*
X101098104Y-112472451D02*
X101079057Y-112481974D01*
X101079057Y-112481974D02*
X101040961Y-112491498D01*
X101040961Y-112491498D02*
X101012390Y-112491498D01*
X101012390Y-112491498D02*
X100974295Y-112481974D01*
X100974295Y-112481974D02*
X100955247Y-112472451D01*
X100955247Y-112472451D02*
X100936200Y-112453403D01*
X100936200Y-112453403D02*
X100926676Y-112424832D01*
X100926676Y-112424832D02*
X100926676Y-112377213D01*
X100926676Y-112577213D02*
X101126676Y-112577213D01*
X101776576Y-111477213D02*
X101976576Y-111477213D01*
X101976576Y-111477213D02*
X101976576Y-111524832D01*
X101976576Y-111524832D02*
X101967052Y-111553403D01*
X101967052Y-111553403D02*
X101948004Y-111572451D01*
X101948004Y-111572451D02*
X101928957Y-111581974D01*
X101928957Y-111581974D02*
X101890861Y-111591498D01*
X101890861Y-111591498D02*
X101862290Y-111591498D01*
X101862290Y-111591498D02*
X101824195Y-111581974D01*
X101824195Y-111581974D02*
X101805147Y-111572451D01*
X101805147Y-111572451D02*
X101786100Y-111553403D01*
X101786100Y-111553403D02*
X101776576Y-111524832D01*
X101776576Y-111524832D02*
X101776576Y-111477213D01*
X101976576Y-111715308D02*
X101976576Y-111753403D01*
X101976576Y-111753403D02*
X101967052Y-111772451D01*
X101967052Y-111772451D02*
X101948004Y-111791498D01*
X101948004Y-111791498D02*
X101909909Y-111801022D01*
X101909909Y-111801022D02*
X101843242Y-111801022D01*
X101843242Y-111801022D02*
X101805147Y-111791498D01*
X101805147Y-111791498D02*
X101786100Y-111772451D01*
X101786100Y-111772451D02*
X101776576Y-111753403D01*
X101776576Y-111753403D02*
X101776576Y-111715308D01*
X101776576Y-111715308D02*
X101786100Y-111696260D01*
X101786100Y-111696260D02*
X101805147Y-111677213D01*
X101805147Y-111677213D02*
X101843242Y-111667689D01*
X101843242Y-111667689D02*
X101909909Y-111667689D01*
X101909909Y-111667689D02*
X101948004Y-111677213D01*
X101948004Y-111677213D02*
X101967052Y-111696260D01*
X101967052Y-111696260D02*
X101976576Y-111715308D01*
X100926676Y-131877213D02*
X101126676Y-131877213D01*
X101126676Y-131877213D02*
X101126676Y-131924832D01*
X101126676Y-131924832D02*
X101117152Y-131953403D01*
X101117152Y-131953403D02*
X101098104Y-131972451D01*
X101098104Y-131972451D02*
X101079057Y-131981974D01*
X101079057Y-131981974D02*
X101040961Y-131991498D01*
X101040961Y-131991498D02*
X101012390Y-131991498D01*
X101012390Y-131991498D02*
X100974295Y-131981974D01*
X100974295Y-131981974D02*
X100955247Y-131972451D01*
X100955247Y-131972451D02*
X100936200Y-131953403D01*
X100936200Y-131953403D02*
X100926676Y-131924832D01*
X100926676Y-131924832D02*
X100926676Y-131877213D01*
X100926676Y-132077213D02*
X101126676Y-132077213D01*
X101776576Y-130977213D02*
X101976576Y-130977213D01*
X101976576Y-130977213D02*
X101976576Y-131024832D01*
X101976576Y-131024832D02*
X101967052Y-131053403D01*
X101967052Y-131053403D02*
X101948004Y-131072451D01*
X101948004Y-131072451D02*
X101928957Y-131081974D01*
X101928957Y-131081974D02*
X101890861Y-131091498D01*
X101890861Y-131091498D02*
X101862290Y-131091498D01*
X101862290Y-131091498D02*
X101824195Y-131081974D01*
X101824195Y-131081974D02*
X101805147Y-131072451D01*
X101805147Y-131072451D02*
X101786100Y-131053403D01*
X101786100Y-131053403D02*
X101776576Y-131024832D01*
X101776576Y-131024832D02*
X101776576Y-130977213D01*
X101976576Y-131215308D02*
X101976576Y-131253403D01*
X101976576Y-131253403D02*
X101967052Y-131272451D01*
X101967052Y-131272451D02*
X101948004Y-131291498D01*
X101948004Y-131291498D02*
X101909909Y-131301022D01*
X101909909Y-131301022D02*
X101843242Y-131301022D01*
X101843242Y-131301022D02*
X101805147Y-131291498D01*
X101805147Y-131291498D02*
X101786100Y-131272451D01*
X101786100Y-131272451D02*
X101776576Y-131253403D01*
X101776576Y-131253403D02*
X101776576Y-131215308D01*
X101776576Y-131215308D02*
X101786100Y-131196260D01*
X101786100Y-131196260D02*
X101805147Y-131177213D01*
X101805147Y-131177213D02*
X101843242Y-131167689D01*
X101843242Y-131167689D02*
X101909909Y-131167689D01*
X101909909Y-131167689D02*
X101948004Y-131177213D01*
X101948004Y-131177213D02*
X101967052Y-131196260D01*
X101967052Y-131196260D02*
X101976576Y-131215308D01*
X100926676Y-135377213D02*
X101126676Y-135377213D01*
X101126676Y-135377213D02*
X101126676Y-135424832D01*
X101126676Y-135424832D02*
X101117152Y-135453403D01*
X101117152Y-135453403D02*
X101098104Y-135472451D01*
X101098104Y-135472451D02*
X101079057Y-135481974D01*
X101079057Y-135481974D02*
X101040961Y-135491498D01*
X101040961Y-135491498D02*
X101012390Y-135491498D01*
X101012390Y-135491498D02*
X100974295Y-135481974D01*
X100974295Y-135481974D02*
X100955247Y-135472451D01*
X100955247Y-135472451D02*
X100936200Y-135453403D01*
X100936200Y-135453403D02*
X100926676Y-135424832D01*
X100926676Y-135424832D02*
X100926676Y-135377213D01*
X100926676Y-135577213D02*
X101126676Y-135577213D01*
X101776576Y-134477213D02*
X101976576Y-134477213D01*
X101976576Y-134477213D02*
X101976576Y-134524832D01*
X101976576Y-134524832D02*
X101967052Y-134553403D01*
X101967052Y-134553403D02*
X101948004Y-134572451D01*
X101948004Y-134572451D02*
X101928957Y-134581974D01*
X101928957Y-134581974D02*
X101890861Y-134591498D01*
X101890861Y-134591498D02*
X101862290Y-134591498D01*
X101862290Y-134591498D02*
X101824195Y-134581974D01*
X101824195Y-134581974D02*
X101805147Y-134572451D01*
X101805147Y-134572451D02*
X101786100Y-134553403D01*
X101786100Y-134553403D02*
X101776576Y-134524832D01*
X101776576Y-134524832D02*
X101776576Y-134477213D01*
X101976576Y-134715308D02*
X101976576Y-134753403D01*
X101976576Y-134753403D02*
X101967052Y-134772451D01*
X101967052Y-134772451D02*
X101948004Y-134791498D01*
X101948004Y-134791498D02*
X101909909Y-134801022D01*
X101909909Y-134801022D02*
X101843242Y-134801022D01*
X101843242Y-134801022D02*
X101805147Y-134791498D01*
X101805147Y-134791498D02*
X101786100Y-134772451D01*
X101786100Y-134772451D02*
X101776576Y-134753403D01*
X101776576Y-134753403D02*
X101776576Y-134715308D01*
X101776576Y-134715308D02*
X101786100Y-134696260D01*
X101786100Y-134696260D02*
X101805147Y-134677213D01*
X101805147Y-134677213D02*
X101843242Y-134667689D01*
X101843242Y-134667689D02*
X101909909Y-134667689D01*
X101909909Y-134667689D02*
X101948004Y-134677213D01*
X101948004Y-134677213D02*
X101967052Y-134696260D01*
X101967052Y-134696260D02*
X101976576Y-134715308D01*
X100926676Y-102127213D02*
X101126676Y-102127213D01*
X101126676Y-102127213D02*
X101126676Y-102174832D01*
X101126676Y-102174832D02*
X101117152Y-102203403D01*
X101117152Y-102203403D02*
X101098104Y-102222451D01*
X101098104Y-102222451D02*
X101079057Y-102231974D01*
X101079057Y-102231974D02*
X101040961Y-102241498D01*
X101040961Y-102241498D02*
X101012390Y-102241498D01*
X101012390Y-102241498D02*
X100974295Y-102231974D01*
X100974295Y-102231974D02*
X100955247Y-102222451D01*
X100955247Y-102222451D02*
X100936200Y-102203403D01*
X100936200Y-102203403D02*
X100926676Y-102174832D01*
X100926676Y-102174832D02*
X100926676Y-102127213D01*
X100926676Y-102327213D02*
X101126676Y-102327213D01*
X101776576Y-101227213D02*
X101976576Y-101227213D01*
X101976576Y-101227213D02*
X101976576Y-101274832D01*
X101976576Y-101274832D02*
X101967052Y-101303403D01*
X101967052Y-101303403D02*
X101948004Y-101322451D01*
X101948004Y-101322451D02*
X101928957Y-101331974D01*
X101928957Y-101331974D02*
X101890861Y-101341498D01*
X101890861Y-101341498D02*
X101862290Y-101341498D01*
X101862290Y-101341498D02*
X101824195Y-101331974D01*
X101824195Y-101331974D02*
X101805147Y-101322451D01*
X101805147Y-101322451D02*
X101786100Y-101303403D01*
X101786100Y-101303403D02*
X101776576Y-101274832D01*
X101776576Y-101274832D02*
X101776576Y-101227213D01*
X101976576Y-101465308D02*
X101976576Y-101503403D01*
X101976576Y-101503403D02*
X101967052Y-101522451D01*
X101967052Y-101522451D02*
X101948004Y-101541498D01*
X101948004Y-101541498D02*
X101909909Y-101551022D01*
X101909909Y-101551022D02*
X101843242Y-101551022D01*
X101843242Y-101551022D02*
X101805147Y-101541498D01*
X101805147Y-101541498D02*
X101786100Y-101522451D01*
X101786100Y-101522451D02*
X101776576Y-101503403D01*
X101776576Y-101503403D02*
X101776576Y-101465308D01*
X101776576Y-101465308D02*
X101786100Y-101446260D01*
X101786100Y-101446260D02*
X101805147Y-101427213D01*
X101805147Y-101427213D02*
X101843242Y-101417689D01*
X101843242Y-101417689D02*
X101909909Y-101417689D01*
X101909909Y-101417689D02*
X101948004Y-101427213D01*
X101948004Y-101427213D02*
X101967052Y-101446260D01*
X101967052Y-101446260D02*
X101976576Y-101465308D01*
D13*
%TO.C,C3*%
X133761252Y-100765000D02*
X133238748Y-100765000D01*
X133761252Y-102235000D02*
X133238748Y-102235000D01*
%TO.C,SW1*%
X104550000Y-106050000D02*
X104550000Y-106170000D01*
X104550000Y-107180000D02*
X104550000Y-108320000D01*
X104550000Y-109330000D02*
X104550000Y-109450000D01*
X104550000Y-109450000D02*
X108950000Y-109450000D01*
X108950000Y-106050000D02*
X104550000Y-106050000D01*
X108950000Y-106170000D02*
X108950000Y-106050000D01*
X108950000Y-108320000D02*
X108950000Y-107180000D01*
X108950000Y-109450000D02*
X108950000Y-109330000D01*
%TO.C,J2*%
X161805000Y-124315000D02*
X161805000Y-114440000D01*
X161891724Y-124315000D02*
X161805000Y-124315000D01*
X162105507Y-114440000D02*
X161805000Y-114440000D01*
X163195000Y-114440000D02*
X162894493Y-114440000D01*
X163195000Y-124315000D02*
X163108276Y-124315000D01*
X163195000Y-124315000D02*
X163195000Y-114440000D01*
X163195000Y-125000000D02*
X163195000Y-125685000D01*
X163195000Y-125685000D02*
X162500000Y-125685000D01*
%TO.C,R3*%
X157903641Y-103620000D02*
X157596359Y-103620000D01*
X157903641Y-104380000D02*
X157596359Y-104380000D01*
%TO.C,MR9*%
X116120000Y-131923641D02*
X116120000Y-131616359D01*
X116880000Y-131923641D02*
X116880000Y-131616359D01*
%TO.C,MR3*%
X116120000Y-108403641D02*
X116120000Y-108096359D01*
X116880000Y-108403641D02*
X116880000Y-108096359D01*
%TO.C,R1*%
X112403641Y-114620000D02*
X112096359Y-114620000D01*
X112403641Y-115380000D02*
X112096359Y-115380000D01*
%TO.C,MR14*%
X150130000Y-131883641D02*
X150130000Y-131576359D01*
X150890000Y-131883641D02*
X150890000Y-131576359D01*
D14*
%TO.C,LED4*%
X100650000Y-127150000D02*
X100650000Y-128850000D01*
X100650000Y-128850000D02*
X102350000Y-128850000D01*
X102350000Y-127150000D02*
X100650000Y-127150000D01*
X102350000Y-128850000D02*
X102350000Y-127150000D01*
X102250000Y-127000000D02*
G75*
G02*
X102150000Y-127000000I-50000J0D01*
G01*
X102150000Y-127000000D02*
G75*
G02*
X102250000Y-127000000I50000J0D01*
G01*
D13*
%TO.C,M2*%
X124665000Y-137440000D02*
X124665000Y-135560000D01*
X126635000Y-134390000D02*
X127785000Y-134390000D01*
X126635000Y-138610000D02*
X127785000Y-138610000D01*
X127785000Y-134390000D02*
X127785000Y-135440000D01*
X127785000Y-137560000D02*
X128775000Y-137560000D01*
X127785000Y-138610000D02*
X127785000Y-137560000D01*
%TO.C,C5*%
X108515000Y-112238748D02*
X108515000Y-112761252D01*
X109985000Y-112238748D02*
X109985000Y-112761252D01*
%TO.C,U2*%
X131890000Y-103390000D02*
X131890000Y-103865000D01*
X131890000Y-106610000D02*
X131890000Y-106135000D01*
X132365000Y-103390000D02*
X131890000Y-103390000D01*
X132365000Y-106610000D02*
X131890000Y-106610000D01*
X134635000Y-103390000D02*
X135110000Y-103390000D01*
X134635000Y-106610000D02*
X134810000Y-106610000D01*
X135110000Y-103390000D02*
X135110000Y-103865000D01*
X135110000Y-106135000D02*
X135110000Y-106370000D01*
X135350000Y-106940000D02*
X134870000Y-106940000D01*
X135110000Y-106610000D01*
X135350000Y-106940000D01*
G36*
X135350000Y-106940000D02*
G01*
X134870000Y-106940000D01*
X135110000Y-106610000D01*
X135350000Y-106940000D01*
G37*
%TO.C,C4*%
X106265000Y-112238748D02*
X106265000Y-112761252D01*
X107735000Y-112238748D02*
X107735000Y-112761252D01*
%TO.C,C10*%
X113015000Y-112238748D02*
X113015000Y-112761252D01*
X114485000Y-112238748D02*
X114485000Y-112761252D01*
%TO.C,M3*%
X139215000Y-101390000D02*
X139215000Y-102440000D01*
X139215000Y-102440000D02*
X138225000Y-102440000D01*
X139215000Y-105610000D02*
X139215000Y-104560000D01*
X140365000Y-101390000D02*
X139215000Y-101390000D01*
X140365000Y-105610000D02*
X139215000Y-105610000D01*
X142335000Y-102560000D02*
X142335000Y-104440000D01*
%TO.C,R7*%
X130120000Y-106346359D02*
X130120000Y-106653641D01*
X130880000Y-106346359D02*
X130880000Y-106653641D01*
%TO.C,U7*%
X116500000Y-115165000D02*
X114500000Y-115165000D01*
X116500000Y-117385000D02*
X114500000Y-117385000D01*
X116740000Y-117565000D02*
X116740000Y-117285000D01*
X117020000Y-117285000D01*
X116740000Y-117565000D01*
G36*
X116740000Y-117565000D02*
G01*
X116740000Y-117285000D01*
X117020000Y-117285000D01*
X116740000Y-117565000D01*
G37*
%TO.C,J1*%
X100600000Y-115300000D02*
X100600000Y-124700000D01*
X102500000Y-115300000D02*
X100600000Y-115300000D01*
X102500000Y-124700000D02*
X100600000Y-124700000D01*
X106400000Y-115300000D02*
X104400000Y-115300000D01*
X106400000Y-124700000D02*
X104400000Y-124700000D01*
%TO.C,J11*%
X107770000Y-101615000D02*
X108405000Y-101615000D01*
X108405000Y-101615000D02*
X108405000Y-102250000D01*
%TO.C,MR8*%
X150120000Y-108403641D02*
X150120000Y-108096359D01*
X150880000Y-108403641D02*
X150880000Y-108096359D01*
%TO.C,MR11*%
X116130000Y-134153641D02*
X116130000Y-133846359D01*
X116890000Y-134153641D02*
X116890000Y-133846359D01*
%TO.C,MR16*%
X150130000Y-134143641D02*
X150130000Y-133836359D01*
X150890000Y-134143641D02*
X150890000Y-133836359D01*
%TO.C,C9*%
X138142164Y-132390000D02*
X138357836Y-132390000D01*
X138142164Y-133110000D02*
X138357836Y-133110000D01*
%TO.C,MR10*%
X117630000Y-131903641D02*
X117630000Y-131596359D01*
X118390000Y-131903641D02*
X118390000Y-131596359D01*
%TO.C,U4*%
X113612500Y-122790000D02*
X111612500Y-122790000D01*
X113612500Y-125010000D02*
X111612500Y-125010000D01*
X113852500Y-125190000D02*
X113852500Y-124910000D01*
X114132500Y-124910000D01*
X113852500Y-125190000D01*
G36*
X113852500Y-125190000D02*
G01*
X113852500Y-124910000D01*
X114132500Y-124910000D01*
X113852500Y-125190000D01*
G37*
D14*
%TO.C,LED7*%
X100650000Y-104150000D02*
X100650000Y-105850000D01*
X100650000Y-105850000D02*
X102350000Y-105850000D01*
X102350000Y-104150000D02*
X100650000Y-104150000D01*
X102350000Y-105850000D02*
X102350000Y-104150000D01*
X102250000Y-104000000D02*
G75*
G02*
X102150000Y-104000000I-50000J0D01*
G01*
X102150000Y-104000000D02*
G75*
G02*
X102250000Y-104000000I50000J0D01*
G01*
D13*
%TO.C,MR12*%
X117630000Y-134153641D02*
X117630000Y-133846359D01*
X118390000Y-134153641D02*
X118390000Y-133846359D01*
%TO.C,MR7*%
X148620000Y-108418641D02*
X148620000Y-108111359D01*
X149380000Y-108418641D02*
X149380000Y-108111359D01*
%TO.C,U3*%
X131890000Y-133865000D02*
X131890000Y-133630000D01*
X131890000Y-136610000D02*
X131890000Y-136135000D01*
X132365000Y-133390000D02*
X132190000Y-133390000D01*
X132365000Y-136610000D02*
X131890000Y-136610000D01*
X134635000Y-133390000D02*
X135110000Y-133390000D01*
X134635000Y-136610000D02*
X135110000Y-136610000D01*
X135110000Y-133390000D02*
X135110000Y-133865000D01*
X135110000Y-136610000D02*
X135110000Y-136135000D01*
X131890000Y-133390000D02*
X131650000Y-133060000D01*
X132130000Y-133060000D01*
X131890000Y-133390000D01*
G36*
X131890000Y-133390000D02*
G01*
X131650000Y-133060000D01*
X132130000Y-133060000D01*
X131890000Y-133390000D01*
G37*
D14*
%TO.C,D1*%
X158905000Y-137250000D02*
G75*
G02*
X158805000Y-137250000I-50000J0D01*
G01*
X158805000Y-137250000D02*
G75*
G02*
X158905000Y-137250000I50000J0D01*
G01*
D13*
%TO.C,J10*%
X156242929Y-133024193D02*
X161811395Y-127455727D01*
X156257071Y-134975807D02*
X155765632Y-134484368D01*
X156304252Y-133085516D02*
X156242929Y-133024193D01*
X156741439Y-134491439D02*
X156257071Y-134975807D01*
X157225807Y-134007071D02*
X157164484Y-133945748D01*
X157225807Y-134007071D02*
X162794273Y-128438605D01*
X162023885Y-127668217D02*
X161811395Y-127455727D01*
X162794273Y-128438605D02*
X162581783Y-128226115D01*
%TO.C,MR13*%
X148620000Y-131913641D02*
X148620000Y-131606359D01*
X149380000Y-131913641D02*
X149380000Y-131606359D01*
%TO.C,J9*%
X154590000Y-113040000D02*
X154590000Y-114840000D01*
X154590000Y-114840000D02*
X153650000Y-114840000D01*
X154590000Y-119010000D02*
X154590000Y-117210000D01*
X156190000Y-113040000D02*
X154590000Y-113040000D01*
X156190000Y-119010000D02*
X154590000Y-119010000D01*
X159060000Y-114310000D02*
X159060000Y-117740000D01*
%TO.C,M5*%
X155965000Y-120640000D02*
X155965000Y-121690000D01*
X155965000Y-121690000D02*
X154975000Y-121690000D01*
X155965000Y-124860000D02*
X155965000Y-123810000D01*
X157115000Y-120640000D02*
X155965000Y-120640000D01*
X157115000Y-124860000D02*
X155965000Y-124860000D01*
X159085000Y-121810000D02*
X159085000Y-123690000D01*
%TO.C,MR2*%
X117620000Y-106153641D02*
X117620000Y-105846359D01*
X118380000Y-106153641D02*
X118380000Y-105846359D01*
%TO.C,J3*%
X155668217Y-105976115D02*
X155455727Y-106188605D01*
X156438605Y-105205727D02*
X156226115Y-105418217D01*
X161024193Y-111757071D02*
X155455727Y-106188605D01*
X161085516Y-111695748D02*
X161024193Y-111757071D01*
X162007071Y-110774193D02*
X156438605Y-105205727D01*
X162007071Y-110774193D02*
X161945748Y-110835516D01*
X162491439Y-111258561D02*
X162975807Y-111742929D01*
X162975807Y-111742929D02*
X162484368Y-112234368D01*
%TO.C,R8*%
X136120000Y-133903641D02*
X136120000Y-133596359D01*
X136880000Y-133903641D02*
X136880000Y-133596359D01*
%TO.C,C7*%
X110765000Y-112238748D02*
X110765000Y-112761252D01*
X112235000Y-112238748D02*
X112235000Y-112761252D01*
D14*
%TO.C,LED1*%
X100650000Y-137400000D02*
X100650000Y-139100000D01*
X100650000Y-139100000D02*
X102350000Y-139100000D01*
X102350000Y-137400000D02*
X100650000Y-137400000D01*
X102350000Y-139100000D02*
X102350000Y-137400000D01*
X102250000Y-137250000D02*
G75*
G02*
X102150000Y-137250000I-50000J0D01*
G01*
X102150000Y-137250000D02*
G75*
G02*
X102250000Y-137250000I50000J0D01*
G01*
D13*
%TO.C,MR4*%
X117620000Y-108413641D02*
X117620000Y-108106359D01*
X118380000Y-108413641D02*
X118380000Y-108106359D01*
%TO.C,MR1*%
X116120000Y-106153641D02*
X116120000Y-105846359D01*
X116880000Y-106153641D02*
X116880000Y-105846359D01*
D14*
%TO.C,LED6*%
X100650000Y-107650000D02*
X100650000Y-109350000D01*
X100650000Y-109350000D02*
X102350000Y-109350000D01*
X102350000Y-107650000D02*
X100650000Y-107650000D01*
X102350000Y-109350000D02*
X102350000Y-107650000D01*
X102250000Y-107500000D02*
G75*
G02*
X102150000Y-107500000I-50000J0D01*
G01*
X102150000Y-107500000D02*
G75*
G02*
X102250000Y-107500000I50000J0D01*
G01*
D13*
%TO.C,MR15*%
X148630000Y-134143641D02*
X148630000Y-133836359D01*
X149390000Y-134143641D02*
X149390000Y-133836359D01*
D15*
%TO.C,Q1*%
X152110300Y-120827600D02*
X152923100Y-120827600D01*
X152923100Y-120827600D02*
X152923100Y-121486400D01*
X152923100Y-123013600D02*
X152923100Y-123672400D01*
X152923100Y-123672400D02*
X152110300Y-123672400D01*
D14*
%TO.C,LED5*%
X100650000Y-111150000D02*
X100650000Y-112850000D01*
X100650000Y-112850000D02*
X102350000Y-112850000D01*
X102350000Y-111150000D02*
X100650000Y-111150000D01*
X102350000Y-112850000D02*
X102350000Y-111150000D01*
X102250000Y-111000000D02*
G75*
G02*
X102150000Y-111000000I-50000J0D01*
G01*
X102150000Y-111000000D02*
G75*
G02*
X102250000Y-111000000I50000J0D01*
G01*
D13*
%TO.C,C2*%
X117890000Y-119892164D02*
X117890000Y-120107836D01*
X118610000Y-119892164D02*
X118610000Y-120107836D01*
%TO.C,R10*%
X112403641Y-117120000D02*
X112096359Y-117120000D01*
X112403641Y-117880000D02*
X112096359Y-117880000D01*
%TO.C,R4*%
X157903641Y-135620000D02*
X157596359Y-135620000D01*
X157903641Y-136380000D02*
X157596359Y-136380000D01*
%TO.C,M4*%
X124565000Y-104440000D02*
X124565000Y-102560000D01*
X126535000Y-101390000D02*
X127685000Y-101390000D01*
X126535000Y-105610000D02*
X127685000Y-105610000D01*
X127685000Y-101390000D02*
X127685000Y-102440000D01*
X127685000Y-104560000D02*
X128675000Y-104560000D01*
X127685000Y-105610000D02*
X127685000Y-104560000D01*
D14*
%TO.C,D2*%
X158890000Y-102750000D02*
G75*
G02*
X158790000Y-102750000I-50000J0D01*
G01*
X158790000Y-102750000D02*
G75*
G02*
X158890000Y-102750000I50000J0D01*
G01*
D13*
%TO.C,M1*%
X139215000Y-134390000D02*
X139215000Y-135440000D01*
X139215000Y-135440000D02*
X138225000Y-135440000D01*
X139215000Y-138610000D02*
X139215000Y-137560000D01*
X140365000Y-134390000D02*
X139215000Y-134390000D01*
X140365000Y-138610000D02*
X139215000Y-138610000D01*
X142335000Y-135560000D02*
X142335000Y-137440000D01*
%TO.C,C6*%
X133238748Y-137765000D02*
X133761252Y-137765000D01*
X133238748Y-139235000D02*
X133761252Y-139235000D01*
D14*
%TO.C,LED3*%
X100650000Y-130650000D02*
X100650000Y-132350000D01*
X100650000Y-132350000D02*
X102350000Y-132350000D01*
X102350000Y-130650000D02*
X100650000Y-130650000D01*
X102350000Y-132350000D02*
X102350000Y-130650000D01*
X102250000Y-130500000D02*
G75*
G02*
X102150000Y-130500000I-50000J0D01*
G01*
X102150000Y-130500000D02*
G75*
G02*
X102250000Y-130500000I50000J0D01*
G01*
D13*
%TO.C,C1*%
X104015000Y-112761252D02*
X104015000Y-112238748D01*
X105485000Y-112761252D02*
X105485000Y-112238748D01*
%TO.C,MR6*%
X150120000Y-106153641D02*
X150120000Y-105846359D01*
X150880000Y-106153641D02*
X150880000Y-105846359D01*
D14*
%TO.C,LED2*%
X100650000Y-134150000D02*
X100650000Y-135850000D01*
X100650000Y-135850000D02*
X102350000Y-135850000D01*
X102350000Y-134150000D02*
X100650000Y-134150000D01*
X102350000Y-135850000D02*
X102350000Y-134150000D01*
X102250000Y-134000000D02*
G75*
G02*
X102150000Y-134000000I-50000J0D01*
G01*
X102150000Y-134000000D02*
G75*
G02*
X102250000Y-134000000I50000J0D01*
G01*
D13*
%TO.C,C8*%
X128857836Y-106890000D02*
X128642164Y-106890000D01*
X128857836Y-107610000D02*
X128642164Y-107610000D01*
%TO.C,U5*%
X119140000Y-118640000D02*
X119140000Y-118815000D01*
X119140000Y-121360000D02*
X119140000Y-121185000D01*
X119815000Y-118640000D02*
X119140000Y-118640000D01*
X119815000Y-121360000D02*
X119140000Y-121360000D01*
X121685000Y-118640000D02*
X122360000Y-118640000D01*
X121685000Y-121360000D02*
X122060000Y-121360000D01*
X122360000Y-118640000D02*
X122360000Y-118815000D01*
X122500000Y-121550000D02*
X122220000Y-121550000D01*
X122360000Y-121360000D01*
X122500000Y-121550000D01*
G36*
X122500000Y-121550000D02*
G01*
X122220000Y-121550000D01*
X122360000Y-121360000D01*
X122500000Y-121550000D01*
G37*
%TO.C,U1*%
X102905000Y-127880000D02*
X102905000Y-130630000D01*
X102905000Y-139120000D02*
X102905000Y-136370000D01*
X104730000Y-127880000D02*
X102905000Y-127880000D01*
X104730000Y-139120000D02*
X102905000Y-139120000D01*
X108620000Y-127880000D02*
X110445000Y-127880000D01*
X108645000Y-139125000D02*
X110445000Y-139125000D01*
X110445000Y-127880000D02*
X110445000Y-130630000D01*
X110445000Y-139125000D02*
X110445000Y-136370000D01*
X110765000Y-135840000D02*
X110435000Y-135600000D01*
X110765000Y-135360000D01*
X110765000Y-135840000D01*
G36*
X110765000Y-135840000D02*
G01*
X110435000Y-135600000D01*
X110765000Y-135360000D01*
X110765000Y-135840000D01*
G37*
%TO.C,MR5*%
X148620000Y-106153641D02*
X148620000Y-105846359D01*
X149380000Y-106153641D02*
X149380000Y-105846359D01*
%TO.C,R2*%
X112403641Y-115870000D02*
X112096359Y-115870000D01*
X112403641Y-116630000D02*
X112096359Y-116630000D01*
D14*
%TO.C,LED8*%
X100650000Y-100900000D02*
X100650000Y-102600000D01*
X100650000Y-102600000D02*
X102350000Y-102600000D01*
X102350000Y-100900000D02*
X100650000Y-100900000D01*
X102350000Y-102600000D02*
X102350000Y-100900000D01*
X102250000Y-100750000D02*
G75*
G02*
X102150000Y-100750000I-50000J0D01*
G01*
X102150000Y-100750000D02*
G75*
G02*
X102250000Y-100750000I50000J0D01*
G01*
%TD*%
M02*
