%TF.GenerationSoftware,KiCad,Pcbnew,9.0.3*%
%TF.CreationDate,2025-07-23T20:32:43-05:00*%
%TF.ProjectId,MouseWB5,4d6f7573-6557-4423-952e-6b696361645f,rev?*%
%TF.SameCoordinates,Original*%
%TF.FileFunction,Paste,Top*%
%TF.FilePolarity,Positive*%
%FSLAX46Y46*%
G04 Gerber Fmt 4.6, Leading zero omitted, Abs format (unit mm)*
G04 Created by KiCad (PCBNEW 9.0.3) date 2025-07-23 20:32:43*
%MOMM*%
%LPD*%
G01*
G04 APERTURE LIST*
G04 Aperture macros list*
%AMRoundRect*
0 Rectangle with rounded corners*
0 $1 Rounding radius*
0 $2 $3 $4 $5 $6 $7 $8 $9 X,Y pos of 4 corners*
0 Add a 4 corners polygon primitive as box body*
4,1,4,$2,$3,$4,$5,$6,$7,$8,$9,$2,$3,0*
0 Add four circle primitives for the rounded corners*
1,1,$1+$1,$2,$3*
1,1,$1+$1,$4,$5*
1,1,$1+$1,$6,$7*
1,1,$1+$1,$8,$9*
0 Add four rect primitives between the rounded corners*
20,1,$1+$1,$2,$3,$4,$5,0*
20,1,$1+$1,$4,$5,$6,$7,0*
20,1,$1+$1,$6,$7,$8,$9,0*
20,1,$1+$1,$8,$9,$2,$3,0*%
G04 Aperture macros list end*
%ADD10C,0.000000*%
%ADD11RoundRect,0.250000X0.250000X0.475000X-0.250000X0.475000X-0.250000X-0.475000X0.250000X-0.475000X0*%
%ADD12R,1.050000X0.650000*%
%ADD13RoundRect,0.135000X0.135000X0.185000X-0.135000X0.185000X-0.135000X-0.185000X0.135000X-0.185000X0*%
%ADD14RoundRect,0.135000X0.185000X-0.135000X0.185000X0.135000X-0.185000X0.135000X-0.185000X-0.135000X0*%
%ADD15R,0.450000X0.450000*%
%ADD16RoundRect,0.150000X0.625000X-0.150000X0.625000X0.150000X-0.625000X0.150000X-0.625000X-0.150000X0*%
%ADD17RoundRect,0.250000X0.650000X-0.350000X0.650000X0.350000X-0.650000X0.350000X-0.650000X-0.350000X0*%
%ADD18RoundRect,0.250000X-0.475000X0.250000X-0.475000X-0.250000X0.475000X-0.250000X0.475000X0.250000X0*%
%ADD19RoundRect,0.182500X0.182500X0.182500X-0.182500X0.182500X-0.182500X-0.182500X0.182500X-0.182500X0*%
%ADD20RoundRect,0.062500X0.325000X0.062500X-0.325000X0.062500X-0.325000X-0.062500X0.325000X-0.062500X0*%
%ADD21RoundRect,0.062500X0.062500X0.325000X-0.062500X0.325000X-0.062500X-0.325000X0.062500X-0.325000X0*%
%ADD22RoundRect,0.150000X-0.625000X0.150000X-0.625000X-0.150000X0.625000X-0.150000X0.625000X0.150000X0*%
%ADD23RoundRect,0.250000X-0.650000X0.350000X-0.650000X-0.350000X0.650000X-0.350000X0.650000X0.350000X0*%
%ADD24RoundRect,0.135000X-0.185000X0.135000X-0.185000X-0.135000X0.185000X-0.135000X0.185000X0.135000X0*%
%ADD25RoundRect,0.172500X0.262500X0.172500X-0.262500X0.172500X-0.262500X-0.172500X0.262500X-0.172500X0*%
%ADD26RoundRect,0.093750X0.093750X0.106250X-0.093750X0.106250X-0.093750X-0.106250X0.093750X-0.106250X0*%
%ADD27R,0.804800X0.450000*%
%ADD28R,1.750000X2.500000*%
%ADD29R,1.450000X0.600000*%
%ADD30R,1.450000X0.300000*%
%ADD31RoundRect,0.140000X-0.140000X-0.170000X0.140000X-0.170000X0.140000X0.170000X-0.140000X0.170000X0*%
%ADD32RoundRect,0.182500X-0.182500X-0.182500X0.182500X-0.182500X0.182500X0.182500X-0.182500X0.182500X0*%
%ADD33RoundRect,0.062500X-0.325000X-0.062500X0.325000X-0.062500X0.325000X0.062500X-0.325000X0.062500X0*%
%ADD34RoundRect,0.062500X-0.062500X-0.325000X0.062500X-0.325000X0.062500X0.325000X-0.062500X0.325000X0*%
%ADD35RoundRect,0.147500X0.147500X0.172500X-0.147500X0.172500X-0.147500X-0.172500X0.147500X-0.172500X0*%
%ADD36RoundRect,0.150000X-0.700000X0.150000X-0.700000X-0.150000X0.700000X-0.150000X0.700000X0.150000X0*%
%ADD37RoundRect,0.250000X-1.150000X0.250000X-1.150000X-0.250000X1.150000X-0.250000X1.150000X0.250000X0*%
%ADD38RoundRect,0.079500X-0.100500X0.079500X-0.100500X-0.079500X0.100500X-0.079500X0.100500X0.079500X0*%
%ADD39R,1.400000X1.000000*%
%ADD40RoundRect,0.140000X-0.170000X0.140000X-0.170000X-0.140000X0.170000X-0.140000X0.170000X0.140000X0*%
%ADD41RoundRect,0.250000X-0.250000X-0.475000X0.250000X-0.475000X0.250000X0.475000X-0.250000X0.475000X0*%
%ADD42RoundRect,0.250000X0.475000X-0.250000X0.475000X0.250000X-0.475000X0.250000X-0.475000X-0.250000X0*%
%ADD43RoundRect,0.140000X0.140000X0.170000X-0.140000X0.170000X-0.140000X-0.170000X0.140000X-0.170000X0*%
%ADD44RoundRect,0.087500X0.225000X0.087500X-0.225000X0.087500X-0.225000X-0.087500X0.225000X-0.087500X0*%
%ADD45RoundRect,0.087500X0.087500X0.225000X-0.087500X0.225000X-0.087500X-0.225000X0.087500X-0.225000X0*%
%ADD46R,0.350000X0.350000*%
%ADD47R,0.350000X0.300000*%
%ADD48R,0.300000X0.350000*%
%ADD49R,0.600000X0.600000*%
%ADD50R,0.430000X0.430000*%
G04 APERTURE END LIST*
D10*
%TO.C,U6*%
G36*
X114327400Y-121549999D02*
G01*
X112577400Y-121549999D01*
X112577400Y-119049999D01*
X114327400Y-119049999D01*
X114327400Y-121549999D01*
G37*
%TD*%
D11*
%TO.C,C3*%
X134450000Y-101500000D03*
X132550000Y-101500000D03*
%TD*%
D12*
%TO.C,SW1*%
X108825000Y-108825000D03*
X104675000Y-108825000D03*
X108825000Y-106675000D03*
X104675000Y-106675000D03*
%TD*%
D13*
%TO.C,R3*%
X158260000Y-104000000D03*
X157240000Y-104000000D03*
%TD*%
D14*
%TO.C,MR9*%
X116500000Y-132280000D03*
X116500000Y-131260000D03*
%TD*%
%TO.C,MR3*%
X116500000Y-108760000D03*
X116500000Y-107740000D03*
%TD*%
D13*
%TO.C,R1*%
X112760000Y-115000000D03*
X111740000Y-115000000D03*
%TD*%
D14*
%TO.C,MR14*%
X150510000Y-132240000D03*
X150510000Y-131220000D03*
%TD*%
D15*
%TO.C,LED4*%
X101924700Y-127575100D03*
X101924900Y-128424900D03*
X101075100Y-127575100D03*
X101075100Y-128424900D03*
%TD*%
D16*
%TO.C,M2*%
X128000000Y-137000000D03*
X128000000Y-136000000D03*
D17*
X125475000Y-138300000D03*
X125475000Y-134700000D03*
%TD*%
D18*
%TO.C,C5*%
X109250000Y-111550000D03*
X109250000Y-113450000D03*
%TD*%
D19*
%TO.C,U2*%
X133950000Y-105450000D03*
X133950000Y-104550000D03*
X133050000Y-105450000D03*
X133050000Y-104550000D03*
D20*
X134987500Y-105750000D03*
X134987500Y-105250000D03*
X134987500Y-104750000D03*
X134987500Y-104250000D03*
D21*
X134250000Y-103512500D03*
X133750000Y-103512500D03*
X133250000Y-103512500D03*
X132750000Y-103512500D03*
D20*
X132012500Y-104250000D03*
X132012500Y-104750000D03*
X132012500Y-105250000D03*
X132012500Y-105750000D03*
D21*
X132750000Y-106487500D03*
X133250000Y-106487500D03*
X133750000Y-106487500D03*
X134250000Y-106487500D03*
%TD*%
D18*
%TO.C,C4*%
X107000000Y-111550000D03*
X107000000Y-113450000D03*
%TD*%
%TO.C,C10*%
X113750000Y-111550000D03*
X113750000Y-113450000D03*
%TD*%
D22*
%TO.C,M3*%
X139000000Y-103000000D03*
X139000000Y-104000000D03*
D23*
X141525000Y-101700000D03*
X141525000Y-105300000D03*
%TD*%
D24*
%TO.C,R7*%
X130500000Y-105990000D03*
X130500000Y-107010000D03*
%TD*%
D25*
%TO.C,U7*%
X115500000Y-116675000D03*
X115500000Y-115875000D03*
D26*
X116387500Y-116925000D03*
X116387500Y-116275000D03*
X116387500Y-115625000D03*
X114612500Y-115625000D03*
X114612500Y-116275000D03*
X114612500Y-116925000D03*
%TD*%
D27*
%TO.C,U6*%
X114904800Y-121250000D03*
X114904800Y-120299999D03*
X114904800Y-119349998D03*
X112000000Y-119349998D03*
X112000000Y-120299999D03*
X112000000Y-121250000D03*
D28*
X113452400Y-120299999D03*
%TD*%
D29*
%TO.C,J1*%
X108545000Y-116750000D03*
X108545000Y-117550000D03*
D30*
X108545000Y-118750000D03*
X108545000Y-119750000D03*
X108545000Y-120250000D03*
X108545000Y-121250000D03*
D29*
X108545000Y-122450000D03*
X108545000Y-123250000D03*
X108545000Y-123250000D03*
X108545000Y-122450000D03*
D30*
X108545000Y-121750000D03*
X108545000Y-120750000D03*
X108545000Y-119250000D03*
X108545000Y-118250000D03*
D29*
X108545000Y-117550000D03*
X108545000Y-116750000D03*
%TD*%
D14*
%TO.C,MR8*%
X150500000Y-108760000D03*
X150500000Y-107740000D03*
%TD*%
%TO.C,MR11*%
X116510000Y-134510000D03*
X116510000Y-133490000D03*
%TD*%
%TO.C,MR16*%
X150510000Y-134500000D03*
X150510000Y-133480000D03*
%TD*%
D31*
%TO.C,C9*%
X137770000Y-132750000D03*
X138730000Y-132750000D03*
%TD*%
D14*
%TO.C,MR10*%
X118010000Y-132260000D03*
X118010000Y-131240000D03*
%TD*%
D25*
%TO.C,U4*%
X112612500Y-124300000D03*
X112612500Y-123500000D03*
D26*
X113500000Y-124550000D03*
X113500000Y-123900000D03*
X113500000Y-123250000D03*
X111725000Y-123250000D03*
X111725000Y-123900000D03*
X111725000Y-124550000D03*
%TD*%
D15*
%TO.C,LED7*%
X101924700Y-104575100D03*
X101924900Y-105424900D03*
X101075100Y-104575100D03*
X101075100Y-105424900D03*
%TD*%
D14*
%TO.C,MR12*%
X118010000Y-134510000D03*
X118010000Y-133490000D03*
%TD*%
%TO.C,MR7*%
X149000000Y-108775000D03*
X149000000Y-107755000D03*
%TD*%
D32*
%TO.C,U3*%
X133050000Y-134550000D03*
X133050000Y-135450000D03*
X133950000Y-134550000D03*
X133950000Y-135450000D03*
D33*
X132012500Y-134250000D03*
X132012500Y-134750000D03*
X132012500Y-135250000D03*
X132012500Y-135750000D03*
D34*
X132750000Y-136487500D03*
X133250000Y-136487500D03*
X133750000Y-136487500D03*
X134250000Y-136487500D03*
D33*
X134987500Y-135750000D03*
X134987500Y-135250000D03*
X134987500Y-134750000D03*
X134987500Y-134250000D03*
D34*
X134250000Y-133512500D03*
X133750000Y-133512500D03*
X133250000Y-133512500D03*
X132750000Y-133512500D03*
%TD*%
D35*
%TO.C,D1*%
X158250000Y-137250000D03*
X157280000Y-137250000D03*
%TD*%
D14*
%TO.C,MR13*%
X149000000Y-132270000D03*
X149000000Y-131250000D03*
%TD*%
D36*
%TO.C,J9*%
X154500000Y-115400000D03*
X154500000Y-116650000D03*
D37*
X157850000Y-113550000D03*
X157850000Y-118500000D03*
%TD*%
D22*
%TO.C,M5*%
X155750000Y-122250000D03*
X155750000Y-123250000D03*
D23*
X158275000Y-120950000D03*
X158275000Y-124550000D03*
%TD*%
D14*
%TO.C,MR2*%
X118000000Y-106510000D03*
X118000000Y-105490000D03*
%TD*%
%TO.C,R8*%
X136500000Y-134260000D03*
X136500000Y-133240000D03*
%TD*%
D18*
%TO.C,C7*%
X111500000Y-111550000D03*
X111500000Y-113450000D03*
%TD*%
D15*
%TO.C,LED1*%
X101924700Y-137825100D03*
X101924900Y-138674900D03*
X101075100Y-137825100D03*
X101075100Y-138674900D03*
%TD*%
D14*
%TO.C,MR4*%
X118000000Y-108770000D03*
X118000000Y-107750000D03*
%TD*%
%TO.C,MR1*%
X116500000Y-106510000D03*
X116500000Y-105490000D03*
%TD*%
D38*
%TO.C,R5*%
X104625000Y-126405000D03*
X104625000Y-127095000D03*
%TD*%
%TO.C,R6*%
X103750000Y-126405000D03*
X103750000Y-127095000D03*
%TD*%
D15*
%TO.C,LED6*%
X101924700Y-108075100D03*
X101924900Y-108924900D03*
X101075100Y-108075100D03*
X101075100Y-108924900D03*
%TD*%
D14*
%TO.C,MR15*%
X149010000Y-134500000D03*
X149010000Y-133480000D03*
%TD*%
D39*
%TO.C,Q1*%
X151162700Y-121300000D03*
X151162700Y-123200000D03*
X153362700Y-122250000D03*
%TD*%
D15*
%TO.C,LED5*%
X101924700Y-111575100D03*
X101924900Y-112424900D03*
X101075100Y-111575100D03*
X101075100Y-112424900D03*
%TD*%
D40*
%TO.C,C2*%
X118250000Y-119520000D03*
X118250000Y-120480000D03*
%TD*%
D13*
%TO.C,R10*%
X112760000Y-117500000D03*
X111740000Y-117500000D03*
%TD*%
%TO.C,R4*%
X158260000Y-136000000D03*
X157240000Y-136000000D03*
%TD*%
D16*
%TO.C,M4*%
X127900000Y-104000000D03*
X127900000Y-103000000D03*
D17*
X125375000Y-105300000D03*
X125375000Y-101700000D03*
%TD*%
D35*
%TO.C,D2*%
X158235000Y-102750000D03*
X157265000Y-102750000D03*
%TD*%
D22*
%TO.C,M1*%
X139000000Y-136000000D03*
X139000000Y-137000000D03*
D23*
X141525000Y-134700000D03*
X141525000Y-138300000D03*
%TD*%
D41*
%TO.C,C6*%
X132550000Y-138500000D03*
X134450000Y-138500000D03*
%TD*%
D15*
%TO.C,LED3*%
X101924700Y-131075100D03*
X101924900Y-131924900D03*
X101075100Y-131075100D03*
X101075100Y-131924900D03*
%TD*%
D42*
%TO.C,C1*%
X104750000Y-113450000D03*
X104750000Y-111550000D03*
%TD*%
D14*
%TO.C,MR6*%
X150500000Y-106510000D03*
X150500000Y-105490000D03*
%TD*%
D15*
%TO.C,LED2*%
X101924700Y-134575100D03*
X101924900Y-135424900D03*
X101075100Y-134575100D03*
X101075100Y-135424900D03*
%TD*%
D43*
%TO.C,C8*%
X129230000Y-107250000D03*
X128270000Y-107250000D03*
%TD*%
D44*
%TO.C,U5*%
X121912500Y-120750000D03*
X121912500Y-120250000D03*
X121912500Y-119750000D03*
X121912500Y-119250000D03*
D45*
X121250000Y-119087500D03*
X120750000Y-119087500D03*
X120250000Y-119087500D03*
D44*
X119587500Y-119250000D03*
X119587500Y-119750000D03*
X119587500Y-120250000D03*
X119587500Y-120750000D03*
D45*
X120250000Y-120912500D03*
X120750000Y-120912500D03*
X121250000Y-120912500D03*
%TD*%
D46*
%TO.C,U1*%
X109850000Y-135575000D03*
D47*
X109850000Y-135100000D03*
X109850000Y-134650000D03*
X109850000Y-134200000D03*
X109850000Y-133750000D03*
X109850000Y-133300000D03*
X109850000Y-132850000D03*
X109850000Y-132400000D03*
X109850000Y-131950000D03*
X109850000Y-131500000D03*
X109850000Y-131050000D03*
X109850000Y-130600000D03*
X109850000Y-130150000D03*
X109850000Y-129700000D03*
X109850000Y-129250000D03*
X109850000Y-128800000D03*
D46*
X109850000Y-128325000D03*
D48*
X109375000Y-128325000D03*
X108925000Y-128325000D03*
X108475000Y-128325000D03*
X108025000Y-128325000D03*
X107575000Y-128325000D03*
X107125000Y-128325000D03*
X106675000Y-128325000D03*
X106225000Y-128325000D03*
X105775000Y-128325000D03*
X105325000Y-128325000D03*
X104875000Y-128325000D03*
X104425000Y-128325000D03*
X103975000Y-128325000D03*
D46*
X103500000Y-128325000D03*
D47*
X103500000Y-128800000D03*
X103500000Y-129250000D03*
X103500000Y-129700000D03*
X103500000Y-130150000D03*
X103500000Y-130600000D03*
X103500000Y-131050000D03*
X103500000Y-131500000D03*
X103500000Y-131950000D03*
X103500000Y-132400000D03*
X103500000Y-132850000D03*
X103500000Y-133300000D03*
X103500000Y-133750000D03*
X103500000Y-134200000D03*
X103500000Y-134650000D03*
X103500000Y-135100000D03*
D46*
X103500000Y-135575000D03*
D48*
X103975000Y-135575000D03*
X104425000Y-135575000D03*
X104875000Y-135575000D03*
X105325000Y-135575000D03*
X105775000Y-135575000D03*
X106225000Y-135575000D03*
X106675000Y-135575000D03*
X107125000Y-135575000D03*
X107575000Y-135575000D03*
X108025000Y-135575000D03*
X108475000Y-135575000D03*
X108925000Y-135575000D03*
X109375000Y-135575000D03*
D49*
X108025000Y-134200000D03*
X108025000Y-133300000D03*
X108025000Y-132400000D03*
X108025000Y-131500000D03*
X108025000Y-130600000D03*
X108025000Y-129700000D03*
X107125000Y-129700000D03*
X106225000Y-129700000D03*
X105325000Y-129700000D03*
X105325000Y-130600000D03*
X105325000Y-131500000D03*
X105325000Y-132400000D03*
X105325000Y-133300000D03*
X105325000Y-134200000D03*
X106225000Y-134200000D03*
X107125000Y-134200000D03*
X107125000Y-133300000D03*
X107125000Y-132400000D03*
X107125000Y-131500000D03*
X107125000Y-130600000D03*
X106225000Y-130600000D03*
X106225000Y-131500000D03*
X106225000Y-132400000D03*
X106225000Y-133300000D03*
D50*
X109725000Y-138535000D03*
X103625000Y-138535000D03*
%TD*%
D14*
%TO.C,MR5*%
X149000000Y-106510000D03*
X149000000Y-105490000D03*
%TD*%
D13*
%TO.C,R2*%
X112760000Y-116250000D03*
X111740000Y-116250000D03*
%TD*%
D15*
%TO.C,LED8*%
X101924700Y-101325100D03*
X101924900Y-102174900D03*
X101075100Y-101325100D03*
X101075100Y-102174900D03*
%TD*%
M02*
