%TF.GenerationSoftware,KiCad,Pcbnew,9.0.3*%
%TF.CreationDate,2025-07-23T20:32:43-05:00*%
%TF.ProjectId,MouseWB5,4d6f7573-6557-4423-952e-6b696361645f,rev?*%
%TF.SameCoordinates,Original*%
%TF.FileFunction,Legend,Bot*%
%TF.FilePolarity,Positive*%
%FSLAX46Y46*%
G04 Gerber Fmt 4.6, Leading zero omitted, Abs format (unit mm)*
G04 Created by KiCad (PCBNEW 9.0.3) date 2025-07-23 20:32:43*
%MOMM*%
%LPD*%
G01*
G04 APERTURE LIST*
%ADD10C,0.100000*%
%ADD11C,0.300000*%
%ADD12C,0.125000*%
G04 APERTURE END LIST*
D10*
X117500000Y-132875000D02*
X117750000Y-132750000D01*
X132500000Y-132875000D02*
X117500000Y-132875000D01*
X101500000Y-129500000D02*
G75*
G02*
X101500000Y-128000000I750000J750000D01*
G01*
X101500000Y-135500000D02*
G75*
G02*
X101500000Y-137000000I-750000J-750000D01*
G01*
X149500000Y-132875000D02*
X134750000Y-132875000D01*
X102750000Y-127750000D02*
X110500000Y-127750000D01*
X110500000Y-139250000D01*
X102750000Y-139250000D01*
X102750000Y-127750000D01*
D11*
X143125000Y-137750000D02*
X142750000Y-137750000D01*
D10*
X161000000Y-114500000D02*
X163250000Y-114500000D01*
X163250000Y-125500000D01*
X161000000Y-125500000D01*
X161000000Y-114500000D01*
D11*
X143187500Y-102250000D02*
X142750000Y-102250000D01*
X124250000Y-102250000D02*
X123750000Y-102250000D01*
D10*
X101500000Y-126500000D02*
G75*
G02*
X101500000Y-128000000I-750000J-750000D01*
G01*
X114112500Y-114875000D02*
X116862500Y-114875000D01*
X116862500Y-117625000D01*
X114112500Y-117625000D01*
X114112500Y-114875000D01*
X100250000Y-114750000D02*
X109500000Y-114750000D01*
X109500000Y-125250000D01*
X100250000Y-125250000D01*
X100250000Y-114750000D01*
X101500000Y-111500000D02*
G75*
G02*
X101500000Y-113000000I-750000J-750000D01*
G01*
X101500000Y-105500000D02*
G75*
G02*
X101500000Y-107000000I-750000J-750000D01*
G01*
X143000000Y-129500000D02*
X143000000Y-121250000D01*
X101500000Y-102500000D02*
G75*
G02*
X101500000Y-101000000I750000J750000D01*
G01*
D11*
X124250000Y-137750000D02*
X123750000Y-137750000D01*
D10*
X101500000Y-105500000D02*
G75*
G02*
X101500000Y-104000000I750000J750000D01*
G01*
D11*
X117250000Y-135000000D02*
X117250000Y-130750000D01*
D10*
X101500000Y-111500000D02*
G75*
G02*
X101500000Y-110000000I750000J750000D01*
G01*
X101500000Y-138500000D02*
G75*
G02*
X101500000Y-137000000I750000J750000D01*
G01*
X143125000Y-137250000D02*
X143000000Y-137500000D01*
X131250000Y-133500000D02*
X135750000Y-133500000D01*
X135750000Y-137500000D01*
X131250000Y-137500000D01*
X131250000Y-133500000D01*
X139500000Y-134750000D02*
X142250000Y-134750000D01*
X142250000Y-138250000D01*
X139500000Y-138250000D01*
X139500000Y-134750000D01*
D11*
X117250000Y-105000000D02*
X117250000Y-109000000D01*
D10*
X104000000Y-106000000D02*
X109500000Y-106000000D01*
X109500000Y-109500000D01*
X104000000Y-109500000D01*
X104000000Y-106000000D01*
X143000000Y-137500000D02*
X142875000Y-137250000D01*
X118750000Y-118250000D02*
X122750000Y-118250000D01*
X122750000Y-121750000D01*
X118750000Y-121750000D01*
X118750000Y-118250000D01*
X162750000Y-128500000D02*
X156250000Y-135000000D01*
X154750000Y-133500000D01*
X161250000Y-127000000D01*
X162750000Y-128500000D01*
X103000000Y-101000000D02*
X110000000Y-101000000D01*
X110000000Y-104750000D01*
X103000000Y-104750000D01*
X103000000Y-101000000D01*
X111250000Y-118750000D02*
X115500000Y-118750000D01*
X115500000Y-122000000D01*
X111250000Y-122000000D01*
X111250000Y-118750000D01*
D11*
X149750000Y-109250000D02*
X149750000Y-105000000D01*
D10*
X117750000Y-133000000D02*
X117500000Y-132875000D01*
X101500000Y-108500000D02*
G75*
G02*
X101500000Y-110000000I-750000J-750000D01*
G01*
X139500000Y-101750000D02*
X142250000Y-101750000D01*
X142250000Y-105250000D01*
X139500000Y-105250000D01*
X139500000Y-101750000D01*
X143000000Y-102500000D02*
X143125000Y-102750000D01*
X154500000Y-113000000D02*
X159250000Y-113000000D01*
X159250000Y-119000000D01*
X154500000Y-119000000D01*
X154500000Y-113000000D01*
X101500000Y-132500000D02*
G75*
G02*
X101500000Y-131000000I750000J750000D01*
G01*
X143000000Y-137500000D02*
X143000000Y-129500000D01*
X143000000Y-112750000D02*
X143000000Y-102500000D01*
X131250000Y-102500000D02*
X135750000Y-102500000D01*
X135750000Y-106500000D01*
X131250000Y-106500000D01*
X131250000Y-102500000D01*
X101500000Y-132500000D02*
G75*
G02*
X101500000Y-134000000I-750000J-750000D01*
G01*
X101500000Y-108500000D02*
G75*
G02*
X101500000Y-107000000I750000J750000D01*
G01*
X142875000Y-102750000D02*
X143000000Y-102500000D01*
X101500000Y-129500000D02*
G75*
G02*
X101500000Y-131000000I-750000J-750000D01*
G01*
X143000000Y-119000000D02*
X143000000Y-112625000D01*
D11*
X149750000Y-135000000D02*
X149750000Y-130750000D01*
D10*
X124750000Y-134750000D02*
X127500000Y-134750000D01*
X127500000Y-138250000D01*
X124750000Y-138250000D01*
X124750000Y-134750000D01*
X101500000Y-102500000D02*
G75*
G02*
X101500000Y-104000000I-750000J-750000D01*
G01*
X158750000Y-103250000D02*
X158750000Y-104500000D01*
X156750000Y-104500000D01*
X156750000Y-102250000D01*
X158750000Y-103250000D01*
X124750000Y-101750000D02*
X127500000Y-101750000D01*
X127500000Y-105250000D01*
X124750000Y-105250000D01*
X124750000Y-101750000D01*
X151287300Y-120500000D02*
X153212700Y-120500000D01*
X153212700Y-124000000D01*
X151287300Y-124000000D01*
X151287300Y-120500000D01*
X101500000Y-135500000D02*
G75*
G02*
X101500000Y-134000000I750000J750000D01*
G01*
X149500000Y-132875000D02*
X149250000Y-133000000D01*
X158750000Y-136750000D02*
X156750000Y-137750000D01*
X156750000Y-135500000D01*
X158750000Y-135500000D01*
X158750000Y-136750000D01*
X162875000Y-111625000D02*
X161375000Y-113125000D01*
X154875000Y-106625000D01*
X156375000Y-105125000D01*
X162875000Y-111625000D01*
X111250000Y-122750000D02*
X114000000Y-122750000D01*
X114000000Y-125250000D01*
X111250000Y-125250000D01*
X111250000Y-122750000D01*
X149250000Y-132750000D02*
X149500000Y-132875000D01*
X155750000Y-120500000D02*
X159250000Y-120500000D01*
X159250000Y-125000000D01*
X155750000Y-125000000D01*
X155750000Y-120500000D01*
D12*
X106317690Y-103798716D02*
X106817690Y-103798716D01*
X106817690Y-103798716D02*
X106817690Y-103608240D01*
X106817690Y-103608240D02*
X106793880Y-103560621D01*
X106793880Y-103560621D02*
X106770071Y-103536811D01*
X106770071Y-103536811D02*
X106722452Y-103513002D01*
X106722452Y-103513002D02*
X106651023Y-103513002D01*
X106651023Y-103513002D02*
X106603404Y-103536811D01*
X106603404Y-103536811D02*
X106579595Y-103560621D01*
X106579595Y-103560621D02*
X106555785Y-103608240D01*
X106555785Y-103608240D02*
X106555785Y-103798716D01*
X106317690Y-103013002D02*
X106555785Y-103179668D01*
X106317690Y-103298716D02*
X106817690Y-103298716D01*
X106817690Y-103298716D02*
X106817690Y-103108240D01*
X106817690Y-103108240D02*
X106793880Y-103060621D01*
X106793880Y-103060621D02*
X106770071Y-103036811D01*
X106770071Y-103036811D02*
X106722452Y-103013002D01*
X106722452Y-103013002D02*
X106651023Y-103013002D01*
X106651023Y-103013002D02*
X106603404Y-103036811D01*
X106603404Y-103036811D02*
X106579595Y-103060621D01*
X106579595Y-103060621D02*
X106555785Y-103108240D01*
X106555785Y-103108240D02*
X106555785Y-103298716D01*
X106817690Y-102703478D02*
X106817690Y-102608240D01*
X106817690Y-102608240D02*
X106793880Y-102560621D01*
X106793880Y-102560621D02*
X106746261Y-102513002D01*
X106746261Y-102513002D02*
X106651023Y-102489192D01*
X106651023Y-102489192D02*
X106484357Y-102489192D01*
X106484357Y-102489192D02*
X106389119Y-102513002D01*
X106389119Y-102513002D02*
X106341500Y-102560621D01*
X106341500Y-102560621D02*
X106317690Y-102608240D01*
X106317690Y-102608240D02*
X106317690Y-102703478D01*
X106317690Y-102703478D02*
X106341500Y-102751097D01*
X106341500Y-102751097D02*
X106389119Y-102798716D01*
X106389119Y-102798716D02*
X106484357Y-102822525D01*
X106484357Y-102822525D02*
X106651023Y-102822525D01*
X106651023Y-102822525D02*
X106746261Y-102798716D01*
X106746261Y-102798716D02*
X106793880Y-102751097D01*
X106793880Y-102751097D02*
X106817690Y-102703478D01*
X106793880Y-102013001D02*
X106817690Y-102060620D01*
X106817690Y-102060620D02*
X106817690Y-102132049D01*
X106817690Y-102132049D02*
X106793880Y-102203477D01*
X106793880Y-102203477D02*
X106746261Y-102251096D01*
X106746261Y-102251096D02*
X106698642Y-102274906D01*
X106698642Y-102274906D02*
X106603404Y-102298715D01*
X106603404Y-102298715D02*
X106531976Y-102298715D01*
X106531976Y-102298715D02*
X106436738Y-102274906D01*
X106436738Y-102274906D02*
X106389119Y-102251096D01*
X106389119Y-102251096D02*
X106341500Y-102203477D01*
X106341500Y-102203477D02*
X106317690Y-102132049D01*
X106317690Y-102132049D02*
X106317690Y-102084430D01*
X106317690Y-102084430D02*
X106341500Y-102013001D01*
X106341500Y-102013001D02*
X106365309Y-101989192D01*
X106365309Y-101989192D02*
X106531976Y-101989192D01*
X106531976Y-101989192D02*
X106531976Y-102084430D01*
X157567690Y-136263002D02*
X157805785Y-136429668D01*
X157567690Y-136548716D02*
X158067690Y-136548716D01*
X158067690Y-136548716D02*
X158067690Y-136358240D01*
X158067690Y-136358240D02*
X158043880Y-136310621D01*
X158043880Y-136310621D02*
X158020071Y-136286811D01*
X158020071Y-136286811D02*
X157972452Y-136263002D01*
X157972452Y-136263002D02*
X157901023Y-136263002D01*
X157901023Y-136263002D02*
X157853404Y-136286811D01*
X157853404Y-136286811D02*
X157829595Y-136310621D01*
X157829595Y-136310621D02*
X157805785Y-136358240D01*
X157805785Y-136358240D02*
X157805785Y-136548716D01*
X152017690Y-123098716D02*
X152517690Y-123098716D01*
X152517690Y-123098716D02*
X152017690Y-122813002D01*
X152017690Y-122813002D02*
X152517690Y-122813002D01*
X152017690Y-122574906D02*
X152517690Y-122574906D01*
X152517690Y-122574906D02*
X152160547Y-122408239D01*
X152160547Y-122408239D02*
X152517690Y-122241573D01*
X152517690Y-122241573D02*
X152017690Y-122241573D01*
X152517690Y-121908239D02*
X152517690Y-121813001D01*
X152517690Y-121813001D02*
X152493880Y-121765382D01*
X152493880Y-121765382D02*
X152446261Y-121717763D01*
X152446261Y-121717763D02*
X152351023Y-121693953D01*
X152351023Y-121693953D02*
X152184357Y-121693953D01*
X152184357Y-121693953D02*
X152089119Y-121717763D01*
X152089119Y-121717763D02*
X152041500Y-121765382D01*
X152041500Y-121765382D02*
X152017690Y-121813001D01*
X152017690Y-121813001D02*
X152017690Y-121908239D01*
X152017690Y-121908239D02*
X152041500Y-121955858D01*
X152041500Y-121955858D02*
X152089119Y-122003477D01*
X152089119Y-122003477D02*
X152184357Y-122027286D01*
X152184357Y-122027286D02*
X152351023Y-122027286D01*
X152351023Y-122027286D02*
X152446261Y-122003477D01*
X152446261Y-122003477D02*
X152493880Y-121955858D01*
X152493880Y-121955858D02*
X152517690Y-121908239D01*
X152041500Y-121503476D02*
X152017690Y-121432048D01*
X152017690Y-121432048D02*
X152017690Y-121313000D01*
X152017690Y-121313000D02*
X152041500Y-121265381D01*
X152041500Y-121265381D02*
X152065309Y-121241572D01*
X152065309Y-121241572D02*
X152112928Y-121217762D01*
X152112928Y-121217762D02*
X152160547Y-121217762D01*
X152160547Y-121217762D02*
X152208166Y-121241572D01*
X152208166Y-121241572D02*
X152231976Y-121265381D01*
X152231976Y-121265381D02*
X152255785Y-121313000D01*
X152255785Y-121313000D02*
X152279595Y-121408238D01*
X152279595Y-121408238D02*
X152303404Y-121455857D01*
X152303404Y-121455857D02*
X152327214Y-121479667D01*
X152327214Y-121479667D02*
X152374833Y-121503476D01*
X152374833Y-121503476D02*
X152422452Y-121503476D01*
X152422452Y-121503476D02*
X152470071Y-121479667D01*
X152470071Y-121479667D02*
X152493880Y-121455857D01*
X152493880Y-121455857D02*
X152517690Y-121408238D01*
X152517690Y-121408238D02*
X152517690Y-121289191D01*
X152517690Y-121289191D02*
X152493880Y-121217762D01*
X157940193Y-130655535D02*
X158293746Y-131009088D01*
X158411597Y-130823894D02*
X158445269Y-130823894D01*
X158445269Y-130823894D02*
X158495777Y-130807058D01*
X158495777Y-130807058D02*
X158579956Y-130722879D01*
X158579956Y-130722879D02*
X158596792Y-130672371D01*
X158596792Y-130672371D02*
X158596792Y-130638699D01*
X158596792Y-130638699D02*
X158579956Y-130588192D01*
X158579956Y-130588192D02*
X158546284Y-130554520D01*
X158546284Y-130554520D02*
X158478941Y-130520848D01*
X158478941Y-130520848D02*
X158074880Y-130520848D01*
X158074880Y-130520848D02*
X158293746Y-130301982D01*
X158680971Y-129982100D02*
X158647299Y-129982100D01*
X158647299Y-129982100D02*
X158579956Y-130015772D01*
X158579956Y-130015772D02*
X158546284Y-130049444D01*
X158546284Y-130049444D02*
X158512612Y-130116787D01*
X158512612Y-130116787D02*
X158512612Y-130184131D01*
X158512612Y-130184131D02*
X158529448Y-130234638D01*
X158529448Y-130234638D02*
X158579956Y-130318818D01*
X158579956Y-130318818D02*
X158630463Y-130369326D01*
X158630463Y-130369326D02*
X158714643Y-130419833D01*
X158714643Y-130419833D02*
X158765150Y-130436669D01*
X158765150Y-130436669D02*
X158832494Y-130436669D01*
X158832494Y-130436669D02*
X158899837Y-130402997D01*
X158899837Y-130402997D02*
X158933509Y-130369326D01*
X158933509Y-130369326D02*
X158967181Y-130301982D01*
X158967181Y-130301982D02*
X158967181Y-130268310D01*
X159219719Y-130083116D02*
X159253391Y-130049444D01*
X159253391Y-130049444D02*
X159270227Y-129998936D01*
X159270227Y-129998936D02*
X159270227Y-129965264D01*
X159270227Y-129965264D02*
X159253391Y-129914757D01*
X159253391Y-129914757D02*
X159202883Y-129830577D01*
X159202883Y-129830577D02*
X159118704Y-129746398D01*
X159118704Y-129746398D02*
X159034524Y-129695890D01*
X159034524Y-129695890D02*
X158984017Y-129679055D01*
X158984017Y-129679055D02*
X158950345Y-129679055D01*
X158950345Y-129679055D02*
X158899837Y-129695890D01*
X158899837Y-129695890D02*
X158866166Y-129729562D01*
X158866166Y-129729562D02*
X158849330Y-129780070D01*
X158849330Y-129780070D02*
X158849330Y-129813742D01*
X158849330Y-129813742D02*
X158866166Y-129864249D01*
X158866166Y-129864249D02*
X158916673Y-129948429D01*
X158916673Y-129948429D02*
X159000853Y-130032608D01*
X159000853Y-130032608D02*
X159085032Y-130083116D01*
X159085032Y-130083116D02*
X159135540Y-130099951D01*
X159135540Y-130099951D02*
X159169211Y-130099951D01*
X159169211Y-130099951D02*
X159219719Y-130083116D01*
X112236997Y-120115309D02*
X112213188Y-120091500D01*
X112213188Y-120091500D02*
X112141759Y-120067690D01*
X112141759Y-120067690D02*
X112094140Y-120067690D01*
X112094140Y-120067690D02*
X112022712Y-120091500D01*
X112022712Y-120091500D02*
X111975093Y-120139119D01*
X111975093Y-120139119D02*
X111951283Y-120186738D01*
X111951283Y-120186738D02*
X111927474Y-120281976D01*
X111927474Y-120281976D02*
X111927474Y-120353404D01*
X111927474Y-120353404D02*
X111951283Y-120448642D01*
X111951283Y-120448642D02*
X111975093Y-120496261D01*
X111975093Y-120496261D02*
X112022712Y-120543880D01*
X112022712Y-120543880D02*
X112094140Y-120567690D01*
X112094140Y-120567690D02*
X112141759Y-120567690D01*
X112141759Y-120567690D02*
X112213188Y-120543880D01*
X112213188Y-120543880D02*
X112236997Y-120520071D01*
X112451283Y-120067690D02*
X112451283Y-120567690D01*
X112451283Y-120329595D02*
X112736997Y-120329595D01*
X112736997Y-120067690D02*
X112736997Y-120567690D01*
X112951284Y-120210547D02*
X113189379Y-120210547D01*
X112903665Y-120067690D02*
X113070331Y-120567690D01*
X113070331Y-120567690D02*
X113236998Y-120067690D01*
X113689378Y-120067690D02*
X113522712Y-120305785D01*
X113403664Y-120067690D02*
X113403664Y-120567690D01*
X113403664Y-120567690D02*
X113594140Y-120567690D01*
X113594140Y-120567690D02*
X113641759Y-120543880D01*
X113641759Y-120543880D02*
X113665569Y-120520071D01*
X113665569Y-120520071D02*
X113689378Y-120472452D01*
X113689378Y-120472452D02*
X113689378Y-120401023D01*
X113689378Y-120401023D02*
X113665569Y-120353404D01*
X113665569Y-120353404D02*
X113641759Y-120329595D01*
X113641759Y-120329595D02*
X113594140Y-120305785D01*
X113594140Y-120305785D02*
X113403664Y-120305785D01*
X114165569Y-120543880D02*
X114117950Y-120567690D01*
X114117950Y-120567690D02*
X114046521Y-120567690D01*
X114046521Y-120567690D02*
X113975093Y-120543880D01*
X113975093Y-120543880D02*
X113927474Y-120496261D01*
X113927474Y-120496261D02*
X113903664Y-120448642D01*
X113903664Y-120448642D02*
X113879855Y-120353404D01*
X113879855Y-120353404D02*
X113879855Y-120281976D01*
X113879855Y-120281976D02*
X113903664Y-120186738D01*
X113903664Y-120186738D02*
X113927474Y-120139119D01*
X113927474Y-120139119D02*
X113975093Y-120091500D01*
X113975093Y-120091500D02*
X114046521Y-120067690D01*
X114046521Y-120067690D02*
X114094140Y-120067690D01*
X114094140Y-120067690D02*
X114165569Y-120091500D01*
X114165569Y-120091500D02*
X114189378Y-120115309D01*
X114189378Y-120115309D02*
X114189378Y-120281976D01*
X114189378Y-120281976D02*
X114094140Y-120281976D01*
X114403664Y-120329595D02*
X114570331Y-120329595D01*
X114641759Y-120067690D02*
X114403664Y-120067690D01*
X114403664Y-120067690D02*
X114403664Y-120567690D01*
X114403664Y-120567690D02*
X114641759Y-120567690D01*
X105317690Y-120548716D02*
X104912928Y-120548716D01*
X104912928Y-120548716D02*
X104865309Y-120524906D01*
X104865309Y-120524906D02*
X104841500Y-120501097D01*
X104841500Y-120501097D02*
X104817690Y-120453478D01*
X104817690Y-120453478D02*
X104817690Y-120358240D01*
X104817690Y-120358240D02*
X104841500Y-120310621D01*
X104841500Y-120310621D02*
X104865309Y-120286811D01*
X104865309Y-120286811D02*
X104912928Y-120263002D01*
X104912928Y-120263002D02*
X105317690Y-120263002D01*
X104841500Y-120048715D02*
X104817690Y-119977287D01*
X104817690Y-119977287D02*
X104817690Y-119858239D01*
X104817690Y-119858239D02*
X104841500Y-119810620D01*
X104841500Y-119810620D02*
X104865309Y-119786811D01*
X104865309Y-119786811D02*
X104912928Y-119763001D01*
X104912928Y-119763001D02*
X104960547Y-119763001D01*
X104960547Y-119763001D02*
X105008166Y-119786811D01*
X105008166Y-119786811D02*
X105031976Y-119810620D01*
X105031976Y-119810620D02*
X105055785Y-119858239D01*
X105055785Y-119858239D02*
X105079595Y-119953477D01*
X105079595Y-119953477D02*
X105103404Y-120001096D01*
X105103404Y-120001096D02*
X105127214Y-120024906D01*
X105127214Y-120024906D02*
X105174833Y-120048715D01*
X105174833Y-120048715D02*
X105222452Y-120048715D01*
X105222452Y-120048715D02*
X105270071Y-120024906D01*
X105270071Y-120024906D02*
X105293880Y-120001096D01*
X105293880Y-120001096D02*
X105317690Y-119953477D01*
X105317690Y-119953477D02*
X105317690Y-119834430D01*
X105317690Y-119834430D02*
X105293880Y-119763001D01*
X105079595Y-119382049D02*
X105055785Y-119310621D01*
X105055785Y-119310621D02*
X105031976Y-119286811D01*
X105031976Y-119286811D02*
X104984357Y-119263002D01*
X104984357Y-119263002D02*
X104912928Y-119263002D01*
X104912928Y-119263002D02*
X104865309Y-119286811D01*
X104865309Y-119286811D02*
X104841500Y-119310621D01*
X104841500Y-119310621D02*
X104817690Y-119358240D01*
X104817690Y-119358240D02*
X104817690Y-119548716D01*
X104817690Y-119548716D02*
X105317690Y-119548716D01*
X105317690Y-119548716D02*
X105317690Y-119382049D01*
X105317690Y-119382049D02*
X105293880Y-119334430D01*
X105293880Y-119334430D02*
X105270071Y-119310621D01*
X105270071Y-119310621D02*
X105222452Y-119286811D01*
X105222452Y-119286811D02*
X105174833Y-119286811D01*
X105174833Y-119286811D02*
X105127214Y-119310621D01*
X105127214Y-119310621D02*
X105103404Y-119334430D01*
X105103404Y-119334430D02*
X105079595Y-119382049D01*
X105079595Y-119382049D02*
X105079595Y-119548716D01*
X106567690Y-108013002D02*
X106805785Y-108179668D01*
X106567690Y-108298716D02*
X107067690Y-108298716D01*
X107067690Y-108298716D02*
X107067690Y-108108240D01*
X107067690Y-108108240D02*
X107043880Y-108060621D01*
X107043880Y-108060621D02*
X107020071Y-108036811D01*
X107020071Y-108036811D02*
X106972452Y-108013002D01*
X106972452Y-108013002D02*
X106901023Y-108013002D01*
X106901023Y-108013002D02*
X106853404Y-108036811D01*
X106853404Y-108036811D02*
X106829595Y-108060621D01*
X106829595Y-108060621D02*
X106805785Y-108108240D01*
X106805785Y-108108240D02*
X106805785Y-108298716D01*
X106591500Y-107822525D02*
X106567690Y-107751097D01*
X106567690Y-107751097D02*
X106567690Y-107632049D01*
X106567690Y-107632049D02*
X106591500Y-107584430D01*
X106591500Y-107584430D02*
X106615309Y-107560621D01*
X106615309Y-107560621D02*
X106662928Y-107536811D01*
X106662928Y-107536811D02*
X106710547Y-107536811D01*
X106710547Y-107536811D02*
X106758166Y-107560621D01*
X106758166Y-107560621D02*
X106781976Y-107584430D01*
X106781976Y-107584430D02*
X106805785Y-107632049D01*
X106805785Y-107632049D02*
X106829595Y-107727287D01*
X106829595Y-107727287D02*
X106853404Y-107774906D01*
X106853404Y-107774906D02*
X106877214Y-107798716D01*
X106877214Y-107798716D02*
X106924833Y-107822525D01*
X106924833Y-107822525D02*
X106972452Y-107822525D01*
X106972452Y-107822525D02*
X107020071Y-107798716D01*
X107020071Y-107798716D02*
X107043880Y-107774906D01*
X107043880Y-107774906D02*
X107067690Y-107727287D01*
X107067690Y-107727287D02*
X107067690Y-107608240D01*
X107067690Y-107608240D02*
X107043880Y-107536811D01*
X107067690Y-107393954D02*
X107067690Y-107108240D01*
X106567690Y-107251097D02*
X107067690Y-107251097D01*
X114903664Y-116542690D02*
X115213188Y-116542690D01*
X115213188Y-116542690D02*
X115046521Y-116352214D01*
X115046521Y-116352214D02*
X115117950Y-116352214D01*
X115117950Y-116352214D02*
X115165569Y-116328404D01*
X115165569Y-116328404D02*
X115189378Y-116304595D01*
X115189378Y-116304595D02*
X115213188Y-116256976D01*
X115213188Y-116256976D02*
X115213188Y-116137928D01*
X115213188Y-116137928D02*
X115189378Y-116090309D01*
X115189378Y-116090309D02*
X115165569Y-116066500D01*
X115165569Y-116066500D02*
X115117950Y-116042690D01*
X115117950Y-116042690D02*
X114975093Y-116042690D01*
X114975093Y-116042690D02*
X114927474Y-116066500D01*
X114927474Y-116066500D02*
X114903664Y-116090309D01*
X115356045Y-116542690D02*
X115522711Y-116042690D01*
X115522711Y-116042690D02*
X115689378Y-116542690D01*
X115808425Y-116542690D02*
X116117949Y-116542690D01*
X116117949Y-116542690D02*
X115951282Y-116352214D01*
X115951282Y-116352214D02*
X116022711Y-116352214D01*
X116022711Y-116352214D02*
X116070330Y-116328404D01*
X116070330Y-116328404D02*
X116094139Y-116304595D01*
X116094139Y-116304595D02*
X116117949Y-116256976D01*
X116117949Y-116256976D02*
X116117949Y-116137928D01*
X116117949Y-116137928D02*
X116094139Y-116090309D01*
X116094139Y-116090309D02*
X116070330Y-116066500D01*
X116070330Y-116066500D02*
X116022711Y-116042690D01*
X116022711Y-116042690D02*
X115879854Y-116042690D01*
X115879854Y-116042690D02*
X115832235Y-116066500D01*
X115832235Y-116066500D02*
X115808425Y-116090309D01*
X140567690Y-136798716D02*
X141067690Y-136798716D01*
X141067690Y-136798716D02*
X140710547Y-136632049D01*
X140710547Y-136632049D02*
X141067690Y-136465383D01*
X141067690Y-136465383D02*
X140567690Y-136465383D01*
X140567690Y-135965382D02*
X140567690Y-136251096D01*
X140567690Y-136108239D02*
X141067690Y-136108239D01*
X141067690Y-136108239D02*
X140996261Y-136155858D01*
X140996261Y-136155858D02*
X140948642Y-136203477D01*
X140948642Y-136203477D02*
X140924833Y-136251096D01*
X143192690Y-120846335D02*
X143192690Y-120536811D01*
X143192690Y-120536811D02*
X143002214Y-120703478D01*
X143002214Y-120703478D02*
X143002214Y-120632049D01*
X143002214Y-120632049D02*
X142978404Y-120584430D01*
X142978404Y-120584430D02*
X142954595Y-120560621D01*
X142954595Y-120560621D02*
X142906976Y-120536811D01*
X142906976Y-120536811D02*
X142787928Y-120536811D01*
X142787928Y-120536811D02*
X142740309Y-120560621D01*
X142740309Y-120560621D02*
X142716500Y-120584430D01*
X142716500Y-120584430D02*
X142692690Y-120632049D01*
X142692690Y-120632049D02*
X142692690Y-120774906D01*
X142692690Y-120774906D02*
X142716500Y-120822525D01*
X142716500Y-120822525D02*
X142740309Y-120846335D01*
X143192690Y-120084431D02*
X143192690Y-120322526D01*
X143192690Y-120322526D02*
X142954595Y-120346335D01*
X142954595Y-120346335D02*
X142978404Y-120322526D01*
X142978404Y-120322526D02*
X143002214Y-120274907D01*
X143002214Y-120274907D02*
X143002214Y-120155859D01*
X143002214Y-120155859D02*
X142978404Y-120108240D01*
X142978404Y-120108240D02*
X142954595Y-120084431D01*
X142954595Y-120084431D02*
X142906976Y-120060621D01*
X142906976Y-120060621D02*
X142787928Y-120060621D01*
X142787928Y-120060621D02*
X142740309Y-120084431D01*
X142740309Y-120084431D02*
X142716500Y-120108240D01*
X142716500Y-120108240D02*
X142692690Y-120155859D01*
X142692690Y-120155859D02*
X142692690Y-120274907D01*
X142692690Y-120274907D02*
X142716500Y-120322526D01*
X142716500Y-120322526D02*
X142740309Y-120346335D01*
X142740309Y-119846336D02*
X142716500Y-119822526D01*
X142716500Y-119822526D02*
X142692690Y-119846336D01*
X142692690Y-119846336D02*
X142716500Y-119870145D01*
X142716500Y-119870145D02*
X142740309Y-119846336D01*
X142740309Y-119846336D02*
X142692690Y-119846336D01*
X143192690Y-119370146D02*
X143192690Y-119608241D01*
X143192690Y-119608241D02*
X142954595Y-119632050D01*
X142954595Y-119632050D02*
X142978404Y-119608241D01*
X142978404Y-119608241D02*
X143002214Y-119560622D01*
X143002214Y-119560622D02*
X143002214Y-119441574D01*
X143002214Y-119441574D02*
X142978404Y-119393955D01*
X142978404Y-119393955D02*
X142954595Y-119370146D01*
X142954595Y-119370146D02*
X142906976Y-119346336D01*
X142906976Y-119346336D02*
X142787928Y-119346336D01*
X142787928Y-119346336D02*
X142740309Y-119370146D01*
X142740309Y-119370146D02*
X142716500Y-119393955D01*
X142716500Y-119393955D02*
X142692690Y-119441574D01*
X142692690Y-119441574D02*
X142692690Y-119560622D01*
X142692690Y-119560622D02*
X142716500Y-119608241D01*
X142716500Y-119608241D02*
X142740309Y-119632050D01*
X157579595Y-123132049D02*
X157579595Y-123298716D01*
X157317690Y-123298716D02*
X157817690Y-123298716D01*
X157817690Y-123298716D02*
X157817690Y-123060621D01*
X157460547Y-122893954D02*
X157460547Y-122655859D01*
X157317690Y-122941573D02*
X157817690Y-122774907D01*
X157817690Y-122774907D02*
X157317690Y-122608240D01*
X157317690Y-122441574D02*
X157817690Y-122441574D01*
X157817690Y-122441574D02*
X157317690Y-122155860D01*
X157317690Y-122155860D02*
X157817690Y-122155860D01*
X140567690Y-103798716D02*
X141067690Y-103798716D01*
X141067690Y-103798716D02*
X140710547Y-103632049D01*
X140710547Y-103632049D02*
X141067690Y-103465383D01*
X141067690Y-103465383D02*
X140567690Y-103465383D01*
X141067690Y-103274906D02*
X141067690Y-102965382D01*
X141067690Y-102965382D02*
X140877214Y-103132049D01*
X140877214Y-103132049D02*
X140877214Y-103060620D01*
X140877214Y-103060620D02*
X140853404Y-103013001D01*
X140853404Y-103013001D02*
X140829595Y-102989192D01*
X140829595Y-102989192D02*
X140781976Y-102965382D01*
X140781976Y-102965382D02*
X140662928Y-102965382D01*
X140662928Y-102965382D02*
X140615309Y-102989192D01*
X140615309Y-102989192D02*
X140591500Y-103013001D01*
X140591500Y-103013001D02*
X140567690Y-103060620D01*
X140567690Y-103060620D02*
X140567690Y-103203477D01*
X140567690Y-103203477D02*
X140591500Y-103251096D01*
X140591500Y-103251096D02*
X140615309Y-103274906D01*
X134346335Y-132557309D02*
X134036811Y-132557309D01*
X134036811Y-132557309D02*
X134203478Y-132747785D01*
X134203478Y-132747785D02*
X134132049Y-132747785D01*
X134132049Y-132747785D02*
X134084430Y-132771595D01*
X134084430Y-132771595D02*
X134060621Y-132795404D01*
X134060621Y-132795404D02*
X134036811Y-132843023D01*
X134036811Y-132843023D02*
X134036811Y-132962071D01*
X134036811Y-132962071D02*
X134060621Y-133009690D01*
X134060621Y-133009690D02*
X134084430Y-133033500D01*
X134084430Y-133033500D02*
X134132049Y-133057309D01*
X134132049Y-133057309D02*
X134274906Y-133057309D01*
X134274906Y-133057309D02*
X134322525Y-133033500D01*
X134322525Y-133033500D02*
X134346335Y-133009690D01*
X133846335Y-132604928D02*
X133822526Y-132581119D01*
X133822526Y-132581119D02*
X133774907Y-132557309D01*
X133774907Y-132557309D02*
X133655859Y-132557309D01*
X133655859Y-132557309D02*
X133608240Y-132581119D01*
X133608240Y-132581119D02*
X133584431Y-132604928D01*
X133584431Y-132604928D02*
X133560621Y-132652547D01*
X133560621Y-132652547D02*
X133560621Y-132700166D01*
X133560621Y-132700166D02*
X133584431Y-132771595D01*
X133584431Y-132771595D02*
X133870145Y-133057309D01*
X133870145Y-133057309D02*
X133560621Y-133057309D01*
X133346336Y-133009690D02*
X133322526Y-133033500D01*
X133322526Y-133033500D02*
X133346336Y-133057309D01*
X133346336Y-133057309D02*
X133370145Y-133033500D01*
X133370145Y-133033500D02*
X133346336Y-133009690D01*
X133346336Y-133009690D02*
X133346336Y-133057309D01*
X132870146Y-132557309D02*
X133108241Y-132557309D01*
X133108241Y-132557309D02*
X133132050Y-132795404D01*
X133132050Y-132795404D02*
X133108241Y-132771595D01*
X133108241Y-132771595D02*
X133060622Y-132747785D01*
X133060622Y-132747785D02*
X132941574Y-132747785D01*
X132941574Y-132747785D02*
X132893955Y-132771595D01*
X132893955Y-132771595D02*
X132870146Y-132795404D01*
X132870146Y-132795404D02*
X132846336Y-132843023D01*
X132846336Y-132843023D02*
X132846336Y-132962071D01*
X132846336Y-132962071D02*
X132870146Y-133009690D01*
X132870146Y-133009690D02*
X132893955Y-133033500D01*
X132893955Y-133033500D02*
X132941574Y-133057309D01*
X132941574Y-133057309D02*
X133060622Y-133057309D01*
X133060622Y-133057309D02*
X133108241Y-133033500D01*
X133108241Y-133033500D02*
X133132050Y-133009690D01*
X133317690Y-105798716D02*
X133817690Y-105798716D01*
X133817690Y-105798716D02*
X133460547Y-105632049D01*
X133460547Y-105632049D02*
X133817690Y-105465383D01*
X133817690Y-105465383D02*
X133317690Y-105465383D01*
X133317690Y-105227287D02*
X133817690Y-105227287D01*
X133817690Y-105227287D02*
X133817690Y-105108239D01*
X133817690Y-105108239D02*
X133793880Y-105036811D01*
X133793880Y-105036811D02*
X133746261Y-104989192D01*
X133746261Y-104989192D02*
X133698642Y-104965382D01*
X133698642Y-104965382D02*
X133603404Y-104941573D01*
X133603404Y-104941573D02*
X133531976Y-104941573D01*
X133531976Y-104941573D02*
X133436738Y-104965382D01*
X133436738Y-104965382D02*
X133389119Y-104989192D01*
X133389119Y-104989192D02*
X133341500Y-105036811D01*
X133341500Y-105036811D02*
X133317690Y-105108239D01*
X133317690Y-105108239D02*
X133317690Y-105227287D01*
X133317690Y-104441573D02*
X133555785Y-104608239D01*
X133317690Y-104727287D02*
X133817690Y-104727287D01*
X133817690Y-104727287D02*
X133817690Y-104536811D01*
X133817690Y-104536811D02*
X133793880Y-104489192D01*
X133793880Y-104489192D02*
X133770071Y-104465382D01*
X133770071Y-104465382D02*
X133722452Y-104441573D01*
X133722452Y-104441573D02*
X133651023Y-104441573D01*
X133651023Y-104441573D02*
X133603404Y-104465382D01*
X133603404Y-104465382D02*
X133579595Y-104489192D01*
X133579595Y-104489192D02*
X133555785Y-104536811D01*
X133555785Y-104536811D02*
X133555785Y-104727287D01*
X133817690Y-104298715D02*
X133317690Y-104132049D01*
X133317690Y-104132049D02*
X133817690Y-103965382D01*
X133770071Y-103822525D02*
X133793880Y-103798716D01*
X133793880Y-103798716D02*
X133817690Y-103751097D01*
X133817690Y-103751097D02*
X133817690Y-103632049D01*
X133817690Y-103632049D02*
X133793880Y-103584430D01*
X133793880Y-103584430D02*
X133770071Y-103560621D01*
X133770071Y-103560621D02*
X133722452Y-103536811D01*
X133722452Y-103536811D02*
X133674833Y-103536811D01*
X133674833Y-103536811D02*
X133603404Y-103560621D01*
X133603404Y-103560621D02*
X133317690Y-103846335D01*
X133317690Y-103846335D02*
X133317690Y-103536811D01*
X125817690Y-103798716D02*
X126317690Y-103798716D01*
X126317690Y-103798716D02*
X125960547Y-103632049D01*
X125960547Y-103632049D02*
X126317690Y-103465383D01*
X126317690Y-103465383D02*
X125817690Y-103465383D01*
X126151023Y-103013001D02*
X125817690Y-103013001D01*
X126341500Y-103132049D02*
X125984357Y-103251096D01*
X125984357Y-103251096D02*
X125984357Y-102941573D01*
X157567690Y-103560621D02*
X157567690Y-103798716D01*
X157567690Y-103798716D02*
X158067690Y-103798716D01*
X161341500Y-120822525D02*
X161317690Y-120751097D01*
X161317690Y-120751097D02*
X161317690Y-120632049D01*
X161317690Y-120632049D02*
X161341500Y-120584430D01*
X161341500Y-120584430D02*
X161365309Y-120560621D01*
X161365309Y-120560621D02*
X161412928Y-120536811D01*
X161412928Y-120536811D02*
X161460547Y-120536811D01*
X161460547Y-120536811D02*
X161508166Y-120560621D01*
X161508166Y-120560621D02*
X161531976Y-120584430D01*
X161531976Y-120584430D02*
X161555785Y-120632049D01*
X161555785Y-120632049D02*
X161579595Y-120727287D01*
X161579595Y-120727287D02*
X161603404Y-120774906D01*
X161603404Y-120774906D02*
X161627214Y-120798716D01*
X161627214Y-120798716D02*
X161674833Y-120822525D01*
X161674833Y-120822525D02*
X161722452Y-120822525D01*
X161722452Y-120822525D02*
X161770071Y-120798716D01*
X161770071Y-120798716D02*
X161793880Y-120774906D01*
X161793880Y-120774906D02*
X161817690Y-120727287D01*
X161817690Y-120727287D02*
X161817690Y-120608240D01*
X161817690Y-120608240D02*
X161793880Y-120536811D01*
X161317690Y-120322526D02*
X161817690Y-120322526D01*
X161817690Y-120322526D02*
X161817690Y-120132050D01*
X161817690Y-120132050D02*
X161793880Y-120084431D01*
X161793880Y-120084431D02*
X161770071Y-120060621D01*
X161770071Y-120060621D02*
X161722452Y-120036812D01*
X161722452Y-120036812D02*
X161651023Y-120036812D01*
X161651023Y-120036812D02*
X161603404Y-120060621D01*
X161603404Y-120060621D02*
X161579595Y-120084431D01*
X161579595Y-120084431D02*
X161555785Y-120132050D01*
X161555785Y-120132050D02*
X161555785Y-120322526D01*
X161317690Y-119822526D02*
X161817690Y-119822526D01*
X161817690Y-119489193D02*
X161817690Y-119441574D01*
X161817690Y-119441574D02*
X161793880Y-119393955D01*
X161793880Y-119393955D02*
X161770071Y-119370145D01*
X161770071Y-119370145D02*
X161722452Y-119346336D01*
X161722452Y-119346336D02*
X161627214Y-119322526D01*
X161627214Y-119322526D02*
X161508166Y-119322526D01*
X161508166Y-119322526D02*
X161412928Y-119346336D01*
X161412928Y-119346336D02*
X161365309Y-119370145D01*
X161365309Y-119370145D02*
X161341500Y-119393955D01*
X161341500Y-119393955D02*
X161317690Y-119441574D01*
X161317690Y-119441574D02*
X161317690Y-119489193D01*
X161317690Y-119489193D02*
X161341500Y-119536812D01*
X161341500Y-119536812D02*
X161365309Y-119560621D01*
X161365309Y-119560621D02*
X161412928Y-119584431D01*
X161412928Y-119584431D02*
X161508166Y-119608240D01*
X161508166Y-119608240D02*
X161627214Y-119608240D01*
X161627214Y-119608240D02*
X161722452Y-119584431D01*
X161722452Y-119584431D02*
X161770071Y-119560621D01*
X161770071Y-119560621D02*
X161793880Y-119536812D01*
X161793880Y-119536812D02*
X161817690Y-119489193D01*
X125817690Y-136798716D02*
X126317690Y-136798716D01*
X126317690Y-136798716D02*
X125960547Y-136632049D01*
X125960547Y-136632049D02*
X126317690Y-136465383D01*
X126317690Y-136465383D02*
X125817690Y-136465383D01*
X126270071Y-136251096D02*
X126293880Y-136227287D01*
X126293880Y-136227287D02*
X126317690Y-136179668D01*
X126317690Y-136179668D02*
X126317690Y-136060620D01*
X126317690Y-136060620D02*
X126293880Y-136013001D01*
X126293880Y-136013001D02*
X126270071Y-135989192D01*
X126270071Y-135989192D02*
X126222452Y-135965382D01*
X126222452Y-135965382D02*
X126174833Y-135965382D01*
X126174833Y-135965382D02*
X126103404Y-135989192D01*
X126103404Y-135989192D02*
X125817690Y-136274906D01*
X125817690Y-136274906D02*
X125817690Y-135965382D01*
X106740309Y-134013002D02*
X106716500Y-134036811D01*
X106716500Y-134036811D02*
X106692690Y-134108240D01*
X106692690Y-134108240D02*
X106692690Y-134155859D01*
X106692690Y-134155859D02*
X106716500Y-134227287D01*
X106716500Y-134227287D02*
X106764119Y-134274906D01*
X106764119Y-134274906D02*
X106811738Y-134298716D01*
X106811738Y-134298716D02*
X106906976Y-134322525D01*
X106906976Y-134322525D02*
X106978404Y-134322525D01*
X106978404Y-134322525D02*
X107073642Y-134298716D01*
X107073642Y-134298716D02*
X107121261Y-134274906D01*
X107121261Y-134274906D02*
X107168880Y-134227287D01*
X107168880Y-134227287D02*
X107192690Y-134155859D01*
X107192690Y-134155859D02*
X107192690Y-134108240D01*
X107192690Y-134108240D02*
X107168880Y-134036811D01*
X107168880Y-134036811D02*
X107145071Y-134013002D01*
X106692690Y-133798716D02*
X107192690Y-133798716D01*
X107192690Y-133798716D02*
X107192690Y-133608240D01*
X107192690Y-133608240D02*
X107168880Y-133560621D01*
X107168880Y-133560621D02*
X107145071Y-133536811D01*
X107145071Y-133536811D02*
X107097452Y-133513002D01*
X107097452Y-133513002D02*
X107026023Y-133513002D01*
X107026023Y-133513002D02*
X106978404Y-133536811D01*
X106978404Y-133536811D02*
X106954595Y-133560621D01*
X106954595Y-133560621D02*
X106930785Y-133608240D01*
X106930785Y-133608240D02*
X106930785Y-133798716D01*
X107192690Y-133298716D02*
X106787928Y-133298716D01*
X106787928Y-133298716D02*
X106740309Y-133274906D01*
X106740309Y-133274906D02*
X106716500Y-133251097D01*
X106716500Y-133251097D02*
X106692690Y-133203478D01*
X106692690Y-133203478D02*
X106692690Y-133108240D01*
X106692690Y-133108240D02*
X106716500Y-133060621D01*
X106716500Y-133060621D02*
X106740309Y-133036811D01*
X106740309Y-133036811D02*
X106787928Y-133013002D01*
X106787928Y-133013002D02*
X107192690Y-133013002D01*
X120567690Y-120548716D02*
X121067690Y-120548716D01*
X120567690Y-120310621D02*
X121067690Y-120310621D01*
X121067690Y-120310621D02*
X120710547Y-120143954D01*
X120710547Y-120143954D02*
X121067690Y-119977288D01*
X121067690Y-119977288D02*
X120567690Y-119977288D01*
X121067690Y-119739192D02*
X120662928Y-119739192D01*
X120662928Y-119739192D02*
X120615309Y-119715382D01*
X120615309Y-119715382D02*
X120591500Y-119691573D01*
X120591500Y-119691573D02*
X120567690Y-119643954D01*
X120567690Y-119643954D02*
X120567690Y-119548716D01*
X120567690Y-119548716D02*
X120591500Y-119501097D01*
X120591500Y-119501097D02*
X120615309Y-119477287D01*
X120615309Y-119477287D02*
X120662928Y-119453478D01*
X120662928Y-119453478D02*
X121067690Y-119453478D01*
X159155535Y-110559806D02*
X159509088Y-110206253D01*
X159323894Y-110088402D02*
X159323894Y-110054730D01*
X159323894Y-110054730D02*
X159307058Y-110004222D01*
X159307058Y-110004222D02*
X159222879Y-109920043D01*
X159222879Y-109920043D02*
X159172371Y-109903207D01*
X159172371Y-109903207D02*
X159138699Y-109903207D01*
X159138699Y-109903207D02*
X159088192Y-109920043D01*
X159088192Y-109920043D02*
X159054520Y-109953715D01*
X159054520Y-109953715D02*
X159020848Y-110021058D01*
X159020848Y-110021058D02*
X159020848Y-110425119D01*
X159020848Y-110425119D02*
X158801982Y-110206253D01*
X158482100Y-109819028D02*
X158482100Y-109852700D01*
X158482100Y-109852700D02*
X158515772Y-109920043D01*
X158515772Y-109920043D02*
X158549444Y-109953715D01*
X158549444Y-109953715D02*
X158616787Y-109987387D01*
X158616787Y-109987387D02*
X158684131Y-109987387D01*
X158684131Y-109987387D02*
X158734638Y-109970551D01*
X158734638Y-109970551D02*
X158818818Y-109920043D01*
X158818818Y-109920043D02*
X158869326Y-109869536D01*
X158869326Y-109869536D02*
X158919833Y-109785356D01*
X158919833Y-109785356D02*
X158936669Y-109734849D01*
X158936669Y-109734849D02*
X158936669Y-109667505D01*
X158936669Y-109667505D02*
X158902997Y-109600162D01*
X158902997Y-109600162D02*
X158869326Y-109566490D01*
X158869326Y-109566490D02*
X158801982Y-109532818D01*
X158801982Y-109532818D02*
X158768310Y-109532818D01*
X158111711Y-109515982D02*
X158313742Y-109718013D01*
X158212726Y-109616998D02*
X158566280Y-109263444D01*
X158566280Y-109263444D02*
X158549444Y-109347624D01*
X158549444Y-109347624D02*
X158549444Y-109414967D01*
X158549444Y-109414967D02*
X158566280Y-109465475D01*
X133317690Y-136798716D02*
X133817690Y-136798716D01*
X133817690Y-136798716D02*
X133460547Y-136632049D01*
X133460547Y-136632049D02*
X133817690Y-136465383D01*
X133817690Y-136465383D02*
X133317690Y-136465383D01*
X133317690Y-136227287D02*
X133817690Y-136227287D01*
X133817690Y-136227287D02*
X133817690Y-136108239D01*
X133817690Y-136108239D02*
X133793880Y-136036811D01*
X133793880Y-136036811D02*
X133746261Y-135989192D01*
X133746261Y-135989192D02*
X133698642Y-135965382D01*
X133698642Y-135965382D02*
X133603404Y-135941573D01*
X133603404Y-135941573D02*
X133531976Y-135941573D01*
X133531976Y-135941573D02*
X133436738Y-135965382D01*
X133436738Y-135965382D02*
X133389119Y-135989192D01*
X133389119Y-135989192D02*
X133341500Y-136036811D01*
X133341500Y-136036811D02*
X133317690Y-136108239D01*
X133317690Y-136108239D02*
X133317690Y-136227287D01*
X133317690Y-135441573D02*
X133555785Y-135608239D01*
X133317690Y-135727287D02*
X133817690Y-135727287D01*
X133817690Y-135727287D02*
X133817690Y-135536811D01*
X133817690Y-135536811D02*
X133793880Y-135489192D01*
X133793880Y-135489192D02*
X133770071Y-135465382D01*
X133770071Y-135465382D02*
X133722452Y-135441573D01*
X133722452Y-135441573D02*
X133651023Y-135441573D01*
X133651023Y-135441573D02*
X133603404Y-135465382D01*
X133603404Y-135465382D02*
X133579595Y-135489192D01*
X133579595Y-135489192D02*
X133555785Y-135536811D01*
X133555785Y-135536811D02*
X133555785Y-135727287D01*
X133817690Y-135298715D02*
X133317690Y-135132049D01*
X133317690Y-135132049D02*
X133817690Y-134965382D01*
X133317690Y-134536811D02*
X133317690Y-134822525D01*
X133317690Y-134679668D02*
X133817690Y-134679668D01*
X133817690Y-134679668D02*
X133746261Y-134727287D01*
X133746261Y-134727287D02*
X133698642Y-134774906D01*
X133698642Y-134774906D02*
X133674833Y-134822525D01*
X156829595Y-117132049D02*
X156805785Y-117060621D01*
X156805785Y-117060621D02*
X156781976Y-117036811D01*
X156781976Y-117036811D02*
X156734357Y-117013002D01*
X156734357Y-117013002D02*
X156662928Y-117013002D01*
X156662928Y-117013002D02*
X156615309Y-117036811D01*
X156615309Y-117036811D02*
X156591500Y-117060621D01*
X156591500Y-117060621D02*
X156567690Y-117108240D01*
X156567690Y-117108240D02*
X156567690Y-117298716D01*
X156567690Y-117298716D02*
X157067690Y-117298716D01*
X157067690Y-117298716D02*
X157067690Y-117132049D01*
X157067690Y-117132049D02*
X157043880Y-117084430D01*
X157043880Y-117084430D02*
X157020071Y-117060621D01*
X157020071Y-117060621D02*
X156972452Y-117036811D01*
X156972452Y-117036811D02*
X156924833Y-117036811D01*
X156924833Y-117036811D02*
X156877214Y-117060621D01*
X156877214Y-117060621D02*
X156853404Y-117084430D01*
X156853404Y-117084430D02*
X156829595Y-117132049D01*
X156829595Y-117132049D02*
X156829595Y-117298716D01*
X156710547Y-116822525D02*
X156710547Y-116584430D01*
X156567690Y-116870144D02*
X157067690Y-116703478D01*
X157067690Y-116703478D02*
X156567690Y-116536811D01*
X157067690Y-116441573D02*
X157067690Y-116155859D01*
X156567690Y-116298716D02*
X157067690Y-116298716D01*
X157067690Y-116060621D02*
X157067690Y-115774907D01*
X156567690Y-115917764D02*
X157067690Y-115917764D01*
X156829595Y-115608241D02*
X156829595Y-115441574D01*
X156567690Y-115370146D02*
X156567690Y-115608241D01*
X156567690Y-115608241D02*
X157067690Y-115608241D01*
X157067690Y-115608241D02*
X157067690Y-115370146D01*
X156567690Y-114870146D02*
X156805785Y-115036812D01*
X156567690Y-115155860D02*
X157067690Y-115155860D01*
X157067690Y-115155860D02*
X157067690Y-114965384D01*
X157067690Y-114965384D02*
X157043880Y-114917765D01*
X157043880Y-114917765D02*
X157020071Y-114893955D01*
X157020071Y-114893955D02*
X156972452Y-114870146D01*
X156972452Y-114870146D02*
X156901023Y-114870146D01*
X156901023Y-114870146D02*
X156853404Y-114893955D01*
X156853404Y-114893955D02*
X156829595Y-114917765D01*
X156829595Y-114917765D02*
X156805785Y-114965384D01*
X156805785Y-114965384D02*
X156805785Y-115155860D01*
X156805785Y-114560622D02*
X156567690Y-114560622D01*
X157067690Y-114727288D02*
X156805785Y-114560622D01*
X156805785Y-114560622D02*
X157067690Y-114393955D01*
X112338188Y-123667690D02*
X112052474Y-123667690D01*
X112195331Y-123667690D02*
X112195331Y-124167690D01*
X112195331Y-124167690D02*
X112147712Y-124096261D01*
X112147712Y-124096261D02*
X112100093Y-124048642D01*
X112100093Y-124048642D02*
X112052474Y-124024833D01*
X112481045Y-124167690D02*
X112647711Y-123667690D01*
X112647711Y-123667690D02*
X112814378Y-124167690D01*
X113052473Y-123953404D02*
X113004854Y-123977214D01*
X113004854Y-123977214D02*
X112981044Y-124001023D01*
X112981044Y-124001023D02*
X112957235Y-124048642D01*
X112957235Y-124048642D02*
X112957235Y-124072452D01*
X112957235Y-124072452D02*
X112981044Y-124120071D01*
X112981044Y-124120071D02*
X113004854Y-124143880D01*
X113004854Y-124143880D02*
X113052473Y-124167690D01*
X113052473Y-124167690D02*
X113147711Y-124167690D01*
X113147711Y-124167690D02*
X113195330Y-124143880D01*
X113195330Y-124143880D02*
X113219139Y-124120071D01*
X113219139Y-124120071D02*
X113242949Y-124072452D01*
X113242949Y-124072452D02*
X113242949Y-124048642D01*
X113242949Y-124048642D02*
X113219139Y-124001023D01*
X113219139Y-124001023D02*
X113195330Y-123977214D01*
X113195330Y-123977214D02*
X113147711Y-123953404D01*
X113147711Y-123953404D02*
X113052473Y-123953404D01*
X113052473Y-123953404D02*
X113004854Y-123929595D01*
X113004854Y-123929595D02*
X112981044Y-123905785D01*
X112981044Y-123905785D02*
X112957235Y-123858166D01*
X112957235Y-123858166D02*
X112957235Y-123762928D01*
X112957235Y-123762928D02*
X112981044Y-123715309D01*
X112981044Y-123715309D02*
X113004854Y-123691500D01*
X113004854Y-123691500D02*
X113052473Y-123667690D01*
X113052473Y-123667690D02*
X113147711Y-123667690D01*
X113147711Y-123667690D02*
X113195330Y-123691500D01*
X113195330Y-123691500D02*
X113219139Y-123715309D01*
X113219139Y-123715309D02*
X113242949Y-123762928D01*
X113242949Y-123762928D02*
X113242949Y-123858166D01*
X113242949Y-123858166D02*
X113219139Y-123905785D01*
X113219139Y-123905785D02*
X113195330Y-123929595D01*
X113195330Y-123929595D02*
X113147711Y-123953404D01*
M02*
