M48
; DRILL file {KiCad 9.0.3} date 2025-07-23T20:32:35-0500
; FORMAT={-:-/ absolute / metric / decimal}
; #@! TF.CreationDate,2025-07-23T20:32:35-05:00
; #@! TF.GenerationSoftware,Kicad,Pcbnew,9.0.3
; #@! TF.FileFunction,Plated,1,6,PTH
FMAT,2
METRIC
; #@! TA.AperFunction,Plated,PTH,ComponentDrill
T1C0.200
; #@! TA.AperFunction,Plated,PTH,ViaDrill
T2C0.300
; #@! TA.AperFunction,Plated,PTH,ComponentDrill
T3C0.500
; #@! TA.AperFunction,Plated,PTH,ComponentDrill
T4C0.600
%
G90
G05
T1
X112.612Y-123.35
X112.612Y-124.45
X115.5Y-115.725
X115.5Y-116.825
T2
X101.0Y-103.5
X101.0Y-106.75
X101.0Y-110.25
X101.0Y-126.25
X101.0Y-129.75
X101.0Y-133.25
X101.0Y-136.75
X101.2Y-114.0
X102.1Y-138.55
X102.104Y-132.337
X102.134Y-128.866
X102.134Y-135.866
X102.295Y-113.205
X102.38Y-102.863
X102.38Y-109.613
X102.384Y-106.116
X102.75Y-100.8
X102.8Y-128.306
X103.375Y-127.75
X103.7Y-137.5
X104.7Y-110.749
X105.25Y-101.5
X105.25Y-104.2
X106.5Y-101.5
X106.5Y-104.2
X106.8Y-106.675
X107.0Y-114.553
X107.75Y-101.5
X107.75Y-104.2
X108.125Y-111.75
X109.595Y-117.5
X109.703Y-114.797
X110.25Y-123.25
X110.3Y-122.45
X111.5Y-110.75
X112.13Y-122.38
X112.3Y-118.5
X113.451Y-120.299
X113.75Y-115.75
X114.5Y-123.5
X115.356Y-124.55
X115.75Y-119.25
X115.75Y-120.25
X118.0Y-122.0
X120.75Y-120.0
X125.0Y-103.5
X125.0Y-136.5
X128.25Y-138.5
X128.75Y-106.0
X130.0Y-138.0
X130.25Y-100.75
X130.25Y-110.0
X130.415Y-105.085
X130.704Y-134.671
X130.818Y-103.65
X130.818Y-136.351
X131.129Y-133.994
X131.25Y-100.75
X131.25Y-138.0
X132.25Y-132.75
X132.44Y-107.191
X133.112Y-132.711
X133.131Y-107.631
X133.5Y-105.0
X133.5Y-135.0
X133.911Y-132.697
X133.929Y-107.683
X134.56Y-107.191
X134.75Y-132.75
X135.75Y-101.75
X135.931Y-136.351
X135.934Y-106.066
X136.04Y-103.79
X136.25Y-139.0
X136.291Y-105.331
X137.0Y-101.75
X137.25Y-139.0
X138.0Y-134.0
X139.75Y-101.0
X142.0Y-103.5
X142.0Y-136.5
X147.4Y-134.5
X147.8Y-105.5
X153.5Y-113.25
X153.5Y-114.25
X153.75Y-118.0
X153.75Y-119.0
X154.5Y-113.25
X154.5Y-114.25
X154.75Y-118.0
X154.75Y-119.0
X155.5Y-113.25
X155.5Y-114.25
X155.75Y-118.0
X155.75Y-119.0
X157.0Y-101.75
X157.0Y-138.25
X159.25Y-102.75
X159.25Y-137.25
T3
X156.25Y-134.0
X156.343Y-106.093
X156.957Y-133.293
X157.05Y-106.8
X157.664Y-132.586
X157.757Y-107.507
X158.371Y-131.879
X158.464Y-108.214
X159.078Y-131.172
X159.172Y-108.922
X159.786Y-130.464
X159.879Y-109.629
X160.493Y-129.757
X160.586Y-110.336
X161.2Y-129.05
X161.293Y-111.043
X161.907Y-128.343
X162.0Y-111.75
X162.5Y-115.0
X162.5Y-116.0
X162.5Y-117.0
X162.5Y-118.0
X162.5Y-119.0
X162.5Y-120.0
X162.5Y-121.0
X162.5Y-122.0
X162.5Y-123.0
X162.5Y-124.0
X162.5Y-125.0
T4
G00X103.75Y-115.68
M15
G01X103.15Y-115.68
M16
G05
G00X103.75Y-124.32
M15
G01X103.15Y-124.32
M16
G05
G00X108.18Y-115.68
M15
G01X107.08Y-115.68
M16
G05
G00X108.18Y-124.32
M15
G01X107.08Y-124.32
M16
G05
M30
