%TF.GenerationSoftware,KiCad,Pcbnew,9.0.3*%
%TF.CreationDate,2025-07-23T20:32:43-05:00*%
%TF.ProjectId,MouseWB5,4d6f7573-6557-4423-952e-6b696361645f,rev?*%
%TF.SameCoordinates,Original*%
%TF.FileFunction,Soldermask,Bot*%
%TF.FilePolarity,Negative*%
%FSLAX46Y46*%
G04 Gerber Fmt 4.6, Leading zero omitted, Abs format (unit mm)*
G04 Created by KiCad (PCBNEW 9.0.3) date 2025-07-23 20:32:43*
%MOMM*%
%LPD*%
G01*
G04 APERTURE LIST*
G04 Aperture macros list*
%AMHorizOval*
0 Thick line with rounded ends*
0 $1 width*
0 $2 $3 position (X,Y) of the first rounded end (center of the circle)*
0 $4 $5 position (X,Y) of the second rounded end (center of the circle)*
0 Add line between two ends*
20,1,$1,$2,$3,$4,$5,0*
0 Add two circle primitives to create the rounded ends*
1,1,$1,$2,$3*
1,1,$1,$4,$5*%
%AMRotRect*
0 Rectangle, with rotation*
0 The origin of the aperture is its center*
0 $1 length*
0 $2 width*
0 $3 Rotation angle, in degrees counterclockwise*
0 Add horizontal line*
21,1,$1,$2,0,0,$3*%
G04 Aperture macros list end*
%ADD10C,2.100000*%
%ADD11R,0.850000X0.850000*%
%ADD12O,0.850000X0.850000*%
%ADD13C,0.650000*%
%ADD14O,2.100000X1.000000*%
%ADD15O,1.600000X1.000000*%
%ADD16C,0.990600*%
%ADD17RotRect,0.850000X0.850000X135.000000*%
%ADD18HorizOval,0.850000X0.000000X0.000000X0.000000X0.000000X0*%
%ADD19RotRect,0.850000X0.850000X225.000000*%
%ADD20HorizOval,0.850000X0.000000X0.000000X0.000000X0.000000X0*%
G04 APERTURE END LIST*
D10*
%TO.C,H3*%
X140000000Y-127250000D03*
%TD*%
D11*
%TO.C,J2*%
X162500000Y-125000000D03*
D12*
X162500000Y-124000000D03*
X162500000Y-123000000D03*
X162500000Y-122000000D03*
X162500000Y-121000000D03*
X162500000Y-120000000D03*
X162500000Y-119000000D03*
X162500000Y-118000000D03*
X162500000Y-117000000D03*
X162500000Y-116000000D03*
X162500000Y-115000000D03*
%TD*%
D13*
%TO.C,J1*%
X107100000Y-117110000D03*
X107100000Y-122890000D03*
D14*
X107630000Y-115680000D03*
D15*
X103450000Y-115680000D03*
D14*
X107630000Y-124320000D03*
D15*
X103450000Y-124320000D03*
%TD*%
D16*
%TO.C,J11*%
X109040000Y-102885000D03*
X103960000Y-103901000D03*
X103960000Y-101869000D03*
%TD*%
D17*
%TO.C,J10*%
X156250000Y-134000000D03*
D18*
X156957107Y-133292893D03*
X157664214Y-132585786D03*
X158371320Y-131878680D03*
X159078427Y-131171573D03*
X159785534Y-130464466D03*
X160492641Y-129757359D03*
X161199747Y-129050253D03*
X161906854Y-128343146D03*
%TD*%
D19*
%TO.C,J3*%
X162000000Y-111750000D03*
D20*
X161292893Y-111042893D03*
X160585786Y-110335786D03*
X159878680Y-109628680D03*
X159171573Y-108921573D03*
X158464466Y-108214466D03*
X157757359Y-107507359D03*
X157050253Y-106800253D03*
X156343146Y-106093146D03*
%TD*%
D10*
%TO.C,H2*%
X125500000Y-112750000D03*
%TD*%
M02*
