%TF.GenerationSoftware,KiCad,Pcbnew,9.0.3*%
%TF.CreationDate,2025-07-23T20:32:43-05:00*%
%TF.ProjectId,MouseWB5,4d6f7573-6557-4423-952e-6b696361645f,rev?*%
%TF.SameCoordinates,Original*%
%TF.FileFunction,Copper,L4,Inr*%
%TF.FilePolarity,Positive*%
%FSLAX46Y46*%
G04 Gerber Fmt 4.6, Leading zero omitted, Abs format (unit mm)*
G04 Created by KiCad (PCBNEW 9.0.3) date 2025-07-23 20:32:43*
%MOMM*%
%LPD*%
G01*
G04 APERTURE LIST*
G04 Aperture macros list*
%AMHorizOval*
0 Thick line with rounded ends*
0 $1 width*
0 $2 $3 position (X,Y) of the first rounded end (center of the circle)*
0 $4 $5 position (X,Y) of the second rounded end (center of the circle)*
0 Add line between two ends*
20,1,$1,$2,$3,$4,$5,0*
0 Add two circle primitives to create the rounded ends*
1,1,$1,$2,$3*
1,1,$1,$4,$5*%
%AMRotRect*
0 Rectangle, with rotation*
0 The origin of the aperture is its center*
0 $1 length*
0 $2 width*
0 $3 Rotation angle, in degrees counterclockwise*
0 Add horizontal line*
21,1,$1,$2,0,0,$3*%
G04 Aperture macros list end*
%TA.AperFunction,ComponentPad*%
%ADD10R,0.850000X0.850000*%
%TD*%
%TA.AperFunction,ComponentPad*%
%ADD11O,0.850000X0.850000*%
%TD*%
%TA.AperFunction,HeatsinkPad*%
%ADD12C,0.500000*%
%TD*%
%TA.AperFunction,ComponentPad*%
%ADD13O,2.100000X1.000000*%
%TD*%
%TA.AperFunction,ComponentPad*%
%ADD14O,1.600000X1.000000*%
%TD*%
%TA.AperFunction,ComponentPad*%
%ADD15RotRect,0.850000X0.850000X135.000000*%
%TD*%
%TA.AperFunction,ComponentPad*%
%ADD16HorizOval,0.850000X0.000000X0.000000X0.000000X0.000000X0*%
%TD*%
%TA.AperFunction,ComponentPad*%
%ADD17RotRect,0.850000X0.850000X225.000000*%
%TD*%
%TA.AperFunction,ComponentPad*%
%ADD18HorizOval,0.850000X0.000000X0.000000X0.000000X0.000000X0*%
%TD*%
%TA.AperFunction,ViaPad*%
%ADD19C,0.600000*%
%TD*%
G04 APERTURE END LIST*
D10*
%TO.N,GND*%
%TO.C,J2*%
X162500000Y-125000000D03*
D11*
%TO.N,+1V8*%
X162500000Y-124000000D03*
%TO.N,+3V3*%
X162500000Y-123000000D03*
%TO.N,unconnected-(J2-Pin_4-Pad4)*%
X162500000Y-122000000D03*
%TO.N,unconnected-(J2-Pin_5-Pad5)*%
X162500000Y-121000000D03*
%TO.N,unconnected-(J2-Pin_6-Pad6)*%
X162500000Y-120000000D03*
%TO.N,unconnected-(J2-Pin_7-Pad7)*%
X162500000Y-119000000D03*
%TO.N,unconnected-(J2-Pin_8-Pad8)*%
X162500000Y-118000000D03*
%TO.N,unconnected-(J2-Pin_9-Pad9)*%
X162500000Y-117000000D03*
%TO.N,unconnected-(J2-Pin_10-Pad10)*%
X162500000Y-116000000D03*
%TO.N,unconnected-(J2-Pin_11-Pad11)*%
X162500000Y-115000000D03*
%TD*%
D12*
%TO.N,GND*%
%TO.C,U7*%
X115500000Y-116825000D03*
X115500000Y-115725000D03*
%TD*%
D13*
%TO.N,GND*%
%TO.C,J1*%
X107630000Y-115680000D03*
D14*
X103450000Y-115680000D03*
D13*
X107630000Y-124320000D03*
D14*
X103450000Y-124320000D03*
%TD*%
D12*
%TO.N,GND*%
%TO.C,U4*%
X112612500Y-124450000D03*
X112612500Y-123350000D03*
%TD*%
D15*
%TO.N,GND*%
%TO.C,J10*%
X156250000Y-134000000D03*
D16*
%TO.N,+1V8*%
X156957107Y-133292893D03*
%TO.N,+3V3*%
X157664214Y-132585786D03*
%TO.N,unconnected-(J10-Pin_4-Pad4)*%
X158371320Y-131878680D03*
%TO.N,unconnected-(J10-Pin_5-Pad5)*%
X159078427Y-131171573D03*
%TO.N,unconnected-(J10-Pin_6-Pad6)*%
X159785534Y-130464466D03*
%TO.N,unconnected-(J10-Pin_7-Pad7)*%
X160492641Y-129757359D03*
%TO.N,unconnected-(J10-Pin_8-Pad8)*%
X161199747Y-129050253D03*
%TO.N,unconnected-(J10-Pin_9-Pad9)*%
X161906854Y-128343146D03*
%TD*%
D17*
%TO.N,GND*%
%TO.C,J3*%
X162000000Y-111750000D03*
D18*
%TO.N,+1V8*%
X161292893Y-111042893D03*
%TO.N,+3V3*%
X160585786Y-110335786D03*
%TO.N,unconnected-(J3-Pin_4-Pad4)*%
X159878680Y-109628680D03*
%TO.N,unconnected-(J3-Pin_5-Pad5)*%
X159171573Y-108921573D03*
%TO.N,unconnected-(J3-Pin_6-Pad6)*%
X158464466Y-108214466D03*
%TO.N,unconnected-(J3-Pin_7-Pad7)*%
X157757359Y-107507359D03*
%TO.N,unconnected-(J3-Pin_8-Pad8)*%
X157050253Y-106800253D03*
%TO.N,unconnected-(J3-Pin_9-Pad9)*%
X156343146Y-106093146D03*
%TD*%
D19*
%TO.N,Net-(U1-PH3-BOOT0)*%
X106800000Y-106675000D03*
%TO.N,GND*%
X104700000Y-110749000D03*
X109702789Y-114797211D03*
X147800000Y-105500000D03*
X147400000Y-134500000D03*
%TO.N,+BATT*%
X153750000Y-118000000D03*
X131250000Y-138000000D03*
X111500000Y-110750000D03*
X154750000Y-118000000D03*
X137000000Y-101750000D03*
X102104133Y-132336894D03*
X102380087Y-102862847D03*
X102133620Y-135866380D03*
X130000000Y-138000000D03*
X113750000Y-115750000D03*
X135750000Y-101750000D03*
X153750000Y-119000000D03*
X102383620Y-106116380D03*
X102294947Y-113205053D03*
X155750000Y-119000000D03*
X155750000Y-118000000D03*
X102100000Y-138550100D03*
X154750000Y-119000000D03*
X102380087Y-109612847D03*
X112130250Y-122380250D03*
X102133620Y-128866380D03*
%TO.N,VBUS*%
X107000000Y-114552832D03*
X110300000Y-122450000D03*
X109594600Y-117500000D03*
%TO.N,GND*%
X125000000Y-136500000D03*
X159250000Y-137250000D03*
X133500000Y-105000000D03*
X101000000Y-133250000D03*
X154500000Y-113250000D03*
X155500000Y-113250000D03*
X103375000Y-127750000D03*
X105250000Y-101500000D03*
X133500000Y-135000000D03*
X142000000Y-103500000D03*
X139750000Y-101000000D03*
X118000000Y-122000000D03*
X125000000Y-103500000D03*
X155500000Y-114250000D03*
X101000000Y-136750000D03*
X101000000Y-126250000D03*
X101000000Y-103500000D03*
X137250000Y-139000000D03*
X142000000Y-136500000D03*
X101000000Y-129750000D03*
X128250000Y-138500000D03*
X153500000Y-114250000D03*
X157000000Y-138250000D03*
X114500000Y-123500000D03*
X101200000Y-114000000D03*
X154500000Y-114250000D03*
X130250000Y-100750000D03*
X131250000Y-100750000D03*
X136250000Y-139000000D03*
X138000000Y-134000000D03*
X101000000Y-110250000D03*
X113451200Y-120298800D03*
X120750000Y-120000000D03*
X101000000Y-106750000D03*
X159250000Y-102750000D03*
X128750000Y-106000000D03*
X112300000Y-118500000D03*
X103700000Y-137500000D03*
X102750000Y-100800000D03*
X153500000Y-113250000D03*
X157000000Y-101750000D03*
X110250000Y-123250000D03*
%TO.N,+3V3*%
X102800000Y-128306215D03*
%TO.N,/SENSE_LF*%
X136040380Y-103790380D03*
%TO.N,/SENSE_LR*%
X130818037Y-103650000D03*
%TO.N,/SENSE_RF*%
X135931482Y-136350722D03*
%TO.N,/SENSE_RR*%
X130818361Y-136350879D03*
%TO.N,/SWCLK*%
X106500000Y-104200000D03*
%TO.N,/SWO*%
X105250000Y-104200000D03*
%TO.N,/RST*%
X106500000Y-101500000D03*
%TO.N,/SWDIO*%
X107750000Y-104200000D03*
%TO.N,/R_PH_B*%
X133111529Y-132710809D03*
%TO.N,/R_PWM_A*%
X130703793Y-134671414D03*
%TO.N,/R_PWM_B*%
X132250000Y-132750000D03*
%TO.N,/R_RESET*%
X133911402Y-132696607D03*
%TO.N,/R_EN*%
X134750000Y-132750000D03*
%TO.N,/R_PH_A*%
X131129355Y-133993994D03*
%TO.N,/PWRON*%
X115750000Y-120250000D03*
%TO.N,/CHARGE*%
X115750000Y-119250000D03*
%TO.N,/L_PH_A*%
X135934313Y-106065687D03*
%TO.N,/L_EN*%
X132439937Y-107190641D03*
%TO.N,/L_PWM_B*%
X134560063Y-107190641D03*
%TO.N,/L_RESET*%
X133130976Y-107630976D03*
%TO.N,/L_PWM_A*%
X136290689Y-105331378D03*
%TO.N,/L_PH_B*%
X133929303Y-107682719D03*
%TO.N,+1V8*%
X115356037Y-124550000D03*
X108125000Y-111750000D03*
X130415380Y-105084620D03*
X130250000Y-110000000D03*
X107750000Y-101500000D03*
%TD*%
%TA.AperFunction,Conductor*%
%TO.N,GND*%
G36*
X106264849Y-100520185D02*
G01*
X106310604Y-100572989D01*
X106320548Y-100642147D01*
X106291523Y-100705703D01*
X106245262Y-100739061D01*
X106120827Y-100790602D01*
X106120814Y-100790609D01*
X105989711Y-100878210D01*
X105989707Y-100878213D01*
X105878213Y-100989707D01*
X105878210Y-100989711D01*
X105790609Y-101120814D01*
X105790602Y-101120827D01*
X105730264Y-101266498D01*
X105730261Y-101266510D01*
X105699500Y-101421153D01*
X105699500Y-101578846D01*
X105730261Y-101733489D01*
X105730264Y-101733501D01*
X105790602Y-101879172D01*
X105790609Y-101879185D01*
X105878210Y-102010288D01*
X105878213Y-102010292D01*
X105989707Y-102121786D01*
X105989711Y-102121789D01*
X106120814Y-102209390D01*
X106120827Y-102209397D01*
X106266498Y-102269735D01*
X106266503Y-102269737D01*
X106421153Y-102300499D01*
X106421156Y-102300500D01*
X106421158Y-102300500D01*
X106578844Y-102300500D01*
X106578845Y-102300499D01*
X106733497Y-102269737D01*
X106879179Y-102209394D01*
X107010289Y-102121789D01*
X107010292Y-102121786D01*
X107037319Y-102094760D01*
X107098642Y-102061275D01*
X107168334Y-102066259D01*
X107212681Y-102094760D01*
X107239707Y-102121786D01*
X107239711Y-102121789D01*
X107370814Y-102209390D01*
X107370827Y-102209397D01*
X107516498Y-102269735D01*
X107516503Y-102269737D01*
X107671153Y-102300499D01*
X107671156Y-102300500D01*
X107671158Y-102300500D01*
X107828844Y-102300500D01*
X107828845Y-102300499D01*
X107983497Y-102269737D01*
X108129179Y-102209394D01*
X108260289Y-102121789D01*
X108371789Y-102010289D01*
X108459394Y-101879179D01*
X108519737Y-101733497D01*
X108550500Y-101578842D01*
X108550500Y-101421158D01*
X108550500Y-101421155D01*
X108550499Y-101421153D01*
X108545014Y-101393580D01*
X108519737Y-101266503D01*
X108510630Y-101244516D01*
X108459397Y-101120827D01*
X108459390Y-101120814D01*
X108371789Y-100989711D01*
X108371786Y-100989707D01*
X108260292Y-100878213D01*
X108260288Y-100878210D01*
X108129185Y-100790609D01*
X108129172Y-100790602D01*
X108004738Y-100739061D01*
X107950334Y-100695221D01*
X107928269Y-100628926D01*
X107945548Y-100561227D01*
X107996685Y-100513616D01*
X108052190Y-100500500D01*
X110375500Y-100500500D01*
X110442539Y-100520185D01*
X110488294Y-100572989D01*
X110499500Y-100624500D01*
X110499500Y-104565892D01*
X110507174Y-104594532D01*
X110533608Y-104693187D01*
X110543482Y-104710289D01*
X110599500Y-104807314D01*
X110692686Y-104900500D01*
X110806814Y-104966392D01*
X110934108Y-105000500D01*
X110934110Y-105000500D01*
X123565890Y-105000500D01*
X123565892Y-105000500D01*
X123693186Y-104966392D01*
X123807314Y-104900500D01*
X123900500Y-104807314D01*
X123966392Y-104693186D01*
X124000500Y-104565892D01*
X124000500Y-101671153D01*
X134949500Y-101671153D01*
X134949500Y-101828846D01*
X134980261Y-101983489D01*
X134980264Y-101983501D01*
X135040602Y-102129172D01*
X135040609Y-102129185D01*
X135128210Y-102260288D01*
X135128213Y-102260292D01*
X135239707Y-102371786D01*
X135239711Y-102371789D01*
X135370814Y-102459390D01*
X135370827Y-102459397D01*
X135516498Y-102519735D01*
X135516503Y-102519737D01*
X135671153Y-102550499D01*
X135671156Y-102550500D01*
X135671158Y-102550500D01*
X135828844Y-102550500D01*
X135828845Y-102550499D01*
X135983497Y-102519737D01*
X136129179Y-102459394D01*
X136260289Y-102371789D01*
X136260292Y-102371786D01*
X136287319Y-102344760D01*
X136348642Y-102311275D01*
X136418334Y-102316259D01*
X136462681Y-102344760D01*
X136489707Y-102371786D01*
X136489711Y-102371789D01*
X136620814Y-102459390D01*
X136620827Y-102459397D01*
X136766498Y-102519735D01*
X136766503Y-102519737D01*
X136921153Y-102550499D01*
X136921156Y-102550500D01*
X136921158Y-102550500D01*
X137078844Y-102550500D01*
X137078845Y-102550499D01*
X137233497Y-102519737D01*
X137379179Y-102459394D01*
X137510289Y-102371789D01*
X137621789Y-102260289D01*
X137709394Y-102129179D01*
X137769737Y-101983497D01*
X137800500Y-101828842D01*
X137800500Y-101671158D01*
X137800500Y-101671155D01*
X137800499Y-101671153D01*
X137769738Y-101516510D01*
X137769737Y-101516503D01*
X137718821Y-101393580D01*
X137709397Y-101370827D01*
X137709390Y-101370814D01*
X137621789Y-101239711D01*
X137621786Y-101239707D01*
X137510292Y-101128213D01*
X137510288Y-101128210D01*
X137379185Y-101040609D01*
X137379172Y-101040602D01*
X137233501Y-100980264D01*
X137233489Y-100980261D01*
X137078845Y-100949500D01*
X137078842Y-100949500D01*
X136921158Y-100949500D01*
X136921155Y-100949500D01*
X136766510Y-100980261D01*
X136766498Y-100980264D01*
X136620827Y-101040602D01*
X136620814Y-101040609D01*
X136489711Y-101128210D01*
X136489707Y-101128213D01*
X136462681Y-101155240D01*
X136401358Y-101188725D01*
X136331666Y-101183741D01*
X136287319Y-101155240D01*
X136260292Y-101128213D01*
X136260288Y-101128210D01*
X136129185Y-101040609D01*
X136129172Y-101040602D01*
X135983501Y-100980264D01*
X135983489Y-100980261D01*
X135828845Y-100949500D01*
X135828842Y-100949500D01*
X135671158Y-100949500D01*
X135671155Y-100949500D01*
X135516510Y-100980261D01*
X135516498Y-100980264D01*
X135370827Y-101040602D01*
X135370814Y-101040609D01*
X135239711Y-101128210D01*
X135239707Y-101128213D01*
X135128213Y-101239707D01*
X135128210Y-101239711D01*
X135040609Y-101370814D01*
X135040602Y-101370827D01*
X134980264Y-101516498D01*
X134980261Y-101516510D01*
X134949500Y-101671153D01*
X124000500Y-101671153D01*
X124000500Y-100624500D01*
X124020185Y-100557461D01*
X124072989Y-100511706D01*
X124124500Y-100500500D01*
X142875500Y-100500500D01*
X142942539Y-100520185D01*
X142988294Y-100572989D01*
X142999500Y-100624500D01*
X142999500Y-104434108D01*
X142999500Y-104565892D01*
X143007174Y-104594532D01*
X143033608Y-104693187D01*
X143043482Y-104710289D01*
X143099500Y-104807314D01*
X143192686Y-104900500D01*
X143306814Y-104966392D01*
X143434108Y-105000500D01*
X143434110Y-105000500D01*
X155939190Y-105000500D01*
X156006229Y-105020185D01*
X156051984Y-105072989D01*
X156061928Y-105142147D01*
X156032903Y-105205703D01*
X155986642Y-105239061D01*
X155904758Y-105272977D01*
X155904754Y-105272979D01*
X155753178Y-105374259D01*
X155753170Y-105374265D01*
X155624265Y-105503170D01*
X155624259Y-105503178D01*
X155522979Y-105654754D01*
X155522977Y-105654758D01*
X155453214Y-105823183D01*
X155453211Y-105823193D01*
X155417646Y-106001989D01*
X155417646Y-106001992D01*
X155417646Y-106184300D01*
X155417646Y-106184302D01*
X155417645Y-106184302D01*
X155453211Y-106363098D01*
X155453214Y-106363108D01*
X155522977Y-106531533D01*
X155522979Y-106531537D01*
X155624259Y-106683113D01*
X155624265Y-106683121D01*
X155753170Y-106812026D01*
X155753178Y-106812032D01*
X155904754Y-106913312D01*
X155904758Y-106913314D01*
X156026506Y-106963743D01*
X156073188Y-106983079D01*
X156073192Y-106983079D01*
X156076617Y-106984119D01*
X156078195Y-106985153D01*
X156078815Y-106985410D01*
X156078766Y-106985527D01*
X156135055Y-107022418D01*
X156159276Y-107066773D01*
X156160317Y-107070206D01*
X156230084Y-107238640D01*
X156230086Y-107238644D01*
X156331366Y-107390220D01*
X156331372Y-107390228D01*
X156460277Y-107519133D01*
X156460285Y-107519139D01*
X156611861Y-107620419D01*
X156611865Y-107620421D01*
X156780290Y-107690184D01*
X156780295Y-107690186D01*
X156780299Y-107690186D01*
X156783715Y-107691223D01*
X156785290Y-107692255D01*
X156785922Y-107692517D01*
X156785872Y-107692636D01*
X156842155Y-107729517D01*
X156866382Y-107773879D01*
X156867423Y-107777312D01*
X156937190Y-107945746D01*
X156937192Y-107945750D01*
X157038472Y-108097326D01*
X157038478Y-108097334D01*
X157167383Y-108226239D01*
X157167391Y-108226245D01*
X157318967Y-108327525D01*
X157318971Y-108327527D01*
X157474900Y-108392114D01*
X157487401Y-108397292D01*
X157487405Y-108397292D01*
X157490830Y-108398332D01*
X157492408Y-108399366D01*
X157493028Y-108399623D01*
X157492979Y-108399740D01*
X157549268Y-108436631D01*
X157573489Y-108480986D01*
X157574530Y-108484419D01*
X157644297Y-108652853D01*
X157644299Y-108652857D01*
X157745579Y-108804433D01*
X157745585Y-108804441D01*
X157874490Y-108933346D01*
X157874498Y-108933352D01*
X158026074Y-109034632D01*
X158026078Y-109034634D01*
X158190054Y-109102554D01*
X158194508Y-109104399D01*
X158194512Y-109104399D01*
X158197937Y-109105439D01*
X158199515Y-109106473D01*
X158200135Y-109106730D01*
X158200086Y-109106847D01*
X158256375Y-109143738D01*
X158280596Y-109188093D01*
X158281637Y-109191526D01*
X158351404Y-109359960D01*
X158351406Y-109359964D01*
X158452686Y-109511540D01*
X158452692Y-109511548D01*
X158581597Y-109640453D01*
X158581605Y-109640459D01*
X158733181Y-109741739D01*
X158733185Y-109741741D01*
X158901610Y-109811504D01*
X158901615Y-109811506D01*
X158901619Y-109811506D01*
X158905044Y-109812546D01*
X158906622Y-109813580D01*
X158907242Y-109813837D01*
X158907193Y-109813954D01*
X158963482Y-109850845D01*
X158987703Y-109895200D01*
X158988744Y-109898633D01*
X159058511Y-110067067D01*
X159058513Y-110067071D01*
X159159793Y-110218647D01*
X159159799Y-110218655D01*
X159288704Y-110347560D01*
X159288712Y-110347566D01*
X159440288Y-110448846D01*
X159440292Y-110448848D01*
X159588626Y-110510289D01*
X159608722Y-110518613D01*
X159608726Y-110518613D01*
X159612142Y-110519650D01*
X159613717Y-110520682D01*
X159614349Y-110520944D01*
X159614299Y-110521063D01*
X159670582Y-110557944D01*
X159694809Y-110602306D01*
X159695850Y-110605739D01*
X159765617Y-110774173D01*
X159765619Y-110774177D01*
X159866899Y-110925753D01*
X159866905Y-110925761D01*
X159995810Y-111054666D01*
X159995818Y-111054672D01*
X160147394Y-111155952D01*
X160147398Y-111155954D01*
X160315823Y-111225717D01*
X160315828Y-111225719D01*
X160315832Y-111225719D01*
X160319257Y-111226759D01*
X160320835Y-111227793D01*
X160321455Y-111228050D01*
X160321406Y-111228167D01*
X160377695Y-111265058D01*
X160401916Y-111309413D01*
X160402957Y-111312846D01*
X160472724Y-111481280D01*
X160472726Y-111481284D01*
X160574006Y-111632860D01*
X160574012Y-111632868D01*
X160702917Y-111761773D01*
X160702925Y-111761779D01*
X160854493Y-111863053D01*
X160854495Y-111863054D01*
X160854504Y-111863060D01*
X160866672Y-111868100D01*
X160921075Y-111911941D01*
X160932013Y-111931149D01*
X160974004Y-112023096D01*
X160974007Y-112023101D01*
X161011584Y-112069732D01*
X161169148Y-112227296D01*
X161412381Y-111984062D01*
X161473704Y-111950577D01*
X161475647Y-111950172D01*
X161562851Y-111932826D01*
X161700171Y-111875946D01*
X161731280Y-111863061D01*
X161731284Y-111863059D01*
X161766488Y-111839535D01*
X161788060Y-111891614D01*
X161858386Y-111961940D01*
X161950272Y-112000000D01*
X162049728Y-112000000D01*
X162141614Y-111961940D01*
X162211940Y-111891614D01*
X162250000Y-111799728D01*
X162250000Y-111749999D01*
X162353553Y-111749999D01*
X162353553Y-111750001D01*
X162830849Y-112227297D01*
X162830850Y-112227297D01*
X162988415Y-112069732D01*
X163025992Y-112023101D01*
X163025997Y-112023094D01*
X163085719Y-111892321D01*
X163085721Y-111892313D01*
X163106181Y-111750000D01*
X163085721Y-111607686D01*
X163085719Y-111607678D01*
X163025997Y-111476905D01*
X163025992Y-111476898D01*
X162988415Y-111430267D01*
X162830850Y-111272702D01*
X162830849Y-111272702D01*
X162353553Y-111749999D01*
X162250000Y-111749999D01*
X162250000Y-111700272D01*
X162211940Y-111608386D01*
X162141614Y-111538060D01*
X162089535Y-111516488D01*
X162113060Y-111481282D01*
X162182826Y-111312851D01*
X162200128Y-111225867D01*
X162232509Y-111163962D01*
X162234062Y-111162381D01*
X162477296Y-110919148D01*
X162319732Y-110761584D01*
X162273101Y-110724007D01*
X162273096Y-110724004D01*
X162181149Y-110682013D01*
X162128345Y-110636258D01*
X162118100Y-110616672D01*
X162113060Y-110604504D01*
X162111591Y-110602306D01*
X162011779Y-110452925D01*
X162011773Y-110452917D01*
X161882868Y-110324012D01*
X161882860Y-110324006D01*
X161731284Y-110222726D01*
X161731280Y-110222724D01*
X161562846Y-110152957D01*
X161559413Y-110151916D01*
X161557836Y-110150882D01*
X161557224Y-110150629D01*
X161557272Y-110150512D01*
X161500978Y-110113614D01*
X161476759Y-110069257D01*
X161475717Y-110065823D01*
X161405954Y-109897398D01*
X161405952Y-109897394D01*
X161304672Y-109745818D01*
X161304666Y-109745810D01*
X161175761Y-109616905D01*
X161175753Y-109616899D01*
X161024177Y-109515619D01*
X161024173Y-109515617D01*
X160855739Y-109445850D01*
X160852306Y-109444809D01*
X160850729Y-109443775D01*
X160850117Y-109443522D01*
X160850165Y-109443405D01*
X160793871Y-109406507D01*
X160769650Y-109362142D01*
X160768611Y-109358717D01*
X160698848Y-109190292D01*
X160698846Y-109190288D01*
X160597566Y-109038712D01*
X160597560Y-109038704D01*
X160468655Y-108909799D01*
X160468647Y-108909793D01*
X160317071Y-108808513D01*
X160317067Y-108808511D01*
X160148633Y-108738744D01*
X160145200Y-108737703D01*
X160143623Y-108736669D01*
X160143011Y-108736416D01*
X160143059Y-108736299D01*
X160086765Y-108699401D01*
X160062546Y-108655044D01*
X160061504Y-108651610D01*
X159991741Y-108483185D01*
X159991739Y-108483181D01*
X159890459Y-108331605D01*
X159890453Y-108331597D01*
X159761548Y-108202692D01*
X159761540Y-108202686D01*
X159609964Y-108101406D01*
X159609960Y-108101404D01*
X159441526Y-108031637D01*
X159438093Y-108030596D01*
X159436516Y-108029562D01*
X159435904Y-108029309D01*
X159435952Y-108029192D01*
X159379658Y-107992294D01*
X159355439Y-107947937D01*
X159354397Y-107944503D01*
X159284634Y-107776078D01*
X159284632Y-107776074D01*
X159183352Y-107624498D01*
X159183346Y-107624490D01*
X159054441Y-107495585D01*
X159054433Y-107495579D01*
X158902857Y-107394299D01*
X158902853Y-107394297D01*
X158734419Y-107324530D01*
X158730986Y-107323489D01*
X158729409Y-107322455D01*
X158728797Y-107322202D01*
X158728845Y-107322085D01*
X158672551Y-107285187D01*
X158648332Y-107240830D01*
X158647290Y-107237396D01*
X158577527Y-107068971D01*
X158577525Y-107068967D01*
X158476245Y-106917391D01*
X158476239Y-106917383D01*
X158347334Y-106788478D01*
X158347326Y-106788472D01*
X158195750Y-106687192D01*
X158195746Y-106687190D01*
X158027312Y-106617423D01*
X158023879Y-106616382D01*
X158022302Y-106615348D01*
X158021690Y-106615095D01*
X158021738Y-106614978D01*
X157965444Y-106578080D01*
X157941223Y-106533715D01*
X157940184Y-106530290D01*
X157870421Y-106361865D01*
X157870419Y-106361861D01*
X157769139Y-106210285D01*
X157769133Y-106210277D01*
X157640228Y-106081372D01*
X157640220Y-106081366D01*
X157488644Y-105980086D01*
X157488640Y-105980084D01*
X157320206Y-105910317D01*
X157316773Y-105909276D01*
X157315196Y-105908242D01*
X157314584Y-105907989D01*
X157314632Y-105907872D01*
X157258338Y-105870974D01*
X157234119Y-105826617D01*
X157233077Y-105823183D01*
X157163314Y-105654758D01*
X157163312Y-105654754D01*
X157062032Y-105503178D01*
X157062026Y-105503170D01*
X156933121Y-105374265D01*
X156933113Y-105374259D01*
X156781537Y-105272979D01*
X156781533Y-105272977D01*
X156613108Y-105203214D01*
X156613098Y-105203211D01*
X156434302Y-105167646D01*
X156434300Y-105167646D01*
X156307378Y-105167646D01*
X156240339Y-105147961D01*
X156194584Y-105095157D01*
X156184640Y-105025999D01*
X156213665Y-104962443D01*
X156245378Y-104936259D01*
X156251448Y-104932753D01*
X156307314Y-104900500D01*
X156400500Y-104807314D01*
X156466392Y-104693186D01*
X156500500Y-104565892D01*
X156500500Y-101034399D01*
X156520185Y-100967360D01*
X156572989Y-100921605D01*
X156642147Y-100911661D01*
X156682250Y-100924668D01*
X164905201Y-105252536D01*
X164933253Y-105267300D01*
X164983409Y-105315943D01*
X164999500Y-105377030D01*
X164999500Y-134622968D01*
X164979815Y-134690007D01*
X164933253Y-134732698D01*
X156682253Y-139075329D01*
X156613760Y-139089133D01*
X156548677Y-139063716D01*
X156507668Y-139007148D01*
X156500500Y-138965599D01*
X156500500Y-135434110D01*
X156500500Y-135434108D01*
X156466392Y-135306814D01*
X156466390Y-135306810D01*
X156418124Y-135223211D01*
X156401651Y-135155311D01*
X156424503Y-135089284D01*
X156474001Y-135048416D01*
X156523097Y-135025994D01*
X156523101Y-135025992D01*
X156569732Y-134988415D01*
X156727297Y-134830850D01*
X156727297Y-134830849D01*
X156250001Y-134353553D01*
X156250000Y-134353553D01*
X155772702Y-134830849D01*
X155772702Y-134875500D01*
X155753017Y-134942539D01*
X155700213Y-134988294D01*
X155648702Y-134999500D01*
X143434108Y-134999500D01*
X143306812Y-135033608D01*
X143192686Y-135099500D01*
X143192683Y-135099502D01*
X143099502Y-135192683D01*
X143099500Y-135192686D01*
X143033608Y-135306812D01*
X142999500Y-135434108D01*
X142999500Y-139375500D01*
X142979815Y-139442539D01*
X142927011Y-139488294D01*
X142875500Y-139499500D01*
X124124500Y-139499500D01*
X124057461Y-139479815D01*
X124011706Y-139427011D01*
X124000500Y-139375500D01*
X124000500Y-137921153D01*
X129199500Y-137921153D01*
X129199500Y-138078846D01*
X129230261Y-138233489D01*
X129230264Y-138233501D01*
X129290602Y-138379172D01*
X129290609Y-138379185D01*
X129378210Y-138510288D01*
X129378213Y-138510292D01*
X129489707Y-138621786D01*
X129489711Y-138621789D01*
X129620814Y-138709390D01*
X129620827Y-138709397D01*
X129766498Y-138769735D01*
X129766503Y-138769737D01*
X129921153Y-138800499D01*
X129921156Y-138800500D01*
X129921158Y-138800500D01*
X130078844Y-138800500D01*
X130078845Y-138800499D01*
X130233497Y-138769737D01*
X130379179Y-138709394D01*
X130510289Y-138621789D01*
X130510292Y-138621786D01*
X130537319Y-138594760D01*
X130598642Y-138561275D01*
X130668334Y-138566259D01*
X130712681Y-138594760D01*
X130739707Y-138621786D01*
X130739711Y-138621789D01*
X130870814Y-138709390D01*
X130870827Y-138709397D01*
X131016498Y-138769735D01*
X131016503Y-138769737D01*
X131171153Y-138800499D01*
X131171156Y-138800500D01*
X131171158Y-138800500D01*
X131328844Y-138800500D01*
X131328845Y-138800499D01*
X131483497Y-138769737D01*
X131629179Y-138709394D01*
X131760289Y-138621789D01*
X131871789Y-138510289D01*
X131959394Y-138379179D01*
X132019737Y-138233497D01*
X132050500Y-138078842D01*
X132050500Y-137921158D01*
X132050500Y-137921155D01*
X132050499Y-137921153D01*
X132019737Y-137766503D01*
X132012736Y-137749600D01*
X131959397Y-137620827D01*
X131959390Y-137620814D01*
X131871789Y-137489711D01*
X131871786Y-137489707D01*
X131760292Y-137378213D01*
X131760288Y-137378210D01*
X131629185Y-137290609D01*
X131629172Y-137290602D01*
X131483501Y-137230264D01*
X131483491Y-137230261D01*
X131360703Y-137205837D01*
X131298792Y-137173452D01*
X131264218Y-137112736D01*
X131267958Y-137042967D01*
X131308825Y-136986295D01*
X131316005Y-136981117D01*
X131328650Y-136972668D01*
X131440150Y-136861168D01*
X131527755Y-136730058D01*
X131588098Y-136584376D01*
X131618861Y-136429721D01*
X131618861Y-136272037D01*
X131618829Y-136271877D01*
X131618829Y-136271875D01*
X135130982Y-136271875D01*
X135130982Y-136429568D01*
X135161743Y-136584211D01*
X135161746Y-136584223D01*
X135222084Y-136729894D01*
X135222091Y-136729907D01*
X135309692Y-136861010D01*
X135309695Y-136861014D01*
X135421189Y-136972508D01*
X135421193Y-136972511D01*
X135552296Y-137060112D01*
X135552309Y-137060119D01*
X135679340Y-137112736D01*
X135697985Y-137120459D01*
X135852635Y-137151221D01*
X135852638Y-137151222D01*
X135852640Y-137151222D01*
X136010326Y-137151222D01*
X136010327Y-137151221D01*
X136164979Y-137120459D01*
X136310661Y-137060116D01*
X136441771Y-136972511D01*
X136553271Y-136861011D01*
X136640876Y-136729901D01*
X136701219Y-136584219D01*
X136731982Y-136429564D01*
X136731982Y-136271880D01*
X136731982Y-136271877D01*
X136731981Y-136271875D01*
X136726745Y-136245552D01*
X136701219Y-136117225D01*
X136694030Y-136099869D01*
X136640879Y-135971549D01*
X136640872Y-135971536D01*
X136553271Y-135840433D01*
X136553268Y-135840429D01*
X136441774Y-135728935D01*
X136441770Y-135728932D01*
X136310667Y-135641331D01*
X136310654Y-135641324D01*
X136164983Y-135580986D01*
X136164971Y-135580983D01*
X136010327Y-135550222D01*
X136010324Y-135550222D01*
X135852640Y-135550222D01*
X135852637Y-135550222D01*
X135697992Y-135580983D01*
X135697980Y-135580986D01*
X135552309Y-135641324D01*
X135552296Y-135641331D01*
X135421193Y-135728932D01*
X135421189Y-135728935D01*
X135309695Y-135840429D01*
X135309692Y-135840433D01*
X135222091Y-135971536D01*
X135222084Y-135971549D01*
X135161746Y-136117220D01*
X135161743Y-136117232D01*
X135130982Y-136271875D01*
X131618829Y-136271875D01*
X131588099Y-136117389D01*
X131588098Y-136117382D01*
X131580844Y-136099869D01*
X131527758Y-135971706D01*
X131527751Y-135971693D01*
X131440150Y-135840590D01*
X131440147Y-135840586D01*
X131328653Y-135729092D01*
X131328649Y-135729089D01*
X131197546Y-135641488D01*
X131197533Y-135641481D01*
X131100310Y-135601211D01*
X131045906Y-135557371D01*
X131023841Y-135491076D01*
X131041120Y-135423377D01*
X131078872Y-135383548D01*
X131192963Y-135307314D01*
X131214082Y-135293203D01*
X131325582Y-135181703D01*
X131413187Y-135050593D01*
X131473530Y-134904911D01*
X131504293Y-134750256D01*
X131504293Y-134750254D01*
X131504374Y-134749847D01*
X131536758Y-134687936D01*
X131557091Y-134670942D01*
X131639644Y-134615783D01*
X131751144Y-134504283D01*
X131838749Y-134373173D01*
X131899092Y-134227491D01*
X131929855Y-134072836D01*
X131929855Y-134000000D01*
X155143818Y-134000000D01*
X155164278Y-134142313D01*
X155164280Y-134142321D01*
X155224002Y-134273094D01*
X155224007Y-134273101D01*
X155261584Y-134319732D01*
X155419149Y-134477297D01*
X155896446Y-134000000D01*
X155896446Y-133999999D01*
X155419150Y-133522702D01*
X155419148Y-133522702D01*
X155261588Y-133680262D01*
X155224007Y-133726898D01*
X155224002Y-133726905D01*
X155164280Y-133857678D01*
X155164278Y-133857686D01*
X155143818Y-134000000D01*
X131929855Y-134000000D01*
X131929855Y-133915152D01*
X131929855Y-133915149D01*
X131929854Y-133915147D01*
X131918424Y-133857686D01*
X131899092Y-133760497D01*
X131868492Y-133686621D01*
X131861023Y-133617152D01*
X131892298Y-133554673D01*
X131952387Y-133519021D01*
X132010176Y-133520317D01*
X132010528Y-133518549D01*
X132171153Y-133550499D01*
X132171156Y-133550500D01*
X132171158Y-133550500D01*
X132328844Y-133550500D01*
X132328845Y-133550499D01*
X132483497Y-133519737D01*
X132629179Y-133459394D01*
X132636952Y-133454200D01*
X132649758Y-133445644D01*
X132716435Y-133424765D01*
X132766102Y-133434184D01*
X132866745Y-133475871D01*
X132878032Y-133480546D01*
X133032682Y-133511308D01*
X133032685Y-133511309D01*
X133032687Y-133511309D01*
X133190373Y-133511309D01*
X133190374Y-133511308D01*
X133345026Y-133480546D01*
X133481157Y-133424158D01*
X133550626Y-133416690D01*
X133576057Y-133424157D01*
X133677905Y-133466344D01*
X133797711Y-133490175D01*
X133832555Y-133497106D01*
X133832558Y-133497107D01*
X133832560Y-133497107D01*
X133990246Y-133497107D01*
X133990247Y-133497106D01*
X134144899Y-133466344D01*
X134229551Y-133431279D01*
X134299021Y-133423811D01*
X134345894Y-133442738D01*
X134370821Y-133459394D01*
X134370827Y-133459396D01*
X134370828Y-133459397D01*
X134461869Y-133497107D01*
X134516503Y-133519737D01*
X134671153Y-133550499D01*
X134671156Y-133550500D01*
X134671158Y-133550500D01*
X134828844Y-133550500D01*
X134828845Y-133550499D01*
X134983497Y-133519737D01*
X135129179Y-133459394D01*
X135260289Y-133371789D01*
X135371789Y-133260289D01*
X135432688Y-133169148D01*
X155772702Y-133169148D01*
X156015936Y-133412381D01*
X156049421Y-133473704D01*
X156049872Y-133475871D01*
X156067172Y-133562845D01*
X156067175Y-133562855D01*
X156136938Y-133731280D01*
X156136940Y-133731284D01*
X156160463Y-133766489D01*
X156108386Y-133788060D01*
X156038060Y-133858386D01*
X156000000Y-133950272D01*
X156000000Y-134049728D01*
X156038060Y-134141614D01*
X156108386Y-134211940D01*
X156200272Y-134250000D01*
X156299728Y-134250000D01*
X156391614Y-134211940D01*
X156461940Y-134141614D01*
X156483511Y-134089536D01*
X156518715Y-134113059D01*
X156518719Y-134113061D01*
X156634748Y-134161121D01*
X156687149Y-134182826D01*
X156774130Y-134200128D01*
X156836036Y-134232510D01*
X156837617Y-134234062D01*
X157080850Y-134477296D01*
X157238411Y-134319736D01*
X157238415Y-134319732D01*
X157275992Y-134273101D01*
X157275993Y-134273100D01*
X157317985Y-134181150D01*
X157363740Y-134128346D01*
X157383327Y-134118100D01*
X157395496Y-134113060D01*
X157547079Y-134011776D01*
X157675990Y-133882865D01*
X157777274Y-133731282D01*
X157847040Y-133562851D01*
X157847042Y-133562840D01*
X157848080Y-133559421D01*
X157849114Y-133557842D01*
X157849371Y-133557223D01*
X157849488Y-133557271D01*
X157886379Y-133500983D01*
X157930742Y-133476759D01*
X157934161Y-133475721D01*
X157934172Y-133475719D01*
X158071492Y-133418839D01*
X158102601Y-133405954D01*
X158102605Y-133405952D01*
X158177886Y-133355650D01*
X158254186Y-133304669D01*
X158383097Y-133175758D01*
X158469606Y-133046288D01*
X158484380Y-133024177D01*
X158484382Y-133024173D01*
X158507636Y-132968031D01*
X158554147Y-132855744D01*
X158554148Y-132855736D01*
X158555187Y-132852315D01*
X158556221Y-132850736D01*
X158556478Y-132850117D01*
X158556595Y-132850165D01*
X158593486Y-132793877D01*
X158637849Y-132769653D01*
X158641270Y-132768614D01*
X158641278Y-132768613D01*
X158768122Y-132716073D01*
X158809707Y-132698848D01*
X158809711Y-132698846D01*
X158884992Y-132648544D01*
X158961292Y-132597563D01*
X159090203Y-132468652D01*
X159155576Y-132370814D01*
X159191486Y-132317071D01*
X159191488Y-132317067D01*
X159204373Y-132285958D01*
X159261253Y-132148638D01*
X159261255Y-132148627D01*
X159262293Y-132145208D01*
X159263327Y-132143629D01*
X159263584Y-132143010D01*
X159263701Y-132143058D01*
X159300592Y-132086770D01*
X159344955Y-132062546D01*
X159348374Y-132061508D01*
X159348385Y-132061506D01*
X159506971Y-131995818D01*
X159516814Y-131991741D01*
X159516818Y-131991739D01*
X159613904Y-131926868D01*
X159668399Y-131890456D01*
X159797310Y-131761545D01*
X159898594Y-131609962D01*
X159968360Y-131441531D01*
X159968362Y-131441520D01*
X159969400Y-131438101D01*
X159970434Y-131436522D01*
X159970691Y-131435903D01*
X159970808Y-131435951D01*
X160007699Y-131379663D01*
X160052062Y-131355439D01*
X160055481Y-131354401D01*
X160055492Y-131354399D01*
X160192812Y-131297519D01*
X160223921Y-131284634D01*
X160223925Y-131284632D01*
X160299206Y-131234330D01*
X160375506Y-131183349D01*
X160504417Y-131054438D01*
X160603177Y-130906633D01*
X160605700Y-130902857D01*
X160605702Y-130902853D01*
X160618587Y-130871744D01*
X160675467Y-130734424D01*
X160675469Y-130734413D01*
X160676507Y-130730994D01*
X160677541Y-130729415D01*
X160677798Y-130728796D01*
X160677915Y-130728844D01*
X160714806Y-130672556D01*
X160759169Y-130648332D01*
X160762588Y-130647294D01*
X160762599Y-130647292D01*
X160899919Y-130590412D01*
X160931028Y-130577527D01*
X160931032Y-130577525D01*
X161006313Y-130527223D01*
X161082613Y-130476242D01*
X161211524Y-130347331D01*
X161310284Y-130199526D01*
X161312807Y-130195750D01*
X161312809Y-130195746D01*
X161382572Y-130027321D01*
X161382574Y-130027317D01*
X161382575Y-130027309D01*
X161383614Y-130023888D01*
X161384648Y-130022309D01*
X161384905Y-130021690D01*
X161385022Y-130021738D01*
X161421913Y-129965450D01*
X161466276Y-129941226D01*
X161469697Y-129940187D01*
X161469705Y-129940186D01*
X161628291Y-129874498D01*
X161638134Y-129870421D01*
X161638138Y-129870419D01*
X161713419Y-129820117D01*
X161789719Y-129769136D01*
X161918630Y-129640225D01*
X161979400Y-129549276D01*
X162019913Y-129488644D01*
X162019915Y-129488640D01*
X162066294Y-129376669D01*
X162089680Y-129320211D01*
X162089682Y-129320200D01*
X162090720Y-129316781D01*
X162091754Y-129315202D01*
X162092011Y-129314583D01*
X162092128Y-129314631D01*
X162129019Y-129258343D01*
X162173382Y-129234119D01*
X162176801Y-129233081D01*
X162176812Y-129233079D01*
X162335398Y-129167391D01*
X162345241Y-129163314D01*
X162345245Y-129163312D01*
X162456338Y-129089082D01*
X162496826Y-129062029D01*
X162625737Y-128933118D01*
X162723010Y-128787538D01*
X162727020Y-128781537D01*
X162727022Y-128781533D01*
X162766844Y-128685394D01*
X162796787Y-128613104D01*
X162821833Y-128487194D01*
X162832354Y-128434302D01*
X162832354Y-128251989D01*
X162796788Y-128073193D01*
X162796787Y-128073192D01*
X162796787Y-128073188D01*
X162792878Y-128063750D01*
X162727022Y-127904758D01*
X162727020Y-127904754D01*
X162625740Y-127753178D01*
X162625734Y-127753170D01*
X162496829Y-127624265D01*
X162496821Y-127624259D01*
X162345245Y-127522979D01*
X162345241Y-127522977D01*
X162176816Y-127453214D01*
X162176806Y-127453211D01*
X161998010Y-127417646D01*
X161998008Y-127417646D01*
X161815700Y-127417646D01*
X161815698Y-127417646D01*
X161636901Y-127453211D01*
X161636891Y-127453214D01*
X161468466Y-127522977D01*
X161468462Y-127522979D01*
X161316886Y-127624259D01*
X161316878Y-127624265D01*
X161187973Y-127753170D01*
X161187967Y-127753178D01*
X161086687Y-127904754D01*
X161086685Y-127904758D01*
X161016918Y-128073192D01*
X161015876Y-128076629D01*
X161014842Y-128078206D01*
X161014590Y-128078815D01*
X161014474Y-128078767D01*
X160977572Y-128135063D01*
X160933230Y-128159275D01*
X160929793Y-128160317D01*
X160761359Y-128230084D01*
X160761355Y-128230086D01*
X160609779Y-128331366D01*
X160609771Y-128331372D01*
X160480866Y-128460277D01*
X160480860Y-128460285D01*
X160379580Y-128611861D01*
X160379578Y-128611865D01*
X160309810Y-128780301D01*
X160308768Y-128783738D01*
X160307734Y-128785314D01*
X160307483Y-128785922D01*
X160307367Y-128785874D01*
X160270462Y-128842171D01*
X160226126Y-128866380D01*
X160222689Y-128867422D01*
X160054253Y-128937190D01*
X160054249Y-128937192D01*
X159902673Y-129038472D01*
X159902665Y-129038478D01*
X159773760Y-129167383D01*
X159773754Y-129167391D01*
X159672474Y-129318967D01*
X159672472Y-129318971D01*
X159602705Y-129487405D01*
X159601663Y-129490842D01*
X159600629Y-129492419D01*
X159600377Y-129493028D01*
X159600261Y-129492980D01*
X159563359Y-129549276D01*
X159519017Y-129573488D01*
X159515580Y-129574530D01*
X159347146Y-129644297D01*
X159347142Y-129644299D01*
X159195566Y-129745579D01*
X159195558Y-129745585D01*
X159066653Y-129874490D01*
X159066647Y-129874498D01*
X158965367Y-130026074D01*
X158965365Y-130026078D01*
X158895598Y-130194512D01*
X158894556Y-130197949D01*
X158893522Y-130199526D01*
X158893270Y-130200135D01*
X158893154Y-130200087D01*
X158856252Y-130256383D01*
X158811910Y-130280595D01*
X158808473Y-130281637D01*
X158640039Y-130351404D01*
X158640035Y-130351406D01*
X158488459Y-130452686D01*
X158488451Y-130452692D01*
X158359546Y-130581597D01*
X158359540Y-130581605D01*
X158258260Y-130733181D01*
X158258258Y-130733185D01*
X158188491Y-130901619D01*
X158187449Y-130905056D01*
X158186415Y-130906633D01*
X158186163Y-130907242D01*
X158186047Y-130907194D01*
X158149145Y-130963490D01*
X158104803Y-130987702D01*
X158101366Y-130988744D01*
X157932932Y-131058511D01*
X157932928Y-131058513D01*
X157781352Y-131159793D01*
X157781344Y-131159799D01*
X157652439Y-131288704D01*
X157652433Y-131288712D01*
X157551153Y-131440288D01*
X157551151Y-131440292D01*
X157481383Y-131608728D01*
X157480341Y-131612165D01*
X157479307Y-131613741D01*
X157479056Y-131614349D01*
X157478940Y-131614301D01*
X157442035Y-131670598D01*
X157397699Y-131694807D01*
X157394262Y-131695849D01*
X157225826Y-131765617D01*
X157225822Y-131765619D01*
X157074246Y-131866899D01*
X157074238Y-131866905D01*
X156945333Y-131995810D01*
X156945327Y-131995818D01*
X156844047Y-132147394D01*
X156844045Y-132147398D01*
X156774278Y-132315832D01*
X156773236Y-132319269D01*
X156772202Y-132320846D01*
X156771950Y-132321455D01*
X156771834Y-132321407D01*
X156734932Y-132377703D01*
X156690590Y-132401915D01*
X156687153Y-132402957D01*
X156518719Y-132472724D01*
X156518715Y-132472726D01*
X156367139Y-132574006D01*
X156367131Y-132574012D01*
X156238223Y-132702920D01*
X156136943Y-132854497D01*
X156136938Y-132854506D01*
X156131898Y-132866675D01*
X156088055Y-132921077D01*
X156068850Y-132932013D01*
X155976903Y-132974004D01*
X155976898Y-132974007D01*
X155930262Y-133011588D01*
X155772702Y-133169148D01*
X135432688Y-133169148D01*
X135459394Y-133129179D01*
X135519737Y-132983497D01*
X135550500Y-132828842D01*
X135550500Y-132671158D01*
X135550500Y-132671155D01*
X135550499Y-132671153D01*
X135519737Y-132516503D01*
X135477999Y-132415738D01*
X135459397Y-132370827D01*
X135459390Y-132370814D01*
X135371789Y-132239711D01*
X135371786Y-132239707D01*
X135260292Y-132128213D01*
X135260288Y-132128210D01*
X135129185Y-132040609D01*
X135129172Y-132040602D01*
X134983501Y-131980264D01*
X134983489Y-131980261D01*
X134828845Y-131949500D01*
X134828842Y-131949500D01*
X134671158Y-131949500D01*
X134671155Y-131949500D01*
X134516510Y-131980261D01*
X134516503Y-131980263D01*
X134431848Y-132015327D01*
X134362379Y-132022794D01*
X134315507Y-132003868D01*
X134311837Y-132001416D01*
X134290581Y-131987213D01*
X134290578Y-131987211D01*
X134290573Y-131987209D01*
X134144903Y-131926871D01*
X134144891Y-131926868D01*
X133990247Y-131896107D01*
X133990244Y-131896107D01*
X133832560Y-131896107D01*
X133832557Y-131896107D01*
X133677912Y-131926868D01*
X133677900Y-131926871D01*
X133541773Y-131983256D01*
X133472303Y-131990725D01*
X133446869Y-131983256D01*
X133345030Y-131941073D01*
X133345018Y-131941070D01*
X133190374Y-131910309D01*
X133190371Y-131910309D01*
X133032687Y-131910309D01*
X133032684Y-131910309D01*
X132878039Y-131941070D01*
X132878027Y-131941073D01*
X132732357Y-132001411D01*
X132732348Y-132001416D01*
X132711767Y-132015168D01*
X132645089Y-132036044D01*
X132595426Y-132026625D01*
X132483497Y-131980263D01*
X132483489Y-131980261D01*
X132328845Y-131949500D01*
X132328842Y-131949500D01*
X132171158Y-131949500D01*
X132171155Y-131949500D01*
X132016510Y-131980261D01*
X132016498Y-131980264D01*
X131870827Y-132040602D01*
X131870814Y-132040609D01*
X131739711Y-132128210D01*
X131739707Y-132128213D01*
X131628213Y-132239707D01*
X131628210Y-132239711D01*
X131540609Y-132370814D01*
X131540602Y-132370827D01*
X131480264Y-132516498D01*
X131480261Y-132516510D01*
X131449500Y-132671153D01*
X131449500Y-132828846D01*
X131480261Y-132983489D01*
X131480264Y-132983501D01*
X131510862Y-133057372D01*
X131518331Y-133126842D01*
X131487055Y-133189321D01*
X131426966Y-133224972D01*
X131369177Y-133223681D01*
X131368827Y-133225445D01*
X131208200Y-133193494D01*
X131208197Y-133193494D01*
X131050513Y-133193494D01*
X131050510Y-133193494D01*
X130895865Y-133224255D01*
X130895853Y-133224258D01*
X130750182Y-133284596D01*
X130750169Y-133284603D01*
X130619066Y-133372204D01*
X130619062Y-133372207D01*
X130507568Y-133483701D01*
X130507565Y-133483705D01*
X130419964Y-133614808D01*
X130419957Y-133614821D01*
X130359619Y-133760492D01*
X130359616Y-133760502D01*
X130328773Y-133915561D01*
X130296388Y-133977472D01*
X130276047Y-133994471D01*
X130193504Y-134049624D01*
X130193500Y-134049627D01*
X130082006Y-134161121D01*
X130082003Y-134161125D01*
X129994402Y-134292228D01*
X129994395Y-134292241D01*
X129934057Y-134437912D01*
X129934054Y-134437924D01*
X129903293Y-134592567D01*
X129903293Y-134750260D01*
X129934054Y-134904903D01*
X129934057Y-134904915D01*
X129994395Y-135050586D01*
X129994402Y-135050599D01*
X130082003Y-135181702D01*
X130082006Y-135181706D01*
X130193500Y-135293200D01*
X130193504Y-135293203D01*
X130324607Y-135380804D01*
X130324611Y-135380806D01*
X130324614Y-135380808D01*
X130421846Y-135421082D01*
X130476246Y-135464921D01*
X130498312Y-135531215D01*
X130481033Y-135598914D01*
X130443282Y-135638744D01*
X130308072Y-135729089D01*
X130308068Y-135729092D01*
X130196574Y-135840586D01*
X130196571Y-135840590D01*
X130108970Y-135971693D01*
X130108963Y-135971706D01*
X130048625Y-136117377D01*
X130048622Y-136117389D01*
X130017861Y-136272032D01*
X130017861Y-136429725D01*
X130048622Y-136584368D01*
X130048625Y-136584380D01*
X130108963Y-136730051D01*
X130108970Y-136730064D01*
X130196571Y-136861167D01*
X130196574Y-136861171D01*
X130308068Y-136972665D01*
X130308072Y-136972668D01*
X130397178Y-137032207D01*
X130441983Y-137085819D01*
X130450690Y-137155144D01*
X130420536Y-137218171D01*
X130361093Y-137254891D01*
X130291234Y-137253644D01*
X130280836Y-137249871D01*
X130260711Y-137241535D01*
X130233497Y-137230263D01*
X130233493Y-137230262D01*
X130233489Y-137230261D01*
X130078845Y-137199500D01*
X130078842Y-137199500D01*
X129921158Y-137199500D01*
X129921155Y-137199500D01*
X129766510Y-137230261D01*
X129766498Y-137230264D01*
X129620827Y-137290602D01*
X129620814Y-137290609D01*
X129489711Y-137378210D01*
X129489707Y-137378213D01*
X129378213Y-137489707D01*
X129378210Y-137489711D01*
X129290609Y-137620814D01*
X129290602Y-137620827D01*
X129230264Y-137766498D01*
X129230261Y-137766510D01*
X129199500Y-137921153D01*
X124000500Y-137921153D01*
X124000500Y-135434110D01*
X124000500Y-135434108D01*
X123966392Y-135306814D01*
X123900500Y-135192686D01*
X123807314Y-135099500D01*
X123749083Y-135065880D01*
X123693187Y-135033608D01*
X123604291Y-135009789D01*
X123565892Y-134999500D01*
X111065892Y-134999500D01*
X110934108Y-134999500D01*
X110806812Y-135033608D01*
X110692686Y-135099500D01*
X110692683Y-135099502D01*
X110599502Y-135192683D01*
X110599500Y-135192686D01*
X110533608Y-135306812D01*
X110499500Y-135434108D01*
X110499500Y-136376000D01*
X110479815Y-136443039D01*
X110427011Y-136488794D01*
X110375500Y-136500000D01*
X104000000Y-136500000D01*
X104000000Y-139375500D01*
X103980315Y-139442539D01*
X103927511Y-139488294D01*
X103876000Y-139499500D01*
X102523144Y-139499500D01*
X102456105Y-139479815D01*
X102410350Y-139427011D01*
X102400406Y-139357853D01*
X102429431Y-139294297D01*
X102475691Y-139260939D01*
X102476606Y-139260559D01*
X102479179Y-139259494D01*
X102610289Y-139171889D01*
X102721789Y-139060389D01*
X102809394Y-138929279D01*
X102869737Y-138783597D01*
X102900500Y-138628942D01*
X102900500Y-138471258D01*
X102900500Y-138471255D01*
X102900499Y-138471253D01*
X102869738Y-138316610D01*
X102869737Y-138316603D01*
X102869735Y-138316598D01*
X102809397Y-138170927D01*
X102809390Y-138170914D01*
X102721789Y-138039811D01*
X102721786Y-138039807D01*
X102610292Y-137928313D01*
X102610288Y-137928310D01*
X102479185Y-137840709D01*
X102479172Y-137840702D01*
X102333501Y-137780364D01*
X102333489Y-137780361D01*
X102178845Y-137749600D01*
X102178842Y-137749600D01*
X102021158Y-137749600D01*
X102021155Y-137749600D01*
X101866510Y-137780361D01*
X101866498Y-137780364D01*
X101720827Y-137840702D01*
X101720814Y-137840709D01*
X101589711Y-137928310D01*
X101589707Y-137928313D01*
X101478213Y-138039807D01*
X101478210Y-138039811D01*
X101390609Y-138170914D01*
X101390602Y-138170927D01*
X101330264Y-138316598D01*
X101330261Y-138316610D01*
X101299500Y-138471253D01*
X101299500Y-138628946D01*
X101330261Y-138783589D01*
X101330264Y-138783601D01*
X101390602Y-138929272D01*
X101390609Y-138929285D01*
X101478210Y-139060388D01*
X101478213Y-139060392D01*
X101589707Y-139171886D01*
X101589711Y-139171889D01*
X101720814Y-139259490D01*
X101720818Y-139259492D01*
X101720821Y-139259494D01*
X101722597Y-139260229D01*
X101724309Y-139260939D01*
X101725853Y-139262183D01*
X101726191Y-139262364D01*
X101726156Y-139262428D01*
X101778712Y-139304780D01*
X101800777Y-139371074D01*
X101783498Y-139438774D01*
X101732360Y-139486384D01*
X101676856Y-139499500D01*
X100624500Y-139499500D01*
X100557461Y-139479815D01*
X100511706Y-139427011D01*
X100500500Y-139375500D01*
X100500500Y-135787533D01*
X101333120Y-135787533D01*
X101333120Y-135945226D01*
X101363881Y-136099869D01*
X101363884Y-136099881D01*
X101424222Y-136245552D01*
X101424229Y-136245565D01*
X101511830Y-136376668D01*
X101511833Y-136376672D01*
X101623327Y-136488166D01*
X101623331Y-136488169D01*
X101754434Y-136575770D01*
X101754447Y-136575777D01*
X101900118Y-136636115D01*
X101900123Y-136636117D01*
X102054773Y-136666879D01*
X102054776Y-136666880D01*
X102054778Y-136666880D01*
X102212464Y-136666880D01*
X102212465Y-136666879D01*
X102367117Y-136636117D01*
X102512799Y-136575774D01*
X102643909Y-136488169D01*
X102755409Y-136376669D01*
X102843014Y-136245559D01*
X102903357Y-136099877D01*
X102934120Y-135945222D01*
X102934120Y-135787538D01*
X102934120Y-135787535D01*
X102934119Y-135787533D01*
X102922462Y-135728932D01*
X102903357Y-135632883D01*
X102889287Y-135598914D01*
X102843017Y-135487207D01*
X102843010Y-135487194D01*
X102755409Y-135356091D01*
X102755406Y-135356087D01*
X102643912Y-135244593D01*
X102643908Y-135244590D01*
X102512805Y-135156989D01*
X102512792Y-135156982D01*
X102367121Y-135096644D01*
X102367109Y-135096641D01*
X102212465Y-135065880D01*
X102212462Y-135065880D01*
X102054778Y-135065880D01*
X102054775Y-135065880D01*
X101900130Y-135096641D01*
X101900118Y-135096644D01*
X101754447Y-135156982D01*
X101754434Y-135156989D01*
X101623331Y-135244590D01*
X101623327Y-135244593D01*
X101511833Y-135356087D01*
X101511830Y-135356091D01*
X101424229Y-135487194D01*
X101424222Y-135487207D01*
X101363884Y-135632878D01*
X101363881Y-135632890D01*
X101333120Y-135787533D01*
X100500500Y-135787533D01*
X100500500Y-132258047D01*
X101303633Y-132258047D01*
X101303633Y-132415740D01*
X101334394Y-132570383D01*
X101334397Y-132570395D01*
X101394735Y-132716066D01*
X101394742Y-132716079D01*
X101482343Y-132847182D01*
X101482346Y-132847186D01*
X101593840Y-132958680D01*
X101593844Y-132958683D01*
X101724947Y-133046284D01*
X101724960Y-133046291D01*
X101870631Y-133106629D01*
X101870636Y-133106631D01*
X101983977Y-133129176D01*
X102025286Y-133137393D01*
X102025289Y-133137394D01*
X102025291Y-133137394D01*
X102182977Y-133137394D01*
X102182978Y-133137393D01*
X102337630Y-133106631D01*
X102483312Y-133046288D01*
X102614422Y-132958683D01*
X102725922Y-132847183D01*
X102813527Y-132716073D01*
X102873870Y-132570391D01*
X102904633Y-132415736D01*
X102904633Y-132258052D01*
X102904633Y-132258049D01*
X102904632Y-132258047D01*
X102900984Y-132239707D01*
X102873870Y-132103397D01*
X102856949Y-132062546D01*
X102813530Y-131957721D01*
X102813523Y-131957708D01*
X102725922Y-131826605D01*
X102725919Y-131826601D01*
X102614425Y-131715107D01*
X102614421Y-131715104D01*
X102483318Y-131627503D01*
X102483305Y-131627496D01*
X102337634Y-131567158D01*
X102337622Y-131567155D01*
X102182978Y-131536394D01*
X102182975Y-131536394D01*
X102025291Y-131536394D01*
X102025288Y-131536394D01*
X101870643Y-131567155D01*
X101870631Y-131567158D01*
X101724960Y-131627496D01*
X101724947Y-131627503D01*
X101593844Y-131715104D01*
X101593840Y-131715107D01*
X101482346Y-131826601D01*
X101482343Y-131826605D01*
X101394742Y-131957708D01*
X101394735Y-131957721D01*
X101334397Y-132103392D01*
X101334394Y-132103404D01*
X101303633Y-132258047D01*
X100500500Y-132258047D01*
X100500500Y-128787533D01*
X101333120Y-128787533D01*
X101333120Y-128945226D01*
X101363881Y-129099869D01*
X101363884Y-129099881D01*
X101424222Y-129245552D01*
X101424229Y-129245565D01*
X101511830Y-129376668D01*
X101511833Y-129376672D01*
X101623327Y-129488166D01*
X101623331Y-129488169D01*
X101754434Y-129575770D01*
X101754447Y-129575777D01*
X101900118Y-129636115D01*
X101900123Y-129636117D01*
X102054773Y-129666879D01*
X102054776Y-129666880D01*
X102054778Y-129666880D01*
X102212464Y-129666880D01*
X102212465Y-129666879D01*
X102367117Y-129636117D01*
X102512799Y-129575774D01*
X102643909Y-129488169D01*
X102755409Y-129376669D01*
X102843014Y-129245559D01*
X102877108Y-129163245D01*
X102920946Y-129108845D01*
X102967472Y-129089084D01*
X103033497Y-129075952D01*
X103179179Y-129015609D01*
X103310289Y-128928004D01*
X103421789Y-128816504D01*
X103509394Y-128685394D01*
X103569737Y-128539712D01*
X103600500Y-128385057D01*
X103600500Y-128227373D01*
X103600500Y-128227370D01*
X103600499Y-128227368D01*
X103587162Y-128160320D01*
X103569737Y-128072718D01*
X103523019Y-127959930D01*
X103509397Y-127927042D01*
X103509390Y-127927029D01*
X103421789Y-127795926D01*
X103421786Y-127795922D01*
X103310292Y-127684428D01*
X103310288Y-127684425D01*
X103179185Y-127596824D01*
X103179172Y-127596817D01*
X103033501Y-127536479D01*
X103033489Y-127536476D01*
X102878845Y-127505715D01*
X102878842Y-127505715D01*
X102721158Y-127505715D01*
X102721155Y-127505715D01*
X102566510Y-127536476D01*
X102566498Y-127536479D01*
X102420827Y-127596817D01*
X102420814Y-127596824D01*
X102289711Y-127684425D01*
X102289707Y-127684428D01*
X102178213Y-127795922D01*
X102178210Y-127795926D01*
X102090609Y-127927029D01*
X102090606Y-127927036D01*
X102056511Y-128009347D01*
X102012669Y-128063750D01*
X101966142Y-128083510D01*
X101900128Y-128096641D01*
X101900118Y-128096644D01*
X101754447Y-128156982D01*
X101754434Y-128156989D01*
X101623331Y-128244590D01*
X101623327Y-128244593D01*
X101511833Y-128356087D01*
X101511830Y-128356091D01*
X101424229Y-128487194D01*
X101424222Y-128487207D01*
X101363884Y-128632878D01*
X101363881Y-128632890D01*
X101333120Y-128787533D01*
X100500500Y-128787533D01*
X100500500Y-124070000D01*
X102180138Y-124070000D01*
X102983012Y-124070000D01*
X102965795Y-124079940D01*
X102909940Y-124135795D01*
X102870444Y-124204204D01*
X102850000Y-124280504D01*
X102850000Y-124359496D01*
X102870444Y-124435796D01*
X102909940Y-124504205D01*
X102965795Y-124560060D01*
X102983012Y-124570000D01*
X102180138Y-124570000D01*
X102188430Y-124611690D01*
X102188430Y-124611692D01*
X102263807Y-124793671D01*
X102263814Y-124793684D01*
X102373248Y-124957462D01*
X102373251Y-124957466D01*
X102512533Y-125096748D01*
X102512537Y-125096751D01*
X102676315Y-125206185D01*
X102676328Y-125206192D01*
X102858306Y-125281569D01*
X102858318Y-125281572D01*
X103051504Y-125319999D01*
X103051508Y-125320000D01*
X103200000Y-125320000D01*
X103200000Y-124620000D01*
X103700000Y-124620000D01*
X103700000Y-125320000D01*
X103848492Y-125320000D01*
X103848495Y-125319999D01*
X104041681Y-125281572D01*
X104041693Y-125281569D01*
X104223671Y-125206192D01*
X104223684Y-125206185D01*
X104387462Y-125096751D01*
X104387466Y-125096748D01*
X104526748Y-124957466D01*
X104526751Y-124957462D01*
X104636185Y-124793684D01*
X104636192Y-124793671D01*
X104711569Y-124611692D01*
X104711569Y-124611690D01*
X104719862Y-124570000D01*
X103916988Y-124570000D01*
X103934205Y-124560060D01*
X103990060Y-124504205D01*
X104029556Y-124435796D01*
X104050000Y-124359496D01*
X104050000Y-124280504D01*
X104029556Y-124204204D01*
X103990060Y-124135795D01*
X103934205Y-124079940D01*
X103916988Y-124070000D01*
X104719862Y-124070000D01*
X106110138Y-124070000D01*
X106913012Y-124070000D01*
X106895795Y-124079940D01*
X106839940Y-124135795D01*
X106800444Y-124204204D01*
X106780000Y-124280504D01*
X106780000Y-124359496D01*
X106800444Y-124435796D01*
X106839940Y-124504205D01*
X106895795Y-124560060D01*
X106913012Y-124570000D01*
X106110138Y-124570000D01*
X106118430Y-124611690D01*
X106118430Y-124611692D01*
X106193807Y-124793671D01*
X106193814Y-124793684D01*
X106303248Y-124957462D01*
X106303251Y-124957466D01*
X106442533Y-125096748D01*
X106442537Y-125096751D01*
X106606315Y-125206185D01*
X106606328Y-125206192D01*
X106788306Y-125281569D01*
X106788318Y-125281572D01*
X106981504Y-125319999D01*
X106981508Y-125320000D01*
X107380000Y-125320000D01*
X107380000Y-124620000D01*
X107880000Y-124620000D01*
X107880000Y-125320000D01*
X108278492Y-125320000D01*
X108278495Y-125319999D01*
X108471681Y-125281572D01*
X108471693Y-125281569D01*
X108653671Y-125206192D01*
X108653684Y-125206185D01*
X108771328Y-125127577D01*
X112288475Y-125127577D01*
X112393736Y-125171178D01*
X112393740Y-125171179D01*
X112538626Y-125199999D01*
X112538629Y-125200000D01*
X112686371Y-125200000D01*
X112686373Y-125199999D01*
X112831260Y-125171179D01*
X112831275Y-125171175D01*
X112936524Y-125127578D01*
X112936524Y-125127577D01*
X112612501Y-124803554D01*
X112612500Y-124803554D01*
X112288475Y-125127577D01*
X108771328Y-125127577D01*
X108817462Y-125096751D01*
X108817466Y-125096748D01*
X108915133Y-124999082D01*
X108956748Y-124957466D01*
X108956751Y-124957462D01*
X109066185Y-124793684D01*
X109066192Y-124793671D01*
X109141569Y-124611692D01*
X109141569Y-124611690D01*
X109149862Y-124570000D01*
X108346988Y-124570000D01*
X108364205Y-124560060D01*
X108420060Y-124504205D01*
X108459556Y-124435796D01*
X108475544Y-124376126D01*
X111862500Y-124376126D01*
X111862500Y-124523873D01*
X111891320Y-124668759D01*
X111891322Y-124668767D01*
X111934921Y-124774024D01*
X112258946Y-124450000D01*
X112258946Y-124449999D01*
X112239056Y-124430109D01*
X112512500Y-124430109D01*
X112512500Y-124469891D01*
X112527724Y-124506645D01*
X112555855Y-124534776D01*
X112592609Y-124550000D01*
X112632391Y-124550000D01*
X112669145Y-124534776D01*
X112697276Y-124506645D01*
X112712500Y-124469891D01*
X112712500Y-124449999D01*
X112966054Y-124449999D01*
X112966054Y-124450001D01*
X113290077Y-124774024D01*
X113290078Y-124774024D01*
X113333675Y-124668775D01*
X113333679Y-124668760D01*
X113362499Y-124523873D01*
X113362500Y-124523871D01*
X113362500Y-124471153D01*
X114555537Y-124471153D01*
X114555537Y-124628846D01*
X114586298Y-124783489D01*
X114586301Y-124783501D01*
X114646639Y-124929172D01*
X114646646Y-124929185D01*
X114734247Y-125060288D01*
X114734250Y-125060292D01*
X114845744Y-125171786D01*
X114845748Y-125171789D01*
X114976851Y-125259390D01*
X114976864Y-125259397D01*
X115122535Y-125319735D01*
X115122540Y-125319737D01*
X115277190Y-125350499D01*
X115277193Y-125350500D01*
X115277195Y-125350500D01*
X115434881Y-125350500D01*
X115434882Y-125350499D01*
X115589534Y-125319737D01*
X115735216Y-125259394D01*
X115866326Y-125171789D01*
X115977826Y-125060289D01*
X116065431Y-124929179D01*
X116125774Y-124783497D01*
X116156537Y-124628842D01*
X116156537Y-124471158D01*
X116156537Y-124471155D01*
X116156536Y-124471153D01*
X116137634Y-124376126D01*
X116125774Y-124316503D01*
X116111535Y-124282127D01*
X116065434Y-124170827D01*
X116065427Y-124170814D01*
X115977826Y-124039711D01*
X115977823Y-124039707D01*
X115866329Y-123928213D01*
X115866325Y-123928210D01*
X115735222Y-123840609D01*
X115735209Y-123840602D01*
X115589538Y-123780264D01*
X115589526Y-123780261D01*
X115434882Y-123749500D01*
X115434879Y-123749500D01*
X115277195Y-123749500D01*
X115277192Y-123749500D01*
X115122547Y-123780261D01*
X115122535Y-123780264D01*
X114976864Y-123840602D01*
X114976851Y-123840609D01*
X114845748Y-123928210D01*
X114845744Y-123928213D01*
X114734250Y-124039707D01*
X114734247Y-124039711D01*
X114646646Y-124170814D01*
X114646639Y-124170827D01*
X114586301Y-124316498D01*
X114586298Y-124316510D01*
X114555537Y-124471153D01*
X113362500Y-124471153D01*
X113362500Y-124376128D01*
X113362499Y-124376126D01*
X113333679Y-124231240D01*
X113333678Y-124231236D01*
X113290077Y-124125975D01*
X112966054Y-124449999D01*
X112712500Y-124449999D01*
X112712500Y-124430109D01*
X112697276Y-124393355D01*
X112669145Y-124365224D01*
X112632391Y-124350000D01*
X112592609Y-124350000D01*
X112555855Y-124365224D01*
X112527724Y-124393355D01*
X112512500Y-124430109D01*
X112239056Y-124430109D01*
X111934921Y-124125974D01*
X111934920Y-124125974D01*
X111891323Y-124231228D01*
X111891320Y-124231240D01*
X111862500Y-124376126D01*
X108475544Y-124376126D01*
X108480000Y-124359496D01*
X108480000Y-124280504D01*
X108459556Y-124204204D01*
X108420060Y-124135795D01*
X108364205Y-124079940D01*
X108346988Y-124070000D01*
X109149862Y-124070000D01*
X109141569Y-124028309D01*
X109141569Y-124028307D01*
X109088424Y-123900000D01*
X112416054Y-123900000D01*
X112612500Y-124096446D01*
X112808946Y-123900000D01*
X112612500Y-123703554D01*
X112416054Y-123900000D01*
X109088424Y-123900000D01*
X109086804Y-123896090D01*
X109066192Y-123846328D01*
X109066185Y-123846315D01*
X108956751Y-123682537D01*
X108956748Y-123682533D01*
X108817466Y-123543251D01*
X108817462Y-123543248D01*
X108653684Y-123433814D01*
X108653671Y-123433807D01*
X108471693Y-123358430D01*
X108471681Y-123358427D01*
X108278495Y-123320000D01*
X107880000Y-123320000D01*
X107880000Y-124020000D01*
X107380000Y-124020000D01*
X107380000Y-123464463D01*
X107399685Y-123397424D01*
X107442000Y-123357076D01*
X107453365Y-123350515D01*
X107560515Y-123243365D01*
X107561372Y-123241879D01*
X107581721Y-123206637D01*
X107636279Y-123112138D01*
X107636281Y-123112135D01*
X107675500Y-122965766D01*
X107675500Y-122814234D01*
X107636281Y-122667865D01*
X107560515Y-122536635D01*
X107453365Y-122429485D01*
X107387750Y-122391602D01*
X107352332Y-122371153D01*
X109499500Y-122371153D01*
X109499500Y-122528846D01*
X109530261Y-122683489D01*
X109530264Y-122683501D01*
X109590602Y-122829172D01*
X109590609Y-122829185D01*
X109678210Y-122960288D01*
X109678213Y-122960292D01*
X109789707Y-123071786D01*
X109789711Y-123071789D01*
X109920814Y-123159390D01*
X109920827Y-123159397D01*
X110045306Y-123210957D01*
X110066503Y-123219737D01*
X110199973Y-123246286D01*
X110221153Y-123250499D01*
X110221156Y-123250500D01*
X110221158Y-123250500D01*
X110378844Y-123250500D01*
X110378845Y-123250499D01*
X110533497Y-123219737D01*
X110679179Y-123159394D01*
X110810289Y-123071789D01*
X110921789Y-122960289D01*
X111009394Y-122829179D01*
X111069737Y-122683497D01*
X111086423Y-122599610D01*
X111100445Y-122529121D01*
X111132830Y-122467210D01*
X111193546Y-122432636D01*
X111263315Y-122436375D01*
X111319987Y-122477242D01*
X111343679Y-122529120D01*
X111360511Y-122613741D01*
X111360514Y-122613751D01*
X111420852Y-122759422D01*
X111420859Y-122759435D01*
X111508460Y-122890538D01*
X111508463Y-122890542D01*
X111619957Y-123002036D01*
X111619961Y-123002039D01*
X111751064Y-123089640D01*
X111751068Y-123089642D01*
X111751071Y-123089644D01*
X111764731Y-123095302D01*
X111794270Y-123107538D01*
X111848673Y-123151379D01*
X111870738Y-123217674D01*
X111868435Y-123246286D01*
X111862500Y-123276126D01*
X111862500Y-123423873D01*
X111891320Y-123568759D01*
X111891322Y-123568767D01*
X111934921Y-123674024D01*
X112278836Y-123330109D01*
X112512500Y-123330109D01*
X112512500Y-123369891D01*
X112527724Y-123406645D01*
X112555855Y-123434776D01*
X112592609Y-123450000D01*
X112632391Y-123450000D01*
X112669145Y-123434776D01*
X112697276Y-123406645D01*
X112712500Y-123369891D01*
X112712500Y-123349999D01*
X112966054Y-123349999D01*
X112966054Y-123350001D01*
X113290077Y-123674024D01*
X113290078Y-123674024D01*
X113333675Y-123568775D01*
X113333679Y-123568760D01*
X113362499Y-123423873D01*
X113362500Y-123423871D01*
X113362500Y-123276128D01*
X113362499Y-123276126D01*
X113333679Y-123131240D01*
X113333678Y-123131236D01*
X113290077Y-123025975D01*
X112966054Y-123349999D01*
X112712500Y-123349999D01*
X112712500Y-123330109D01*
X112697276Y-123293355D01*
X112669145Y-123265224D01*
X112632391Y-123250000D01*
X112592609Y-123250000D01*
X112555855Y-123265224D01*
X112527724Y-123293355D01*
X112512500Y-123330109D01*
X112278836Y-123330109D01*
X112397988Y-123210957D01*
X112530546Y-123078398D01*
X112549327Y-123062984D01*
X112640539Y-123002039D01*
X112752039Y-122890539D01*
X112812987Y-122799323D01*
X112828399Y-122780544D01*
X112936524Y-122672420D01*
X112931933Y-122649340D01*
X112931595Y-122649068D01*
X112909535Y-122582773D01*
X112911839Y-122554163D01*
X112930750Y-122459094D01*
X112930750Y-122301405D01*
X112930749Y-122301403D01*
X112899987Y-122146753D01*
X112876958Y-122091156D01*
X112839647Y-122001077D01*
X112839640Y-122001064D01*
X112752039Y-121869961D01*
X112752036Y-121869957D01*
X112640542Y-121758463D01*
X112640538Y-121758460D01*
X112509435Y-121670859D01*
X112509422Y-121670852D01*
X112363751Y-121610514D01*
X112363739Y-121610511D01*
X112209095Y-121579750D01*
X112209092Y-121579750D01*
X112051408Y-121579750D01*
X112051405Y-121579750D01*
X111896760Y-121610511D01*
X111896748Y-121610514D01*
X111751077Y-121670852D01*
X111751064Y-121670859D01*
X111619961Y-121758460D01*
X111619957Y-121758463D01*
X111508463Y-121869957D01*
X111508460Y-121869961D01*
X111420859Y-122001064D01*
X111420852Y-122001077D01*
X111360514Y-122146748D01*
X111360511Y-122146758D01*
X111329804Y-122301129D01*
X111297419Y-122363040D01*
X111236703Y-122397614D01*
X111166933Y-122393873D01*
X111110261Y-122353007D01*
X111086570Y-122301128D01*
X111069738Y-122216509D01*
X111069737Y-122216503D01*
X111017817Y-122091156D01*
X111009397Y-122070827D01*
X111009390Y-122070814D01*
X110921789Y-121939711D01*
X110921786Y-121939707D01*
X110810292Y-121828213D01*
X110810288Y-121828210D01*
X110679185Y-121740609D01*
X110679172Y-121740602D01*
X110533501Y-121680264D01*
X110533489Y-121680261D01*
X110378845Y-121649500D01*
X110378842Y-121649500D01*
X110221158Y-121649500D01*
X110221155Y-121649500D01*
X110066510Y-121680261D01*
X110066498Y-121680264D01*
X109920827Y-121740602D01*
X109920814Y-121740609D01*
X109789711Y-121828210D01*
X109789707Y-121828213D01*
X109678213Y-121939707D01*
X109678210Y-121939711D01*
X109590609Y-122070814D01*
X109590602Y-122070827D01*
X109530264Y-122216498D01*
X109530261Y-122216510D01*
X109499500Y-122371153D01*
X107352332Y-122371153D01*
X107322136Y-122353719D01*
X107248950Y-122334109D01*
X107175766Y-122314500D01*
X107024234Y-122314500D01*
X106877863Y-122353719D01*
X106746635Y-122429485D01*
X106746632Y-122429487D01*
X106639487Y-122536632D01*
X106639485Y-122536635D01*
X106563719Y-122667863D01*
X106539185Y-122759429D01*
X106524500Y-122814234D01*
X106524500Y-122965766D01*
X106534219Y-123002039D01*
X106563719Y-123112136D01*
X106591002Y-123159390D01*
X106639485Y-123243365D01*
X106639487Y-123243367D01*
X106644432Y-123249811D01*
X106641612Y-123251974D01*
X106667302Y-123299020D01*
X106662318Y-123368712D01*
X106620446Y-123424645D01*
X106611379Y-123430416D01*
X106611387Y-123430427D01*
X106442536Y-123543248D01*
X106303251Y-123682533D01*
X106303248Y-123682537D01*
X106193814Y-123846315D01*
X106193807Y-123846328D01*
X106118430Y-124028307D01*
X106118430Y-124028309D01*
X106110138Y-124070000D01*
X104719862Y-124070000D01*
X104711569Y-124028309D01*
X104711569Y-124028307D01*
X104636192Y-123846328D01*
X104636185Y-123846315D01*
X104526751Y-123682537D01*
X104526748Y-123682533D01*
X104387466Y-123543251D01*
X104387462Y-123543248D01*
X104223684Y-123433814D01*
X104223671Y-123433807D01*
X104041693Y-123358430D01*
X104041681Y-123358427D01*
X103848495Y-123320000D01*
X103700000Y-123320000D01*
X103700000Y-124020000D01*
X103200000Y-124020000D01*
X103200000Y-123320000D01*
X103051504Y-123320000D01*
X102858318Y-123358427D01*
X102858306Y-123358430D01*
X102676328Y-123433807D01*
X102676315Y-123433814D01*
X102512537Y-123543248D01*
X102512533Y-123543251D01*
X102373251Y-123682533D01*
X102373248Y-123682537D01*
X102263814Y-123846315D01*
X102263807Y-123846328D01*
X102188430Y-124028307D01*
X102188430Y-124028309D01*
X102180138Y-124070000D01*
X100500500Y-124070000D01*
X100500500Y-119171153D01*
X114949500Y-119171153D01*
X114949500Y-119328846D01*
X114980261Y-119483489D01*
X114980264Y-119483501D01*
X115040602Y-119629172D01*
X115040609Y-119629185D01*
X115075304Y-119681109D01*
X115096182Y-119747786D01*
X115077698Y-119815167D01*
X115075304Y-119818891D01*
X115040609Y-119870814D01*
X115040602Y-119870827D01*
X114980264Y-120016498D01*
X114980261Y-120016510D01*
X114949500Y-120171153D01*
X114949500Y-120328846D01*
X114980261Y-120483489D01*
X114980264Y-120483501D01*
X115040602Y-120629172D01*
X115040609Y-120629185D01*
X115128210Y-120760288D01*
X115128213Y-120760292D01*
X115239707Y-120871786D01*
X115239711Y-120871789D01*
X115370814Y-120959390D01*
X115370827Y-120959397D01*
X115516498Y-121019735D01*
X115516503Y-121019737D01*
X115671153Y-121050499D01*
X115671156Y-121050500D01*
X115671158Y-121050500D01*
X115828844Y-121050500D01*
X115828845Y-121050499D01*
X115983497Y-121019737D01*
X116129179Y-120959394D01*
X116260289Y-120871789D01*
X116371789Y-120760289D01*
X116459394Y-120629179D01*
X116519737Y-120483497D01*
X116550500Y-120328842D01*
X116550500Y-120171158D01*
X116550500Y-120171155D01*
X116550499Y-120171153D01*
X116519737Y-120016503D01*
X116485608Y-119934108D01*
X116459396Y-119870825D01*
X116459394Y-119870822D01*
X116459394Y-119870821D01*
X116424694Y-119818889D01*
X116418721Y-119799814D01*
X116408214Y-119782804D01*
X116408493Y-119767152D01*
X116403816Y-119752215D01*
X116409104Y-119732935D01*
X116409305Y-119721722D01*
X124249500Y-119721722D01*
X124249500Y-119732325D01*
X124249500Y-120278278D01*
X124268071Y-120561615D01*
X124285900Y-120833646D01*
X124358544Y-121385433D01*
X124358546Y-121385444D01*
X124467120Y-121931279D01*
X124467130Y-121931319D01*
X124611169Y-122468881D01*
X124611173Y-122468896D01*
X124790069Y-122995903D01*
X124790073Y-122995914D01*
X125003055Y-123510099D01*
X125249211Y-124009255D01*
X125527484Y-124491237D01*
X125527500Y-124491262D01*
X125836695Y-124954005D01*
X126175498Y-125395542D01*
X126175503Y-125395547D01*
X126175504Y-125395549D01*
X126542467Y-125813989D01*
X126936011Y-126207533D01*
X127347488Y-126568390D01*
X127354457Y-126574501D01*
X127795994Y-126913304D01*
X128258737Y-127222499D01*
X128258762Y-127222515D01*
X128740744Y-127500788D01*
X129113124Y-127684425D01*
X129239904Y-127746946D01*
X129754094Y-127959930D01*
X130059938Y-128063750D01*
X130281103Y-128138826D01*
X130281108Y-128138827D01*
X130281113Y-128138829D01*
X130818704Y-128282876D01*
X131364565Y-128391455D01*
X131916359Y-128464100D01*
X132471722Y-128500500D01*
X132471733Y-128500500D01*
X133028267Y-128500500D01*
X133028278Y-128500500D01*
X133583641Y-128464100D01*
X134135435Y-128391455D01*
X134681296Y-128282876D01*
X135218887Y-128138829D01*
X135745906Y-127959930D01*
X136260096Y-127746946D01*
X136759255Y-127500788D01*
X137241246Y-127222510D01*
X137353285Y-127147648D01*
X138699500Y-127147648D01*
X138699500Y-127352351D01*
X138731522Y-127554534D01*
X138794781Y-127749223D01*
X138818576Y-127795922D01*
X138885385Y-127927042D01*
X138887715Y-127931613D01*
X139008028Y-128097213D01*
X139152786Y-128241971D01*
X139307749Y-128354556D01*
X139318390Y-128362287D01*
X139434607Y-128421503D01*
X139500776Y-128455218D01*
X139500778Y-128455218D01*
X139500781Y-128455220D01*
X139599187Y-128487194D01*
X139695465Y-128518477D01*
X139796557Y-128534488D01*
X139897648Y-128550500D01*
X139897649Y-128550500D01*
X140102351Y-128550500D01*
X140102352Y-128550500D01*
X140304534Y-128518477D01*
X140499219Y-128455220D01*
X140681610Y-128362287D01*
X140790911Y-128282876D01*
X140847213Y-128241971D01*
X140847215Y-128241968D01*
X140847219Y-128241966D01*
X140991966Y-128097219D01*
X140991968Y-128097215D01*
X140991971Y-128097213D01*
X141091714Y-127959926D01*
X141112287Y-127931610D01*
X141205220Y-127749219D01*
X141268477Y-127554534D01*
X141300500Y-127352352D01*
X141300500Y-127147648D01*
X141268477Y-126945466D01*
X141263008Y-126928635D01*
X141205218Y-126750776D01*
X141171503Y-126684607D01*
X141112287Y-126568390D01*
X141104556Y-126557749D01*
X140991971Y-126402786D01*
X140847213Y-126258028D01*
X140681613Y-126137715D01*
X140681612Y-126137714D01*
X140681610Y-126137713D01*
X140624653Y-126108691D01*
X140499223Y-126044781D01*
X140304534Y-125981522D01*
X140129995Y-125953878D01*
X140102352Y-125949500D01*
X139897648Y-125949500D01*
X139873329Y-125953351D01*
X139695465Y-125981522D01*
X139500776Y-126044781D01*
X139318386Y-126137715D01*
X139152786Y-126258028D01*
X139008028Y-126402786D01*
X138887715Y-126568386D01*
X138794781Y-126750776D01*
X138731522Y-126945465D01*
X138699500Y-127147648D01*
X137353285Y-127147648D01*
X137401069Y-127115720D01*
X137514880Y-127039674D01*
X137616752Y-126971604D01*
X137704004Y-126913305D01*
X138145549Y-126574496D01*
X138563989Y-126207533D01*
X138957533Y-125813989D01*
X139256710Y-125472844D01*
X161575000Y-125472844D01*
X161581401Y-125532372D01*
X161581403Y-125532379D01*
X161631645Y-125667086D01*
X161631649Y-125667093D01*
X161717809Y-125782187D01*
X161717812Y-125782190D01*
X161832906Y-125868350D01*
X161832913Y-125868354D01*
X161967620Y-125918596D01*
X161967627Y-125918598D01*
X162027155Y-125924999D01*
X162027172Y-125925000D01*
X162250000Y-125925000D01*
X162750000Y-125925000D01*
X162972828Y-125925000D01*
X162972844Y-125924999D01*
X163032372Y-125918598D01*
X163032379Y-125918596D01*
X163167086Y-125868354D01*
X163167093Y-125868350D01*
X163282187Y-125782190D01*
X163282190Y-125782187D01*
X163368350Y-125667093D01*
X163368354Y-125667086D01*
X163418596Y-125532379D01*
X163418598Y-125532372D01*
X163424999Y-125472844D01*
X163425000Y-125472827D01*
X163425000Y-125250000D01*
X162750000Y-125250000D01*
X162750000Y-125925000D01*
X162250000Y-125925000D01*
X162250000Y-125250000D01*
X161575000Y-125250000D01*
X161575000Y-125472844D01*
X139256710Y-125472844D01*
X139324496Y-125395549D01*
X139428971Y-125259394D01*
X139533514Y-125123152D01*
X139629999Y-124997408D01*
X139663305Y-124954004D01*
X139972510Y-124491246D01*
X140250788Y-124009255D01*
X140496946Y-123510096D01*
X140709930Y-122995906D01*
X140888829Y-122468887D01*
X141032876Y-121931296D01*
X141141455Y-121385435D01*
X141214100Y-120833641D01*
X141250500Y-120278278D01*
X141250500Y-119721722D01*
X141214100Y-119166359D01*
X141141455Y-118614565D01*
X141032876Y-118068704D01*
X140888829Y-117531113D01*
X140879142Y-117502577D01*
X140771599Y-117185765D01*
X140709930Y-117004094D01*
X140496946Y-116489904D01*
X140480597Y-116456751D01*
X140464651Y-116424415D01*
X140439789Y-116374000D01*
X152744500Y-116374000D01*
X152744500Y-119126000D01*
X152744501Y-119126009D01*
X152756052Y-119233450D01*
X152756054Y-119233462D01*
X152767260Y-119284972D01*
X152801383Y-119387497D01*
X152801386Y-119387503D01*
X152879171Y-119508537D01*
X152879179Y-119508548D01*
X152924923Y-119561340D01*
X152924926Y-119561343D01*
X152924930Y-119561347D01*
X153033664Y-119655567D01*
X153033667Y-119655568D01*
X153033668Y-119655569D01*
X153127925Y-119698616D01*
X153164541Y-119715338D01*
X153231580Y-119735023D01*
X153231584Y-119735024D01*
X153374000Y-119755500D01*
X153457467Y-119755500D01*
X153504919Y-119764938D01*
X153516503Y-119769737D01*
X153667709Y-119799814D01*
X153671153Y-119800499D01*
X153671156Y-119800500D01*
X153671158Y-119800500D01*
X153828844Y-119800500D01*
X153828845Y-119800499D01*
X153983497Y-119769737D01*
X153995080Y-119764938D01*
X154042533Y-119755500D01*
X154457467Y-119755500D01*
X154504919Y-119764938D01*
X154516503Y-119769737D01*
X154667709Y-119799814D01*
X154671153Y-119800499D01*
X154671156Y-119800500D01*
X154671158Y-119800500D01*
X154828844Y-119800500D01*
X154828845Y-119800499D01*
X154983497Y-119769737D01*
X154995080Y-119764938D01*
X155042533Y-119755500D01*
X155457467Y-119755500D01*
X155504919Y-119764938D01*
X155516503Y-119769737D01*
X155667709Y-119799814D01*
X155671153Y-119800499D01*
X155671156Y-119800500D01*
X155671158Y-119800500D01*
X155828844Y-119800500D01*
X155828845Y-119800499D01*
X155983497Y-119769737D01*
X155995080Y-119764938D01*
X156042533Y-119755500D01*
X156375990Y-119755500D01*
X156376000Y-119755500D01*
X156483456Y-119743947D01*
X156534967Y-119732741D01*
X156569197Y-119721347D01*
X156637497Y-119698616D01*
X156637501Y-119698613D01*
X156637504Y-119698613D01*
X156758543Y-119620825D01*
X156811347Y-119575070D01*
X156905567Y-119466336D01*
X156965338Y-119335459D01*
X156985023Y-119268420D01*
X156985024Y-119268416D01*
X157005500Y-119126000D01*
X157005500Y-116374000D01*
X156993947Y-116266544D01*
X156982741Y-116215033D01*
X156982637Y-116214722D01*
X156948616Y-116112502D01*
X156948613Y-116112496D01*
X156934897Y-116091154D01*
X156870825Y-115991457D01*
X156863921Y-115983489D01*
X156825076Y-115938659D01*
X156825072Y-115938656D01*
X156825070Y-115938653D01*
X156716336Y-115844433D01*
X156716333Y-115844431D01*
X156716331Y-115844430D01*
X156585465Y-115784664D01*
X156585460Y-115784662D01*
X156585459Y-115784662D01*
X156518420Y-115764977D01*
X156518422Y-115764977D01*
X156518417Y-115764976D01*
X156456347Y-115756052D01*
X156376000Y-115744500D01*
X153374000Y-115744500D01*
X153373991Y-115744500D01*
X153373990Y-115744501D01*
X153266549Y-115756052D01*
X153266537Y-115756054D01*
X153215027Y-115767260D01*
X153112502Y-115801383D01*
X153112496Y-115801386D01*
X152991462Y-115879171D01*
X152991451Y-115879179D01*
X152938659Y-115924923D01*
X152844433Y-116033664D01*
X152844430Y-116033668D01*
X152784664Y-116164534D01*
X152764976Y-116231582D01*
X152759459Y-116269958D01*
X152744500Y-116374000D01*
X140439789Y-116374000D01*
X140250788Y-115990744D01*
X139972515Y-115508762D01*
X139972499Y-115508737D01*
X139693480Y-115091156D01*
X161574499Y-115091156D01*
X161610065Y-115269952D01*
X161610067Y-115269958D01*
X161679835Y-115438394D01*
X161681525Y-115441556D01*
X161681908Y-115443399D01*
X161682164Y-115444016D01*
X161682047Y-115444064D01*
X161695761Y-115509960D01*
X161681525Y-115558444D01*
X161679835Y-115561605D01*
X161610067Y-115730041D01*
X161610065Y-115730047D01*
X161574500Y-115908843D01*
X161574500Y-115908846D01*
X161574500Y-116091154D01*
X161574500Y-116091156D01*
X161574499Y-116091156D01*
X161610065Y-116269952D01*
X161610067Y-116269958D01*
X161679835Y-116438394D01*
X161681525Y-116441556D01*
X161681908Y-116443399D01*
X161682164Y-116444016D01*
X161682047Y-116444064D01*
X161695761Y-116509960D01*
X161681525Y-116558444D01*
X161679835Y-116561605D01*
X161610067Y-116730041D01*
X161610065Y-116730047D01*
X161574500Y-116908843D01*
X161574500Y-116908846D01*
X161574500Y-117091154D01*
X161574500Y-117091156D01*
X161574499Y-117091156D01*
X161610065Y-117269952D01*
X161610067Y-117269958D01*
X161679835Y-117438394D01*
X161681525Y-117441556D01*
X161681908Y-117443399D01*
X161682164Y-117444016D01*
X161682047Y-117444064D01*
X161695761Y-117509960D01*
X161681525Y-117558444D01*
X161679835Y-117561605D01*
X161610067Y-117730041D01*
X161610065Y-117730047D01*
X161574500Y-117908843D01*
X161574500Y-117908846D01*
X161574500Y-118091154D01*
X161574500Y-118091156D01*
X161574499Y-118091156D01*
X161610065Y-118269952D01*
X161610067Y-118269958D01*
X161679835Y-118438394D01*
X161681525Y-118441556D01*
X161681908Y-118443399D01*
X161682164Y-118444016D01*
X161682047Y-118444064D01*
X161695761Y-118509960D01*
X161681525Y-118558444D01*
X161679835Y-118561605D01*
X161610067Y-118730041D01*
X161610065Y-118730047D01*
X161574500Y-118908843D01*
X161574500Y-118908846D01*
X161574500Y-119091154D01*
X161574500Y-119091156D01*
X161574499Y-119091156D01*
X161610065Y-119269952D01*
X161610067Y-119269958D01*
X161679835Y-119438394D01*
X161681525Y-119441556D01*
X161681908Y-119443399D01*
X161682164Y-119444016D01*
X161682047Y-119444064D01*
X161695761Y-119509960D01*
X161681525Y-119558444D01*
X161679835Y-119561605D01*
X161610067Y-119730041D01*
X161610065Y-119730047D01*
X161574500Y-119908843D01*
X161574500Y-119908846D01*
X161574500Y-120091154D01*
X161574500Y-120091156D01*
X161574499Y-120091156D01*
X161610065Y-120269952D01*
X161610067Y-120269958D01*
X161679835Y-120438394D01*
X161681525Y-120441556D01*
X161681908Y-120443399D01*
X161682164Y-120444016D01*
X161682047Y-120444064D01*
X161695761Y-120509960D01*
X161681525Y-120558444D01*
X161679835Y-120561605D01*
X161610067Y-120730041D01*
X161610065Y-120730047D01*
X161574500Y-120908843D01*
X161574500Y-120908846D01*
X161574500Y-121091154D01*
X161574500Y-121091156D01*
X161574499Y-121091156D01*
X161610065Y-121269952D01*
X161610067Y-121269958D01*
X161679835Y-121438394D01*
X161681525Y-121441556D01*
X161681908Y-121443399D01*
X161682164Y-121444016D01*
X161682047Y-121444064D01*
X161695761Y-121509960D01*
X161681525Y-121558444D01*
X161679835Y-121561605D01*
X161610067Y-121730041D01*
X161610065Y-121730047D01*
X161574500Y-121908843D01*
X161574500Y-121908846D01*
X161574500Y-122091154D01*
X161574500Y-122091156D01*
X161574499Y-122091156D01*
X161610065Y-122269952D01*
X161610067Y-122269958D01*
X161679835Y-122438394D01*
X161681525Y-122441556D01*
X161681908Y-122443399D01*
X161682164Y-122444016D01*
X161682047Y-122444064D01*
X161695761Y-122509960D01*
X161681525Y-122558444D01*
X161679835Y-122561605D01*
X161610067Y-122730041D01*
X161610065Y-122730047D01*
X161574500Y-122908843D01*
X161574500Y-122908846D01*
X161574500Y-123091154D01*
X161574500Y-123091156D01*
X161574499Y-123091156D01*
X161610065Y-123269952D01*
X161610067Y-123269958D01*
X161679835Y-123438394D01*
X161681525Y-123441556D01*
X161681908Y-123443399D01*
X161682164Y-123444016D01*
X161682047Y-123444064D01*
X161695761Y-123509960D01*
X161681525Y-123558444D01*
X161679835Y-123561605D01*
X161610067Y-123730041D01*
X161610065Y-123730047D01*
X161574500Y-123908843D01*
X161574500Y-123908846D01*
X161574500Y-124091154D01*
X161574500Y-124091156D01*
X161574499Y-124091156D01*
X161610065Y-124269952D01*
X161610068Y-124269962D01*
X161615107Y-124282127D01*
X161622574Y-124351597D01*
X161616727Y-124372909D01*
X161581403Y-124467616D01*
X161581401Y-124467627D01*
X161575000Y-124527155D01*
X161575000Y-124750000D01*
X161918984Y-124750000D01*
X161986023Y-124769685D01*
X161987842Y-124770876D01*
X162061611Y-124820167D01*
X162230042Y-124889933D01*
X162230046Y-124889933D01*
X162230047Y-124889934D01*
X162271571Y-124898193D01*
X162250000Y-124950272D01*
X162250000Y-125049728D01*
X162288060Y-125141614D01*
X162358386Y-125211940D01*
X162450272Y-125250000D01*
X162549728Y-125250000D01*
X162641614Y-125211940D01*
X162711940Y-125141614D01*
X162750000Y-125049728D01*
X162750000Y-124950272D01*
X162728428Y-124898193D01*
X162769958Y-124889933D01*
X162938389Y-124820167D01*
X163012126Y-124770897D01*
X163078803Y-124750020D01*
X163081016Y-124750000D01*
X163425000Y-124750000D01*
X163425000Y-124527172D01*
X163424999Y-124527155D01*
X163418598Y-124467627D01*
X163418597Y-124467623D01*
X163383272Y-124372912D01*
X163378288Y-124303220D01*
X163384894Y-124282123D01*
X163389931Y-124269962D01*
X163389933Y-124269958D01*
X163397635Y-124231240D01*
X163425500Y-124091156D01*
X163425500Y-123908843D01*
X163389934Y-123730047D01*
X163389933Y-123730046D01*
X163389933Y-123730042D01*
X163366730Y-123674024D01*
X163320169Y-123561615D01*
X163318482Y-123558459D01*
X163318097Y-123556613D01*
X163317836Y-123555982D01*
X163317955Y-123555932D01*
X163304236Y-123490057D01*
X163318482Y-123441541D01*
X163320163Y-123438394D01*
X163320167Y-123438389D01*
X163389933Y-123269958D01*
X163407678Y-123180750D01*
X163425500Y-123091156D01*
X163425500Y-122908843D01*
X163389934Y-122730047D01*
X163389933Y-122730046D01*
X163389933Y-122730042D01*
X163364178Y-122667863D01*
X163320169Y-122561615D01*
X163318482Y-122558459D01*
X163318097Y-122556613D01*
X163317836Y-122555982D01*
X163317955Y-122555932D01*
X163304236Y-122490057D01*
X163318482Y-122441541D01*
X163320163Y-122438394D01*
X163320167Y-122438389D01*
X163389933Y-122269958D01*
X163414439Y-122146760D01*
X163425500Y-122091156D01*
X163425500Y-121908843D01*
X163389934Y-121730047D01*
X163389933Y-121730046D01*
X163389933Y-121730042D01*
X163389931Y-121730037D01*
X163320169Y-121561615D01*
X163318482Y-121558459D01*
X163318097Y-121556613D01*
X163317836Y-121555982D01*
X163317955Y-121555932D01*
X163304236Y-121490057D01*
X163318482Y-121441541D01*
X163320163Y-121438394D01*
X163320167Y-121438389D01*
X163389933Y-121269958D01*
X163425500Y-121091154D01*
X163425500Y-120908846D01*
X163425500Y-120908843D01*
X163389934Y-120730047D01*
X163389933Y-120730046D01*
X163389933Y-120730042D01*
X163348157Y-120629185D01*
X163320169Y-120561615D01*
X163318482Y-120558459D01*
X163318097Y-120556613D01*
X163317836Y-120555982D01*
X163317955Y-120555932D01*
X163304236Y-120490057D01*
X163318482Y-120441541D01*
X163320163Y-120438394D01*
X163320167Y-120438389D01*
X163389933Y-120269958D01*
X163425500Y-120091154D01*
X163425500Y-119908846D01*
X163425500Y-119908843D01*
X163389934Y-119730047D01*
X163389933Y-119730046D01*
X163389933Y-119730042D01*
X163386487Y-119721722D01*
X163320169Y-119561615D01*
X163318482Y-119558459D01*
X163318097Y-119556613D01*
X163317836Y-119555982D01*
X163317955Y-119555932D01*
X163304236Y-119490057D01*
X163318482Y-119441541D01*
X163320163Y-119438394D01*
X163320167Y-119438389D01*
X163389933Y-119269958D01*
X163425500Y-119091154D01*
X163425500Y-118908846D01*
X163425500Y-118908843D01*
X163389934Y-118730047D01*
X163389933Y-118730046D01*
X163389933Y-118730042D01*
X163364417Y-118668440D01*
X163320169Y-118561615D01*
X163318482Y-118558459D01*
X163318097Y-118556613D01*
X163317836Y-118555982D01*
X163317955Y-118555932D01*
X163304236Y-118490057D01*
X163318482Y-118441541D01*
X163320163Y-118438394D01*
X163320167Y-118438389D01*
X163389933Y-118269958D01*
X163414725Y-118145325D01*
X163425500Y-118091156D01*
X163425500Y-117908843D01*
X163389934Y-117730047D01*
X163389933Y-117730046D01*
X163389933Y-117730042D01*
X163355238Y-117646280D01*
X163320169Y-117561615D01*
X163318482Y-117558459D01*
X163318097Y-117556613D01*
X163317836Y-117555982D01*
X163317955Y-117555932D01*
X163304236Y-117490057D01*
X163318482Y-117441541D01*
X163320163Y-117438394D01*
X163320167Y-117438389D01*
X163389933Y-117269958D01*
X163425500Y-117091154D01*
X163425500Y-116908846D01*
X163425500Y-116908843D01*
X163389934Y-116730047D01*
X163389933Y-116730046D01*
X163389933Y-116730042D01*
X163356566Y-116649487D01*
X163320169Y-116561615D01*
X163318482Y-116558459D01*
X163318097Y-116556613D01*
X163317836Y-116555982D01*
X163317955Y-116555932D01*
X163304236Y-116490057D01*
X163318482Y-116441541D01*
X163320163Y-116438394D01*
X163320167Y-116438389D01*
X163389933Y-116269958D01*
X163410904Y-116164534D01*
X163425500Y-116091156D01*
X163425500Y-115908843D01*
X163389934Y-115730047D01*
X163389933Y-115730046D01*
X163389933Y-115730042D01*
X163385565Y-115719496D01*
X163320169Y-115561615D01*
X163318482Y-115558459D01*
X163318097Y-115556613D01*
X163317836Y-115555982D01*
X163317955Y-115555932D01*
X163304236Y-115490057D01*
X163318482Y-115441541D01*
X163320163Y-115438394D01*
X163320167Y-115438389D01*
X163389933Y-115269958D01*
X163408897Y-115174621D01*
X163425500Y-115091156D01*
X163425500Y-114908843D01*
X163389934Y-114730047D01*
X163389933Y-114730046D01*
X163389933Y-114730042D01*
X163369205Y-114680000D01*
X163320168Y-114561612D01*
X163320166Y-114561608D01*
X163218886Y-114410032D01*
X163218880Y-114410024D01*
X163089975Y-114281119D01*
X163089967Y-114281113D01*
X162938391Y-114179833D01*
X162938387Y-114179831D01*
X162769962Y-114110068D01*
X162769952Y-114110065D01*
X162591156Y-114074500D01*
X162591154Y-114074500D01*
X162408846Y-114074500D01*
X162408844Y-114074500D01*
X162230047Y-114110065D01*
X162230037Y-114110068D01*
X162061612Y-114179831D01*
X162061608Y-114179833D01*
X161910032Y-114281113D01*
X161910024Y-114281119D01*
X161781119Y-114410024D01*
X161781113Y-114410032D01*
X161679833Y-114561608D01*
X161679831Y-114561612D01*
X161610068Y-114730037D01*
X161610065Y-114730047D01*
X161574500Y-114908843D01*
X161574500Y-114908846D01*
X161574500Y-115091154D01*
X161574500Y-115091156D01*
X161574499Y-115091156D01*
X139693480Y-115091156D01*
X139663309Y-115046002D01*
X139663305Y-115045996D01*
X139589261Y-114949500D01*
X139324501Y-114604457D01*
X139286923Y-114561608D01*
X139135299Y-114388714D01*
X138957535Y-114186013D01*
X138563986Y-113792464D01*
X138259934Y-113525817D01*
X138145549Y-113425504D01*
X138145547Y-113425503D01*
X138145542Y-113425498D01*
X137704005Y-113086695D01*
X137241262Y-112777500D01*
X137241237Y-112777484D01*
X136997693Y-112636874D01*
X136900655Y-112580849D01*
X161522702Y-112580849D01*
X161522702Y-112580850D01*
X161680267Y-112738415D01*
X161726898Y-112775992D01*
X161726905Y-112775997D01*
X161857678Y-112835719D01*
X161857686Y-112835721D01*
X162000000Y-112856181D01*
X162142313Y-112835721D01*
X162142321Y-112835719D01*
X162273094Y-112775997D01*
X162273101Y-112775992D01*
X162319732Y-112738415D01*
X162477297Y-112580850D01*
X162477297Y-112580849D01*
X162000001Y-112103553D01*
X162000000Y-112103553D01*
X161522702Y-112580849D01*
X136900655Y-112580849D01*
X136759255Y-112499211D01*
X136260099Y-112253055D01*
X135745914Y-112040073D01*
X135745903Y-112040069D01*
X135218896Y-111861173D01*
X135218881Y-111861169D01*
X134681319Y-111717130D01*
X134681309Y-111717127D01*
X134681296Y-111717124D01*
X134681291Y-111717123D01*
X134681279Y-111717120D01*
X134135444Y-111608546D01*
X134135433Y-111608544D01*
X133583646Y-111535900D01*
X133410090Y-111524525D01*
X133028278Y-111499500D01*
X132471722Y-111499500D01*
X132112369Y-111523052D01*
X131916353Y-111535900D01*
X131364566Y-111608544D01*
X131364555Y-111608546D01*
X130818720Y-111717120D01*
X130818680Y-111717130D01*
X130281118Y-111861169D01*
X130281103Y-111861173D01*
X129754096Y-112040069D01*
X129754085Y-112040073D01*
X129239900Y-112253055D01*
X128740744Y-112499211D01*
X128258762Y-112777484D01*
X128258737Y-112777500D01*
X127795994Y-113086695D01*
X127354457Y-113425498D01*
X126936013Y-113792464D01*
X126542464Y-114186013D01*
X126175498Y-114604457D01*
X125836695Y-115045994D01*
X125527500Y-115508737D01*
X125527484Y-115508762D01*
X125249211Y-115990744D01*
X125003055Y-116489900D01*
X124790073Y-117004085D01*
X124790069Y-117004096D01*
X124611173Y-117531103D01*
X124611169Y-117531118D01*
X124467130Y-118068680D01*
X124467120Y-118068720D01*
X124358546Y-118614555D01*
X124358544Y-118614566D01*
X124285900Y-119166353D01*
X124278126Y-119284967D01*
X124249500Y-119721722D01*
X116409305Y-119721722D01*
X116409462Y-119712946D01*
X116421477Y-119687832D01*
X116422300Y-119684835D01*
X116424676Y-119681136D01*
X116459394Y-119629179D01*
X116519737Y-119483497D01*
X116550500Y-119328842D01*
X116550500Y-119171158D01*
X116550500Y-119171155D01*
X116550499Y-119171153D01*
X116541515Y-119125990D01*
X116519737Y-119016503D01*
X116519735Y-119016498D01*
X116459397Y-118870827D01*
X116459390Y-118870814D01*
X116371789Y-118739711D01*
X116371786Y-118739707D01*
X116260292Y-118628213D01*
X116260288Y-118628210D01*
X116129185Y-118540609D01*
X116129172Y-118540602D01*
X115983501Y-118480264D01*
X115983489Y-118480261D01*
X115828845Y-118449500D01*
X115828842Y-118449500D01*
X115671158Y-118449500D01*
X115671155Y-118449500D01*
X115516510Y-118480261D01*
X115516498Y-118480264D01*
X115370827Y-118540602D01*
X115370814Y-118540609D01*
X115239711Y-118628210D01*
X115239707Y-118628213D01*
X115128213Y-118739707D01*
X115128210Y-118739711D01*
X115040609Y-118870814D01*
X115040602Y-118870827D01*
X114980264Y-119016498D01*
X114980261Y-119016510D01*
X114949500Y-119171153D01*
X100500500Y-119171153D01*
X100500500Y-115430000D01*
X102180138Y-115430000D01*
X102983012Y-115430000D01*
X102965795Y-115439940D01*
X102909940Y-115495795D01*
X102870444Y-115564204D01*
X102850000Y-115640504D01*
X102850000Y-115719496D01*
X102870444Y-115795796D01*
X102909940Y-115864205D01*
X102965795Y-115920060D01*
X102983012Y-115930000D01*
X102180138Y-115930000D01*
X102188430Y-115971690D01*
X102188430Y-115971692D01*
X102263807Y-116153671D01*
X102263814Y-116153684D01*
X102373248Y-116317462D01*
X102373251Y-116317466D01*
X102512533Y-116456748D01*
X102512537Y-116456751D01*
X102676315Y-116566185D01*
X102676328Y-116566192D01*
X102858306Y-116641569D01*
X102858318Y-116641572D01*
X103051504Y-116679999D01*
X103051508Y-116680000D01*
X103200000Y-116680000D01*
X103200000Y-115980000D01*
X103700000Y-115980000D01*
X103700000Y-116680000D01*
X103848492Y-116680000D01*
X103848495Y-116679999D01*
X104041681Y-116641572D01*
X104041693Y-116641569D01*
X104223671Y-116566192D01*
X104223684Y-116566185D01*
X104387462Y-116456751D01*
X104387466Y-116456748D01*
X104526748Y-116317466D01*
X104526751Y-116317462D01*
X104636185Y-116153684D01*
X104636192Y-116153671D01*
X104711569Y-115971692D01*
X104711569Y-115971690D01*
X104719862Y-115930000D01*
X103916988Y-115930000D01*
X103934205Y-115920060D01*
X103990060Y-115864205D01*
X104029556Y-115795796D01*
X104050000Y-115719496D01*
X104050000Y-115640504D01*
X104029556Y-115564204D01*
X103990060Y-115495795D01*
X103934205Y-115439940D01*
X103916988Y-115430000D01*
X104719862Y-115430000D01*
X106110138Y-115430000D01*
X106913012Y-115430000D01*
X106895795Y-115439940D01*
X106839940Y-115495795D01*
X106800444Y-115564204D01*
X106780000Y-115640504D01*
X106780000Y-115719496D01*
X106800444Y-115795796D01*
X106839940Y-115864205D01*
X106895795Y-115920060D01*
X106913012Y-115930000D01*
X106110138Y-115930000D01*
X106118430Y-115971690D01*
X106118430Y-115971692D01*
X106193807Y-116153671D01*
X106193814Y-116153684D01*
X106303248Y-116317462D01*
X106303251Y-116317466D01*
X106442533Y-116456748D01*
X106442537Y-116456751D01*
X106611387Y-116569574D01*
X106610430Y-116571005D01*
X106654425Y-116614211D01*
X106669895Y-116682346D01*
X106646072Y-116748029D01*
X106644309Y-116750094D01*
X106644432Y-116750189D01*
X106639485Y-116756635D01*
X106563719Y-116887863D01*
X106524500Y-117034234D01*
X106524500Y-117185765D01*
X106563719Y-117332136D01*
X106575803Y-117353065D01*
X106639485Y-117463365D01*
X106746635Y-117570515D01*
X106877865Y-117646281D01*
X107024234Y-117685500D01*
X107024236Y-117685500D01*
X107175764Y-117685500D01*
X107175766Y-117685500D01*
X107322135Y-117646281D01*
X107453365Y-117570515D01*
X107560515Y-117463365D01*
X107584886Y-117421153D01*
X108794100Y-117421153D01*
X108794100Y-117578846D01*
X108824861Y-117733489D01*
X108824864Y-117733501D01*
X108885202Y-117879172D01*
X108885209Y-117879185D01*
X108972810Y-118010288D01*
X108972813Y-118010292D01*
X109084307Y-118121786D01*
X109084311Y-118121789D01*
X109215414Y-118209390D01*
X109215427Y-118209397D01*
X109361098Y-118269735D01*
X109361103Y-118269737D01*
X109515753Y-118300499D01*
X109515756Y-118300500D01*
X109515758Y-118300500D01*
X109673444Y-118300500D01*
X109673445Y-118300499D01*
X109828097Y-118269737D01*
X109973779Y-118209394D01*
X110104889Y-118121789D01*
X110216389Y-118010289D01*
X110303994Y-117879179D01*
X110364337Y-117733497D01*
X110395100Y-117578842D01*
X110395100Y-117502577D01*
X115175975Y-117502577D01*
X115281236Y-117546178D01*
X115281240Y-117546179D01*
X115426126Y-117574999D01*
X115426129Y-117575000D01*
X115573871Y-117575000D01*
X115573873Y-117574999D01*
X115718760Y-117546179D01*
X115718775Y-117546175D01*
X115824024Y-117502578D01*
X115824024Y-117502577D01*
X115500001Y-117178554D01*
X115500000Y-117178554D01*
X115175975Y-117502577D01*
X110395100Y-117502577D01*
X110395100Y-117421158D01*
X110395100Y-117421155D01*
X110395099Y-117421153D01*
X110381555Y-117353063D01*
X110364337Y-117266503D01*
X110330895Y-117185766D01*
X110303997Y-117120827D01*
X110303990Y-117120814D01*
X110216389Y-116989711D01*
X110216386Y-116989707D01*
X110104892Y-116878213D01*
X110104888Y-116878210D01*
X110059887Y-116848141D01*
X109973785Y-116790609D01*
X109973772Y-116790602D01*
X109878467Y-116751126D01*
X114750000Y-116751126D01*
X114750000Y-116898873D01*
X114778820Y-117043759D01*
X114778822Y-117043767D01*
X114822421Y-117149024D01*
X115146446Y-116825000D01*
X115146446Y-116824999D01*
X115126556Y-116805109D01*
X115400000Y-116805109D01*
X115400000Y-116844891D01*
X115415224Y-116881645D01*
X115443355Y-116909776D01*
X115480109Y-116925000D01*
X115519891Y-116925000D01*
X115556645Y-116909776D01*
X115584776Y-116881645D01*
X115600000Y-116844891D01*
X115600000Y-116824999D01*
X115853554Y-116824999D01*
X115853554Y-116825001D01*
X116177577Y-117149024D01*
X116177578Y-117149024D01*
X116221175Y-117043775D01*
X116221179Y-117043760D01*
X116249999Y-116898873D01*
X116250000Y-116898871D01*
X116250000Y-116751128D01*
X116249999Y-116751126D01*
X116221179Y-116606240D01*
X116221178Y-116606236D01*
X116177577Y-116500975D01*
X115853554Y-116824999D01*
X115600000Y-116824999D01*
X115600000Y-116805109D01*
X115584776Y-116768355D01*
X115556645Y-116740224D01*
X115519891Y-116725000D01*
X115480109Y-116725000D01*
X115443355Y-116740224D01*
X115415224Y-116768355D01*
X115400000Y-116805109D01*
X115126556Y-116805109D01*
X114822421Y-116500974D01*
X114822420Y-116500974D01*
X114778823Y-116606228D01*
X114778820Y-116606240D01*
X114750000Y-116751126D01*
X109878467Y-116751126D01*
X109828101Y-116730264D01*
X109828089Y-116730261D01*
X109673445Y-116699500D01*
X109673442Y-116699500D01*
X109515758Y-116699500D01*
X109515755Y-116699500D01*
X109361110Y-116730261D01*
X109361098Y-116730264D01*
X109215427Y-116790602D01*
X109215414Y-116790609D01*
X109084311Y-116878210D01*
X109084307Y-116878213D01*
X108972813Y-116989707D01*
X108972810Y-116989711D01*
X108885209Y-117120814D01*
X108885202Y-117120827D01*
X108824864Y-117266498D01*
X108824861Y-117266510D01*
X108794100Y-117421153D01*
X107584886Y-117421153D01*
X107636281Y-117332135D01*
X107675500Y-117185766D01*
X107675500Y-117034234D01*
X107636281Y-116887865D01*
X107560515Y-116756635D01*
X107453365Y-116649485D01*
X107446860Y-116645729D01*
X107441998Y-116642922D01*
X107393783Y-116592354D01*
X107380000Y-116535536D01*
X107380000Y-115980000D01*
X107880000Y-115980000D01*
X107880000Y-116680000D01*
X108278492Y-116680000D01*
X108278495Y-116679999D01*
X108471681Y-116641572D01*
X108471693Y-116641569D01*
X108653671Y-116566192D01*
X108653684Y-116566185D01*
X108817462Y-116456751D01*
X108817466Y-116456748D01*
X108956748Y-116317466D01*
X108956751Y-116317462D01*
X109066185Y-116153684D01*
X109066192Y-116153671D01*
X109141569Y-115971692D01*
X109141569Y-115971690D01*
X109149862Y-115930000D01*
X108346988Y-115930000D01*
X108364205Y-115920060D01*
X108420060Y-115864205D01*
X108459556Y-115795796D01*
X108480000Y-115719496D01*
X108480000Y-115671153D01*
X112949500Y-115671153D01*
X112949500Y-115828846D01*
X112980261Y-115983489D01*
X112980264Y-115983501D01*
X113040602Y-116129172D01*
X113040609Y-116129185D01*
X113128210Y-116260288D01*
X113128213Y-116260292D01*
X113239707Y-116371786D01*
X113239711Y-116371789D01*
X113370814Y-116459390D01*
X113370827Y-116459397D01*
X113471207Y-116500975D01*
X113516503Y-116519737D01*
X113671153Y-116550499D01*
X113671156Y-116550500D01*
X113671158Y-116550500D01*
X113828844Y-116550500D01*
X113828845Y-116550499D01*
X113983497Y-116519737D01*
X114129179Y-116459394D01*
X114260289Y-116371789D01*
X114357078Y-116275000D01*
X115303554Y-116275000D01*
X115500000Y-116471446D01*
X115696446Y-116275000D01*
X115500000Y-116078554D01*
X115303554Y-116275000D01*
X114357078Y-116275000D01*
X114371789Y-116260289D01*
X114402032Y-116215027D01*
X114442311Y-116154747D01*
X114459391Y-116129183D01*
X114459394Y-116129179D01*
X114519737Y-115983497D01*
X114531613Y-115923788D01*
X114563996Y-115861880D01*
X114624712Y-115827305D01*
X114694481Y-115831044D01*
X114751154Y-115871909D01*
X114774847Y-115923786D01*
X114778821Y-115943765D01*
X114778822Y-115943767D01*
X114822421Y-116049024D01*
X115146446Y-115725000D01*
X115146446Y-115724999D01*
X115126556Y-115705109D01*
X115400000Y-115705109D01*
X115400000Y-115744891D01*
X115415224Y-115781645D01*
X115443355Y-115809776D01*
X115480109Y-115825000D01*
X115519891Y-115825000D01*
X115556645Y-115809776D01*
X115584776Y-115781645D01*
X115600000Y-115744891D01*
X115600000Y-115724999D01*
X115853554Y-115724999D01*
X115853554Y-115725001D01*
X116177577Y-116049024D01*
X116177578Y-116049024D01*
X116221175Y-115943775D01*
X116221179Y-115943760D01*
X116249999Y-115798873D01*
X116250000Y-115798871D01*
X116250000Y-115651128D01*
X116249999Y-115651126D01*
X116221179Y-115506240D01*
X116221178Y-115506236D01*
X116177577Y-115400975D01*
X115853554Y-115724999D01*
X115600000Y-115724999D01*
X115600000Y-115705109D01*
X115584776Y-115668355D01*
X115556645Y-115640224D01*
X115519891Y-115625000D01*
X115480109Y-115625000D01*
X115443355Y-115640224D01*
X115415224Y-115668355D01*
X115400000Y-115705109D01*
X115126556Y-115705109D01*
X114822421Y-115400974D01*
X114822420Y-115400974D01*
X114778823Y-115506228D01*
X114778820Y-115506238D01*
X114769875Y-115551210D01*
X114737490Y-115613121D01*
X114676774Y-115647695D01*
X114607005Y-115643955D01*
X114550333Y-115603088D01*
X114526641Y-115551209D01*
X114519738Y-115516510D01*
X114519737Y-115516503D01*
X114488024Y-115439940D01*
X114459397Y-115370827D01*
X114459390Y-115370814D01*
X114371789Y-115239711D01*
X114371786Y-115239707D01*
X114260292Y-115128213D01*
X114260288Y-115128210D01*
X114139378Y-115047420D01*
X115175974Y-115047420D01*
X115175974Y-115047421D01*
X115500000Y-115371446D01*
X115500001Y-115371446D01*
X115824024Y-115047421D01*
X115718767Y-115003822D01*
X115718759Y-115003820D01*
X115573872Y-114975000D01*
X115426128Y-114975000D01*
X115281240Y-115003820D01*
X115281228Y-115003823D01*
X115175974Y-115047420D01*
X114139378Y-115047420D01*
X114129185Y-115040609D01*
X114129172Y-115040602D01*
X113983501Y-114980264D01*
X113983489Y-114980261D01*
X113828845Y-114949500D01*
X113828842Y-114949500D01*
X113671158Y-114949500D01*
X113671155Y-114949500D01*
X113516510Y-114980261D01*
X113516498Y-114980264D01*
X113370827Y-115040602D01*
X113370814Y-115040609D01*
X113239711Y-115128210D01*
X113239707Y-115128213D01*
X113128213Y-115239707D01*
X113128210Y-115239711D01*
X113040609Y-115370814D01*
X113040602Y-115370827D01*
X112980264Y-115516498D01*
X112980261Y-115516510D01*
X112949500Y-115671153D01*
X108480000Y-115671153D01*
X108480000Y-115640504D01*
X108459556Y-115564204D01*
X108420060Y-115495795D01*
X108364205Y-115439940D01*
X108346988Y-115430000D01*
X109149862Y-115430000D01*
X109141569Y-115388309D01*
X109141569Y-115388307D01*
X109066192Y-115206328D01*
X109066185Y-115206315D01*
X108956751Y-115042537D01*
X108956748Y-115042533D01*
X108817466Y-114903251D01*
X108817462Y-114903248D01*
X108653684Y-114793814D01*
X108653671Y-114793807D01*
X108471693Y-114718430D01*
X108471681Y-114718427D01*
X108278495Y-114680000D01*
X107924500Y-114680000D01*
X107857461Y-114660315D01*
X107811706Y-114607511D01*
X107800500Y-114556000D01*
X107800500Y-114473987D01*
X107800499Y-114473985D01*
X107769738Y-114319342D01*
X107769737Y-114319335D01*
X107711953Y-114179831D01*
X107709397Y-114173659D01*
X107709390Y-114173646D01*
X107621789Y-114042543D01*
X107621786Y-114042539D01*
X107510292Y-113931045D01*
X107510288Y-113931042D01*
X107379185Y-113843441D01*
X107379172Y-113843434D01*
X107233501Y-113783096D01*
X107233489Y-113783093D01*
X107078845Y-113752332D01*
X107078842Y-113752332D01*
X106921158Y-113752332D01*
X106921155Y-113752332D01*
X106766510Y-113783093D01*
X106766498Y-113783096D01*
X106620827Y-113843434D01*
X106620814Y-113843441D01*
X106489711Y-113931042D01*
X106489707Y-113931045D01*
X106378213Y-114042539D01*
X106378210Y-114042543D01*
X106290609Y-114173646D01*
X106290602Y-114173659D01*
X106230264Y-114319330D01*
X106230261Y-114319342D01*
X106199500Y-114473985D01*
X106199500Y-114631678D01*
X106230261Y-114786321D01*
X106230264Y-114786333D01*
X106290602Y-114932003D01*
X106293479Y-114937385D01*
X106291192Y-114938607D01*
X106308699Y-114994523D01*
X106290213Y-115061903D01*
X106287821Y-115065625D01*
X106193814Y-115206315D01*
X106193807Y-115206328D01*
X106118430Y-115388307D01*
X106118430Y-115388309D01*
X106110138Y-115430000D01*
X104719862Y-115430000D01*
X104711569Y-115388309D01*
X104711569Y-115388307D01*
X104636192Y-115206328D01*
X104636185Y-115206315D01*
X104526751Y-115042537D01*
X104526748Y-115042533D01*
X104387466Y-114903251D01*
X104387462Y-114903248D01*
X104223684Y-114793814D01*
X104223671Y-114793807D01*
X104041693Y-114718430D01*
X104041681Y-114718427D01*
X103848495Y-114680000D01*
X103700000Y-114680000D01*
X103700000Y-115380000D01*
X103200000Y-115380000D01*
X103200000Y-114680000D01*
X103051504Y-114680000D01*
X102858318Y-114718427D01*
X102858306Y-114718430D01*
X102676328Y-114793807D01*
X102676315Y-114793814D01*
X102512537Y-114903248D01*
X102512533Y-114903251D01*
X102373251Y-115042533D01*
X102373248Y-115042537D01*
X102263814Y-115206315D01*
X102263807Y-115206328D01*
X102188430Y-115388307D01*
X102188430Y-115388309D01*
X102180138Y-115430000D01*
X100500500Y-115430000D01*
X100500500Y-113126206D01*
X101494447Y-113126206D01*
X101494447Y-113283899D01*
X101525208Y-113438542D01*
X101525211Y-113438554D01*
X101585549Y-113584225D01*
X101585556Y-113584238D01*
X101673157Y-113715341D01*
X101673160Y-113715345D01*
X101784654Y-113826839D01*
X101784658Y-113826842D01*
X101915761Y-113914443D01*
X101915774Y-113914450D01*
X102014203Y-113955220D01*
X102061450Y-113974790D01*
X102216100Y-114005552D01*
X102216103Y-114005553D01*
X102216105Y-114005553D01*
X102373791Y-114005553D01*
X102373792Y-114005552D01*
X102528444Y-113974790D01*
X102674126Y-113914447D01*
X102805236Y-113826842D01*
X102916736Y-113715342D01*
X103004341Y-113584232D01*
X103064684Y-113438550D01*
X103095447Y-113283895D01*
X103095447Y-113126211D01*
X103095447Y-113126208D01*
X103095446Y-113126206D01*
X103064685Y-112971563D01*
X103064684Y-112971556D01*
X103064682Y-112971551D01*
X103004344Y-112825880D01*
X103004337Y-112825867D01*
X102916736Y-112694764D01*
X102916733Y-112694760D01*
X102869621Y-112647648D01*
X124199500Y-112647648D01*
X124199500Y-112852352D01*
X124203878Y-112879995D01*
X124231522Y-113054534D01*
X124294781Y-113249223D01*
X124387715Y-113431613D01*
X124508028Y-113597213D01*
X124652786Y-113741971D01*
X124787377Y-113839755D01*
X124818390Y-113862287D01*
X124934607Y-113921503D01*
X125000776Y-113955218D01*
X125000778Y-113955218D01*
X125000781Y-113955220D01*
X125105137Y-113989127D01*
X125195465Y-114018477D01*
X125296557Y-114034488D01*
X125397648Y-114050500D01*
X125397649Y-114050500D01*
X125602351Y-114050500D01*
X125602352Y-114050500D01*
X125804534Y-114018477D01*
X125999219Y-113955220D01*
X126181610Y-113862287D01*
X126290608Y-113783096D01*
X126347213Y-113741971D01*
X126347215Y-113741968D01*
X126347219Y-113741966D01*
X126491966Y-113597219D01*
X126491968Y-113597215D01*
X126491971Y-113597213D01*
X126544732Y-113524590D01*
X126612287Y-113431610D01*
X126705220Y-113249219D01*
X126768477Y-113054534D01*
X126800500Y-112852352D01*
X126800500Y-112647648D01*
X126780240Y-112519735D01*
X126768477Y-112445465D01*
X126705959Y-112253055D01*
X126705220Y-112250781D01*
X126705218Y-112250778D01*
X126705218Y-112250776D01*
X126671503Y-112184607D01*
X126612287Y-112068390D01*
X126591714Y-112040073D01*
X126491971Y-111902786D01*
X126347213Y-111758028D01*
X126181613Y-111637715D01*
X126181612Y-111637714D01*
X126181610Y-111637713D01*
X126122663Y-111607678D01*
X125999223Y-111544781D01*
X125804534Y-111481522D01*
X125629995Y-111453878D01*
X125602352Y-111449500D01*
X125397648Y-111449500D01*
X125373329Y-111453351D01*
X125195465Y-111481522D01*
X125000776Y-111544781D01*
X124818386Y-111637715D01*
X124652786Y-111758028D01*
X124508028Y-111902786D01*
X124387715Y-112068386D01*
X124294781Y-112250776D01*
X124231522Y-112445465D01*
X124209697Y-112583266D01*
X124199500Y-112647648D01*
X102869621Y-112647648D01*
X102805239Y-112583266D01*
X102805235Y-112583263D01*
X102674132Y-112495662D01*
X102674119Y-112495655D01*
X102528448Y-112435317D01*
X102528436Y-112435314D01*
X102373792Y-112404553D01*
X102373789Y-112404553D01*
X102216105Y-112404553D01*
X102216102Y-112404553D01*
X102061457Y-112435314D01*
X102061445Y-112435317D01*
X101915774Y-112495655D01*
X101915761Y-112495662D01*
X101784658Y-112583263D01*
X101784654Y-112583266D01*
X101673160Y-112694760D01*
X101673157Y-112694764D01*
X101585556Y-112825867D01*
X101585549Y-112825880D01*
X101525211Y-112971551D01*
X101525208Y-112971563D01*
X101494447Y-113126206D01*
X100500500Y-113126206D01*
X100500500Y-111671153D01*
X107324500Y-111671153D01*
X107324500Y-111828846D01*
X107355261Y-111983489D01*
X107355264Y-111983501D01*
X107415602Y-112129172D01*
X107415609Y-112129185D01*
X107503210Y-112260288D01*
X107503213Y-112260292D01*
X107614707Y-112371786D01*
X107614711Y-112371789D01*
X107745814Y-112459390D01*
X107745827Y-112459397D01*
X107891498Y-112519735D01*
X107891503Y-112519737D01*
X108046153Y-112550499D01*
X108046156Y-112550500D01*
X108046158Y-112550500D01*
X108203844Y-112550500D01*
X108203845Y-112550499D01*
X108256403Y-112540044D01*
X108351345Y-112521160D01*
X108351350Y-112521159D01*
X108356011Y-112520231D01*
X108358497Y-112519737D01*
X108504179Y-112459394D01*
X108635289Y-112371789D01*
X108746789Y-112260289D01*
X108834394Y-112129179D01*
X108894737Y-111983497D01*
X108925500Y-111828842D01*
X108925500Y-111671158D01*
X108925500Y-111671155D01*
X108925499Y-111671153D01*
X108918847Y-111637713D01*
X108894737Y-111516503D01*
X108880147Y-111481280D01*
X108834397Y-111370827D01*
X108834390Y-111370814D01*
X108746789Y-111239711D01*
X108746786Y-111239707D01*
X108635292Y-111128213D01*
X108635288Y-111128210D01*
X108504185Y-111040609D01*
X108504172Y-111040602D01*
X108358501Y-110980264D01*
X108358489Y-110980261D01*
X108203845Y-110949500D01*
X108203842Y-110949500D01*
X108046158Y-110949500D01*
X108046155Y-110949500D01*
X107891510Y-110980261D01*
X107891498Y-110980264D01*
X107745827Y-111040602D01*
X107745814Y-111040609D01*
X107614711Y-111128210D01*
X107614707Y-111128213D01*
X107503213Y-111239707D01*
X107503210Y-111239711D01*
X107415609Y-111370814D01*
X107415602Y-111370827D01*
X107355264Y-111516498D01*
X107355261Y-111516510D01*
X107324500Y-111671153D01*
X100500500Y-111671153D01*
X100500500Y-110671153D01*
X110699500Y-110671153D01*
X110699500Y-110828846D01*
X110730261Y-110983489D01*
X110730264Y-110983501D01*
X110790602Y-111129172D01*
X110790609Y-111129185D01*
X110878210Y-111260288D01*
X110878213Y-111260292D01*
X110989707Y-111371786D01*
X110989711Y-111371789D01*
X111120814Y-111459390D01*
X111120827Y-111459397D01*
X111217646Y-111499500D01*
X111266503Y-111519737D01*
X111392402Y-111544780D01*
X111421153Y-111550499D01*
X111421156Y-111550500D01*
X111421158Y-111550500D01*
X111578844Y-111550500D01*
X111578845Y-111550499D01*
X111733497Y-111519737D01*
X111879179Y-111459394D01*
X112010289Y-111371789D01*
X112121789Y-111260289D01*
X112209394Y-111129179D01*
X112269737Y-110983497D01*
X112300500Y-110828842D01*
X112300500Y-110671158D01*
X112300500Y-110671155D01*
X112300499Y-110671153D01*
X112287242Y-110604508D01*
X112269737Y-110516503D01*
X112267163Y-110510288D01*
X112209397Y-110370827D01*
X112209390Y-110370814D01*
X112121789Y-110239711D01*
X112121786Y-110239707D01*
X112010292Y-110128213D01*
X112010288Y-110128210D01*
X111879185Y-110040609D01*
X111879173Y-110040602D01*
X111852674Y-110029627D01*
X111733501Y-109980264D01*
X111733489Y-109980261D01*
X111578845Y-109949500D01*
X111578842Y-109949500D01*
X111421158Y-109949500D01*
X111421155Y-109949500D01*
X111266510Y-109980261D01*
X111266498Y-109980264D01*
X111120827Y-110040602D01*
X111120814Y-110040609D01*
X110989711Y-110128210D01*
X110989707Y-110128213D01*
X110878213Y-110239707D01*
X110878210Y-110239711D01*
X110790609Y-110370814D01*
X110790602Y-110370827D01*
X110730264Y-110516498D01*
X110730261Y-110516510D01*
X110699500Y-110671153D01*
X100500500Y-110671153D01*
X100500500Y-109534000D01*
X101579587Y-109534000D01*
X101579587Y-109691693D01*
X101610348Y-109846336D01*
X101610351Y-109846348D01*
X101670689Y-109992019D01*
X101670696Y-109992032D01*
X101758297Y-110123135D01*
X101758300Y-110123139D01*
X101869794Y-110234633D01*
X101869798Y-110234636D01*
X102000901Y-110322237D01*
X102000914Y-110322244D01*
X102138384Y-110379185D01*
X102146590Y-110382584D01*
X102301240Y-110413346D01*
X102301243Y-110413347D01*
X102301245Y-110413347D01*
X102458931Y-110413347D01*
X102458932Y-110413346D01*
X102613584Y-110382584D01*
X102726253Y-110335914D01*
X102759259Y-110322244D01*
X102759259Y-110322243D01*
X102759266Y-110322241D01*
X102890376Y-110234636D01*
X103001876Y-110123136D01*
X103089481Y-109992026D01*
X103118837Y-109921153D01*
X129449500Y-109921153D01*
X129449500Y-110078846D01*
X129480261Y-110233489D01*
X129480264Y-110233501D01*
X129540602Y-110379172D01*
X129540609Y-110379185D01*
X129628210Y-110510288D01*
X129628213Y-110510292D01*
X129739707Y-110621786D01*
X129739711Y-110621789D01*
X129870814Y-110709390D01*
X129870827Y-110709397D01*
X130016498Y-110769735D01*
X130016503Y-110769737D01*
X130171153Y-110800499D01*
X130171156Y-110800500D01*
X130171158Y-110800500D01*
X130328844Y-110800500D01*
X130328845Y-110800499D01*
X130483497Y-110769737D01*
X130629179Y-110709394D01*
X130760289Y-110621789D01*
X130871789Y-110510289D01*
X130959394Y-110379179D01*
X130962854Y-110370827D01*
X131017163Y-110239711D01*
X131019737Y-110233497D01*
X131050500Y-110078842D01*
X131050500Y-109921158D01*
X131050500Y-109921155D01*
X131050499Y-109921153D01*
X131031564Y-109825962D01*
X131019737Y-109766503D01*
X131011169Y-109745818D01*
X130959397Y-109620827D01*
X130959390Y-109620814D01*
X130871789Y-109489711D01*
X130871786Y-109489707D01*
X130760292Y-109378213D01*
X130760288Y-109378210D01*
X130629185Y-109290609D01*
X130629172Y-109290602D01*
X130483501Y-109230264D01*
X130483489Y-109230261D01*
X130328845Y-109199500D01*
X130328842Y-109199500D01*
X130171158Y-109199500D01*
X130171155Y-109199500D01*
X130016510Y-109230261D01*
X130016498Y-109230264D01*
X129870827Y-109290602D01*
X129870814Y-109290609D01*
X129739711Y-109378210D01*
X129739707Y-109378213D01*
X129628213Y-109489707D01*
X129628210Y-109489711D01*
X129540609Y-109620814D01*
X129540602Y-109620827D01*
X129480264Y-109766498D01*
X129480261Y-109766510D01*
X129449500Y-109921153D01*
X103118837Y-109921153D01*
X103149824Y-109846344D01*
X103180587Y-109691689D01*
X103180587Y-109534005D01*
X103180587Y-109534002D01*
X103180586Y-109534000D01*
X103171776Y-109489711D01*
X103149824Y-109379350D01*
X103141793Y-109359962D01*
X103089484Y-109233674D01*
X103089477Y-109233661D01*
X103001876Y-109102558D01*
X103001873Y-109102554D01*
X102890379Y-108991060D01*
X102890375Y-108991057D01*
X102759272Y-108903456D01*
X102759259Y-108903449D01*
X102613588Y-108843111D01*
X102613576Y-108843108D01*
X102458932Y-108812347D01*
X102458929Y-108812347D01*
X102301245Y-108812347D01*
X102301242Y-108812347D01*
X102146597Y-108843108D01*
X102146585Y-108843111D01*
X102000914Y-108903449D01*
X102000901Y-108903456D01*
X101869798Y-108991057D01*
X101869794Y-108991060D01*
X101758300Y-109102554D01*
X101758297Y-109102558D01*
X101670696Y-109233661D01*
X101670689Y-109233674D01*
X101610351Y-109379345D01*
X101610348Y-109379357D01*
X101579587Y-109534000D01*
X100500500Y-109534000D01*
X100500500Y-106037533D01*
X101583120Y-106037533D01*
X101583120Y-106195226D01*
X101613881Y-106349869D01*
X101613884Y-106349881D01*
X101674222Y-106495552D01*
X101674229Y-106495565D01*
X101761830Y-106626668D01*
X101761833Y-106626672D01*
X101873327Y-106738166D01*
X101873331Y-106738169D01*
X102004434Y-106825770D01*
X102004447Y-106825777D01*
X102150118Y-106886115D01*
X102150123Y-106886117D01*
X102285182Y-106912982D01*
X102304773Y-106916879D01*
X102304776Y-106916880D01*
X102304778Y-106916880D01*
X102462464Y-106916880D01*
X102462465Y-106916879D01*
X102617117Y-106886117D01*
X102739502Y-106835424D01*
X102762792Y-106825777D01*
X102762792Y-106825776D01*
X102762799Y-106825774D01*
X102893909Y-106738169D01*
X103005409Y-106626669D01*
X103025799Y-106596153D01*
X105999500Y-106596153D01*
X105999500Y-106753846D01*
X106030261Y-106908489D01*
X106030264Y-106908501D01*
X106090602Y-107054172D01*
X106090609Y-107054185D01*
X106178210Y-107185288D01*
X106178213Y-107185292D01*
X106289707Y-107296786D01*
X106289711Y-107296789D01*
X106420814Y-107384390D01*
X106420827Y-107384397D01*
X106566498Y-107444735D01*
X106566503Y-107444737D01*
X106721153Y-107475499D01*
X106721156Y-107475500D01*
X106721158Y-107475500D01*
X106878844Y-107475500D01*
X106878845Y-107475499D01*
X107033497Y-107444737D01*
X107155271Y-107394297D01*
X107179172Y-107384397D01*
X107179172Y-107384396D01*
X107179179Y-107384394D01*
X107310289Y-107296789D01*
X107421789Y-107185289D01*
X107470897Y-107111794D01*
X131639437Y-107111794D01*
X131639437Y-107269487D01*
X131670198Y-107424130D01*
X131670201Y-107424142D01*
X131730539Y-107569813D01*
X131730546Y-107569826D01*
X131818147Y-107700929D01*
X131818150Y-107700933D01*
X131929644Y-107812427D01*
X131929648Y-107812430D01*
X132060751Y-107900031D01*
X132060764Y-107900038D01*
X132206435Y-107960376D01*
X132206440Y-107960378D01*
X132361095Y-107991141D01*
X132365826Y-107992082D01*
X132427737Y-108024467D01*
X132444733Y-108044803D01*
X132479828Y-108097326D01*
X132509188Y-108141267D01*
X132620683Y-108252762D01*
X132620687Y-108252765D01*
X132751790Y-108340366D01*
X132751803Y-108340373D01*
X132894227Y-108399366D01*
X132897479Y-108400713D01*
X133052129Y-108431475D01*
X133052132Y-108431476D01*
X133052134Y-108431476D01*
X133209820Y-108431476D01*
X133209821Y-108431475D01*
X133364473Y-108400713D01*
X133425793Y-108375313D01*
X133495257Y-108367845D01*
X133542133Y-108386774D01*
X133550124Y-108392113D01*
X133695806Y-108452456D01*
X133839235Y-108480986D01*
X133850456Y-108483218D01*
X133850459Y-108483219D01*
X133850461Y-108483219D01*
X134008147Y-108483219D01*
X134008148Y-108483218D01*
X134162800Y-108452456D01*
X134287720Y-108400713D01*
X134308475Y-108392116D01*
X134308475Y-108392115D01*
X134308482Y-108392113D01*
X134439592Y-108304508D01*
X134551092Y-108193008D01*
X134638697Y-108061898D01*
X134645253Y-108046067D01*
X134689093Y-107991665D01*
X134735622Y-107971902D01*
X134793560Y-107960378D01*
X134939242Y-107900035D01*
X135070352Y-107812430D01*
X135181852Y-107700930D01*
X135269457Y-107569820D01*
X135329800Y-107424138D01*
X135360563Y-107269483D01*
X135360563Y-107111799D01*
X135360563Y-107111796D01*
X135360562Y-107111794D01*
X135329800Y-106957144D01*
X135295726Y-106874883D01*
X135288258Y-106805415D01*
X135319533Y-106742936D01*
X135379622Y-106707284D01*
X135449447Y-106709778D01*
X135479179Y-106724330D01*
X135555127Y-106775077D01*
X135555140Y-106775084D01*
X135686596Y-106829534D01*
X135700816Y-106835424D01*
X135801855Y-106855522D01*
X135855466Y-106866186D01*
X135855469Y-106866187D01*
X135855471Y-106866187D01*
X136013157Y-106866187D01*
X136013158Y-106866186D01*
X136167810Y-106835424D01*
X136313492Y-106775081D01*
X136444602Y-106687476D01*
X136556102Y-106575976D01*
X136643707Y-106444866D01*
X136704050Y-106299184D01*
X136734813Y-106144529D01*
X136734813Y-106063656D01*
X136754498Y-105996617D01*
X136789923Y-105960553D01*
X136800978Y-105953167D01*
X136912478Y-105841667D01*
X137000083Y-105710557D01*
X137060426Y-105564875D01*
X137091189Y-105410220D01*
X137091189Y-105252536D01*
X137091189Y-105252533D01*
X137091188Y-105252531D01*
X137081378Y-105203213D01*
X137060426Y-105097881D01*
X137059298Y-105095157D01*
X137000086Y-104952205D01*
X137000079Y-104952192D01*
X136912478Y-104821089D01*
X136912475Y-104821085D01*
X136800981Y-104709591D01*
X136800977Y-104709588D01*
X136669874Y-104621987D01*
X136669861Y-104621980D01*
X136608673Y-104596636D01*
X136554269Y-104552796D01*
X136532204Y-104486501D01*
X136549483Y-104418802D01*
X136568440Y-104394397D01*
X136662169Y-104300669D01*
X136749774Y-104169559D01*
X136753613Y-104160292D01*
X136807921Y-104029179D01*
X136810117Y-104023877D01*
X136840880Y-103869222D01*
X136840880Y-103711538D01*
X136840880Y-103711535D01*
X136840879Y-103711533D01*
X136836538Y-103689711D01*
X136810117Y-103556883D01*
X136806323Y-103547724D01*
X136749777Y-103411207D01*
X136749770Y-103411194D01*
X136662169Y-103280091D01*
X136662166Y-103280087D01*
X136550672Y-103168593D01*
X136550668Y-103168590D01*
X136419565Y-103080989D01*
X136419552Y-103080982D01*
X136273881Y-103020644D01*
X136273869Y-103020641D01*
X136119225Y-102989880D01*
X136119222Y-102989880D01*
X135961538Y-102989880D01*
X135961535Y-102989880D01*
X135806890Y-103020641D01*
X135806878Y-103020644D01*
X135661207Y-103080982D01*
X135661194Y-103080989D01*
X135530091Y-103168590D01*
X135530087Y-103168593D01*
X135418593Y-103280087D01*
X135418590Y-103280091D01*
X135330989Y-103411194D01*
X135330982Y-103411207D01*
X135270644Y-103556878D01*
X135270641Y-103556890D01*
X135239880Y-103711533D01*
X135239880Y-103869226D01*
X135270641Y-104023869D01*
X135270644Y-104023881D01*
X135330982Y-104169552D01*
X135330989Y-104169565D01*
X135418590Y-104300668D01*
X135418593Y-104300672D01*
X135530087Y-104412166D01*
X135530091Y-104412169D01*
X135661194Y-104499770D01*
X135661201Y-104499774D01*
X135722395Y-104525121D01*
X135776798Y-104568961D01*
X135798864Y-104635255D01*
X135781586Y-104702954D01*
X135762625Y-104727363D01*
X135668899Y-104821089D01*
X135581298Y-104952192D01*
X135581291Y-104952205D01*
X135520953Y-105097876D01*
X135520950Y-105097888D01*
X135490189Y-105252531D01*
X135490189Y-105333408D01*
X135470504Y-105400447D01*
X135435082Y-105436508D01*
X135424029Y-105443893D01*
X135424018Y-105443902D01*
X135312526Y-105555394D01*
X135312523Y-105555398D01*
X135224922Y-105686501D01*
X135224915Y-105686514D01*
X135164577Y-105832185D01*
X135164574Y-105832197D01*
X135133813Y-105986840D01*
X135133813Y-106144533D01*
X135164574Y-106299176D01*
X135164577Y-106299188D01*
X135198648Y-106381443D01*
X135206117Y-106450912D01*
X135174841Y-106513391D01*
X135114752Y-106549043D01*
X135044927Y-106546549D01*
X135015196Y-106531997D01*
X134939248Y-106481250D01*
X134939235Y-106481243D01*
X134793564Y-106420905D01*
X134793552Y-106420902D01*
X134638908Y-106390141D01*
X134638905Y-106390141D01*
X134481221Y-106390141D01*
X134481218Y-106390141D01*
X134326573Y-106420902D01*
X134326561Y-106420905D01*
X134180890Y-106481243D01*
X134180877Y-106481250D01*
X134049774Y-106568851D01*
X134049770Y-106568854D01*
X133938276Y-106680348D01*
X133938270Y-106680356D01*
X133850670Y-106811459D01*
X133850667Y-106811465D01*
X133844110Y-106827295D01*
X133843222Y-106828396D01*
X133843040Y-106829800D01*
X133821361Y-106855522D01*
X133800268Y-106881697D01*
X133798630Y-106882494D01*
X133798014Y-106883226D01*
X133792268Y-106885592D01*
X133766113Y-106898327D01*
X133760005Y-106900211D01*
X133695806Y-106912982D01*
X133629142Y-106940594D01*
X133623598Y-106942305D01*
X133594221Y-106942707D01*
X133565016Y-106945847D01*
X133558456Y-106943198D01*
X133553735Y-106943263D01*
X133544759Y-106937667D01*
X133518145Y-106926920D01*
X133510165Y-106921588D01*
X133510158Y-106921584D01*
X133510155Y-106921582D01*
X133510151Y-106921580D01*
X133510147Y-106921578D01*
X133364477Y-106861240D01*
X133364467Y-106861237D01*
X133205085Y-106829534D01*
X133143175Y-106797149D01*
X133126180Y-106776814D01*
X133061726Y-106680352D01*
X133061724Y-106680349D01*
X132950229Y-106568854D01*
X132950225Y-106568851D01*
X132819122Y-106481250D01*
X132819109Y-106481243D01*
X132673438Y-106420905D01*
X132673426Y-106420902D01*
X132518782Y-106390141D01*
X132518779Y-106390141D01*
X132361095Y-106390141D01*
X132361092Y-106390141D01*
X132206447Y-106420902D01*
X132206435Y-106420905D01*
X132060764Y-106481243D01*
X132060751Y-106481250D01*
X131929648Y-106568851D01*
X131929644Y-106568854D01*
X131818150Y-106680348D01*
X131818147Y-106680352D01*
X131730546Y-106811455D01*
X131730539Y-106811468D01*
X131670201Y-106957139D01*
X131670198Y-106957151D01*
X131639437Y-107111794D01*
X107470897Y-107111794D01*
X107509394Y-107054179D01*
X107569737Y-106908497D01*
X107600500Y-106753842D01*
X107600500Y-106596158D01*
X107600500Y-106596155D01*
X107600499Y-106596153D01*
X107596486Y-106575979D01*
X107569737Y-106441503D01*
X107561204Y-106420902D01*
X107509397Y-106295827D01*
X107509390Y-106295814D01*
X107421789Y-106164711D01*
X107421786Y-106164707D01*
X107310292Y-106053213D01*
X107310288Y-106053210D01*
X107179185Y-105965609D01*
X107179172Y-105965602D01*
X107033501Y-105905264D01*
X107033489Y-105905261D01*
X106878845Y-105874500D01*
X106878842Y-105874500D01*
X106721158Y-105874500D01*
X106721155Y-105874500D01*
X106566510Y-105905261D01*
X106566498Y-105905264D01*
X106420827Y-105965602D01*
X106420814Y-105965609D01*
X106289711Y-106053210D01*
X106289707Y-106053213D01*
X106178213Y-106164707D01*
X106178210Y-106164711D01*
X106090609Y-106295814D01*
X106090602Y-106295827D01*
X106030264Y-106441498D01*
X106030261Y-106441510D01*
X105999500Y-106596153D01*
X103025799Y-106596153D01*
X103044042Y-106568851D01*
X103075899Y-106521175D01*
X103093011Y-106495563D01*
X103093014Y-106495559D01*
X103153357Y-106349877D01*
X103184120Y-106195222D01*
X103184120Y-106037538D01*
X103184120Y-106037535D01*
X103184119Y-106037533D01*
X103172692Y-105980086D01*
X103153357Y-105882883D01*
X103141541Y-105854357D01*
X103093017Y-105737207D01*
X103093010Y-105737194D01*
X103005409Y-105606091D01*
X103005406Y-105606087D01*
X102893912Y-105494593D01*
X102893908Y-105494590D01*
X102762805Y-105406989D01*
X102762792Y-105406982D01*
X102617121Y-105346644D01*
X102617109Y-105346641D01*
X102462465Y-105315880D01*
X102462462Y-105315880D01*
X102304778Y-105315880D01*
X102304775Y-105315880D01*
X102150130Y-105346641D01*
X102150118Y-105346644D01*
X102004447Y-105406982D01*
X102004434Y-105406989D01*
X101873331Y-105494590D01*
X101873327Y-105494593D01*
X101761833Y-105606087D01*
X101761830Y-105606091D01*
X101674229Y-105737194D01*
X101674222Y-105737207D01*
X101613884Y-105882878D01*
X101613881Y-105882890D01*
X101583120Y-106037533D01*
X100500500Y-106037533D01*
X100500500Y-105005773D01*
X129614880Y-105005773D01*
X129614880Y-105163466D01*
X129645641Y-105318109D01*
X129645644Y-105318121D01*
X129705982Y-105463792D01*
X129705989Y-105463805D01*
X129793590Y-105594908D01*
X129793593Y-105594912D01*
X129905087Y-105706406D01*
X129905091Y-105706409D01*
X130036194Y-105794010D01*
X130036207Y-105794017D01*
X130181878Y-105854355D01*
X130181883Y-105854357D01*
X130325267Y-105882878D01*
X130336533Y-105885119D01*
X130336536Y-105885120D01*
X130336538Y-105885120D01*
X130494224Y-105885120D01*
X130494225Y-105885119D01*
X130648877Y-105854357D01*
X130794559Y-105794014D01*
X130925669Y-105706409D01*
X131037169Y-105594909D01*
X131124774Y-105463799D01*
X131185117Y-105318117D01*
X131215880Y-105163462D01*
X131215880Y-105005778D01*
X131215880Y-105005775D01*
X131215879Y-105005773D01*
X131208711Y-104969737D01*
X131185117Y-104851123D01*
X131166971Y-104807314D01*
X131124777Y-104705447D01*
X131124770Y-104705434D01*
X131043322Y-104583539D01*
X131022444Y-104516862D01*
X131040928Y-104449481D01*
X131092907Y-104402791D01*
X131098932Y-104400103D01*
X131197216Y-104359394D01*
X131328326Y-104271789D01*
X131439826Y-104160289D01*
X131527431Y-104029179D01*
X131529626Y-104023881D01*
X131587772Y-103883501D01*
X131587774Y-103883497D01*
X131618537Y-103728842D01*
X131618537Y-103571158D01*
X131618537Y-103571155D01*
X131618536Y-103571153D01*
X131615699Y-103556890D01*
X131587774Y-103416503D01*
X131564544Y-103360420D01*
X131527434Y-103270827D01*
X131527427Y-103270814D01*
X131439826Y-103139711D01*
X131439823Y-103139707D01*
X131328329Y-103028213D01*
X131328325Y-103028210D01*
X131197222Y-102940609D01*
X131197209Y-102940602D01*
X131051538Y-102880264D01*
X131051526Y-102880261D01*
X130896882Y-102849500D01*
X130896879Y-102849500D01*
X130739195Y-102849500D01*
X130739192Y-102849500D01*
X130584547Y-102880261D01*
X130584535Y-102880264D01*
X130438864Y-102940602D01*
X130438851Y-102940609D01*
X130307748Y-103028210D01*
X130307744Y-103028213D01*
X130196250Y-103139707D01*
X130196247Y-103139711D01*
X130108646Y-103270814D01*
X130108639Y-103270827D01*
X130048301Y-103416498D01*
X130048298Y-103416510D01*
X130017537Y-103571153D01*
X130017537Y-103728846D01*
X130048298Y-103883489D01*
X130048301Y-103883501D01*
X130108639Y-104029172D01*
X130108646Y-104029185D01*
X130190094Y-104151080D01*
X130210972Y-104217758D01*
X130192487Y-104285138D01*
X130140509Y-104331828D01*
X130134445Y-104334532D01*
X130036203Y-104375224D01*
X130036194Y-104375229D01*
X129905091Y-104462830D01*
X129905087Y-104462833D01*
X129793593Y-104574327D01*
X129793590Y-104574331D01*
X129705989Y-104705434D01*
X129705982Y-104705447D01*
X129645644Y-104851118D01*
X129645641Y-104851130D01*
X129614880Y-105005773D01*
X100500500Y-105005773D01*
X100500500Y-103827540D01*
X103214200Y-103827540D01*
X103214200Y-103974459D01*
X103242858Y-104118534D01*
X103242861Y-104118544D01*
X103299078Y-104254266D01*
X103299083Y-104254275D01*
X103380698Y-104376419D01*
X103380701Y-104376423D01*
X103484576Y-104480298D01*
X103484580Y-104480301D01*
X103606724Y-104561916D01*
X103606730Y-104561919D01*
X103606731Y-104561920D01*
X103742458Y-104618140D01*
X103886540Y-104646799D01*
X103886544Y-104646800D01*
X103886545Y-104646800D01*
X104033456Y-104646800D01*
X104033457Y-104646799D01*
X104177542Y-104618140D01*
X104313269Y-104561920D01*
X104313274Y-104561916D01*
X104313277Y-104561915D01*
X104360225Y-104530545D01*
X104426902Y-104509666D01*
X104494282Y-104528150D01*
X104538478Y-104575197D01*
X104540609Y-104579185D01*
X104628210Y-104710288D01*
X104628213Y-104710292D01*
X104739707Y-104821786D01*
X104739711Y-104821789D01*
X104870814Y-104909390D01*
X104870827Y-104909397D01*
X105008425Y-104966391D01*
X105016503Y-104969737D01*
X105171153Y-105000499D01*
X105171156Y-105000500D01*
X105171158Y-105000500D01*
X105328844Y-105000500D01*
X105328845Y-105000499D01*
X105483497Y-104969737D01*
X105629179Y-104909394D01*
X105760289Y-104821789D01*
X105760993Y-104821085D01*
X105787319Y-104794760D01*
X105848642Y-104761275D01*
X105918334Y-104766259D01*
X105962681Y-104794760D01*
X105989707Y-104821786D01*
X105989711Y-104821789D01*
X106120814Y-104909390D01*
X106120827Y-104909397D01*
X106258425Y-104966391D01*
X106266503Y-104969737D01*
X106421153Y-105000499D01*
X106421156Y-105000500D01*
X106421158Y-105000500D01*
X106578844Y-105000500D01*
X106578845Y-105000499D01*
X106733497Y-104969737D01*
X106879179Y-104909394D01*
X107010289Y-104821789D01*
X107010993Y-104821085D01*
X107037319Y-104794760D01*
X107098642Y-104761275D01*
X107168334Y-104766259D01*
X107212681Y-104794760D01*
X107239707Y-104821786D01*
X107239711Y-104821789D01*
X107370814Y-104909390D01*
X107370827Y-104909397D01*
X107508425Y-104966391D01*
X107516503Y-104969737D01*
X107671153Y-105000499D01*
X107671156Y-105000500D01*
X107671158Y-105000500D01*
X107828844Y-105000500D01*
X107828845Y-105000499D01*
X107983497Y-104969737D01*
X108129179Y-104909394D01*
X108260289Y-104821789D01*
X108371789Y-104710289D01*
X108459394Y-104579179D01*
X108464899Y-104565890D01*
X108500350Y-104480301D01*
X108519737Y-104433497D01*
X108550500Y-104278842D01*
X108550500Y-104121158D01*
X108550500Y-104121155D01*
X108550499Y-104121153D01*
X108532204Y-104029179D01*
X108519737Y-103966503D01*
X108479443Y-103869224D01*
X108459397Y-103820827D01*
X108459390Y-103820814D01*
X108371789Y-103689711D01*
X108371786Y-103689707D01*
X108260292Y-103578213D01*
X108260288Y-103578210D01*
X108129185Y-103490609D01*
X108129172Y-103490602D01*
X107983501Y-103430264D01*
X107983489Y-103430261D01*
X107828845Y-103399500D01*
X107828842Y-103399500D01*
X107671158Y-103399500D01*
X107671155Y-103399500D01*
X107516510Y-103430261D01*
X107516498Y-103430264D01*
X107370827Y-103490602D01*
X107370814Y-103490609D01*
X107239711Y-103578210D01*
X107239707Y-103578213D01*
X107212681Y-103605240D01*
X107151358Y-103638725D01*
X107081666Y-103633741D01*
X107037319Y-103605240D01*
X107010292Y-103578213D01*
X107010288Y-103578210D01*
X106879185Y-103490609D01*
X106879172Y-103490602D01*
X106733501Y-103430264D01*
X106733489Y-103430261D01*
X106578845Y-103399500D01*
X106578842Y-103399500D01*
X106421158Y-103399500D01*
X106421155Y-103399500D01*
X106266510Y-103430261D01*
X106266498Y-103430264D01*
X106120827Y-103490602D01*
X106120814Y-103490609D01*
X105989711Y-103578210D01*
X105989707Y-103578213D01*
X105962681Y-103605240D01*
X105901358Y-103638725D01*
X105831666Y-103633741D01*
X105787319Y-103605240D01*
X105760292Y-103578213D01*
X105760288Y-103578210D01*
X105629185Y-103490609D01*
X105629172Y-103490602D01*
X105483501Y-103430264D01*
X105483489Y-103430261D01*
X105328845Y-103399500D01*
X105328842Y-103399500D01*
X105171158Y-103399500D01*
X105171155Y-103399500D01*
X105016510Y-103430261D01*
X105016498Y-103430264D01*
X104870827Y-103490602D01*
X104870816Y-103490608D01*
X104774767Y-103554786D01*
X104708090Y-103575663D01*
X104640710Y-103557178D01*
X104602775Y-103520574D01*
X104539301Y-103425580D01*
X104539298Y-103425576D01*
X104435423Y-103321701D01*
X104435419Y-103321698D01*
X104313275Y-103240083D01*
X104313266Y-103240078D01*
X104177544Y-103183861D01*
X104177545Y-103183861D01*
X104177542Y-103183860D01*
X104177538Y-103183859D01*
X104177534Y-103183858D01*
X104033459Y-103155200D01*
X104033455Y-103155200D01*
X103886545Y-103155200D01*
X103886540Y-103155200D01*
X103742465Y-103183858D01*
X103742455Y-103183861D01*
X103606733Y-103240078D01*
X103606724Y-103240083D01*
X103484580Y-103321698D01*
X103484576Y-103321701D01*
X103380701Y-103425576D01*
X103380698Y-103425580D01*
X103299083Y-103547724D01*
X103299078Y-103547733D01*
X103242861Y-103683455D01*
X103242858Y-103683465D01*
X103214200Y-103827540D01*
X100500500Y-103827540D01*
X100500500Y-102784000D01*
X101579587Y-102784000D01*
X101579587Y-102941693D01*
X101610348Y-103096336D01*
X101610351Y-103096348D01*
X101670689Y-103242019D01*
X101670696Y-103242032D01*
X101758297Y-103373135D01*
X101758300Y-103373139D01*
X101869794Y-103484633D01*
X101869798Y-103484636D01*
X102000901Y-103572237D01*
X102000914Y-103572244D01*
X102142283Y-103630800D01*
X102146590Y-103632584D01*
X102301240Y-103663346D01*
X102301243Y-103663347D01*
X102301245Y-103663347D01*
X102458931Y-103663347D01*
X102458932Y-103663346D01*
X102613584Y-103632584D01*
X102744853Y-103578211D01*
X102759259Y-103572244D01*
X102759259Y-103572243D01*
X102759266Y-103572241D01*
X102890376Y-103484636D01*
X103001876Y-103373136D01*
X103089481Y-103242026D01*
X103091039Y-103238266D01*
X103103154Y-103209013D01*
X103149824Y-103096344D01*
X103180587Y-102941689D01*
X103180587Y-102811540D01*
X108294200Y-102811540D01*
X108294200Y-102958459D01*
X108322858Y-103102534D01*
X108322861Y-103102544D01*
X108379078Y-103238266D01*
X108379083Y-103238275D01*
X108460698Y-103360419D01*
X108460701Y-103360423D01*
X108564576Y-103464298D01*
X108564580Y-103464301D01*
X108686724Y-103545916D01*
X108686730Y-103545919D01*
X108686731Y-103545920D01*
X108822458Y-103602140D01*
X108966540Y-103630799D01*
X108966544Y-103630800D01*
X108966545Y-103630800D01*
X109113456Y-103630800D01*
X109113457Y-103630799D01*
X109257542Y-103602140D01*
X109393269Y-103545920D01*
X109515420Y-103464301D01*
X109619301Y-103360420D01*
X109700920Y-103238269D01*
X109757140Y-103102542D01*
X109785800Y-102958455D01*
X109785800Y-102811545D01*
X109757140Y-102667458D01*
X109700920Y-102531731D01*
X109700919Y-102531730D01*
X109700916Y-102531724D01*
X109619301Y-102409580D01*
X109619298Y-102409576D01*
X109515423Y-102305701D01*
X109515419Y-102305698D01*
X109393275Y-102224083D01*
X109393266Y-102224078D01*
X109257544Y-102167861D01*
X109257545Y-102167861D01*
X109257542Y-102167860D01*
X109257538Y-102167859D01*
X109257534Y-102167858D01*
X109113459Y-102139200D01*
X109113455Y-102139200D01*
X108966545Y-102139200D01*
X108966540Y-102139200D01*
X108822465Y-102167858D01*
X108822455Y-102167861D01*
X108686733Y-102224078D01*
X108686724Y-102224083D01*
X108564580Y-102305698D01*
X108564576Y-102305701D01*
X108460701Y-102409576D01*
X108460698Y-102409580D01*
X108379083Y-102531724D01*
X108379078Y-102531733D01*
X108322861Y-102667455D01*
X108322858Y-102667465D01*
X108294200Y-102811540D01*
X103180587Y-102811540D01*
X103180587Y-102784005D01*
X103180587Y-102784002D01*
X103180586Y-102784000D01*
X103149824Y-102629350D01*
X103143797Y-102614799D01*
X103089484Y-102483674D01*
X103089477Y-102483661D01*
X103001876Y-102352558D01*
X103001873Y-102352554D01*
X102890379Y-102241060D01*
X102890375Y-102241057D01*
X102759272Y-102153456D01*
X102759259Y-102153449D01*
X102613588Y-102093111D01*
X102613576Y-102093108D01*
X102458932Y-102062347D01*
X102458929Y-102062347D01*
X102301245Y-102062347D01*
X102301242Y-102062347D01*
X102146597Y-102093108D01*
X102146585Y-102093111D01*
X102000914Y-102153449D01*
X102000901Y-102153456D01*
X101869798Y-102241057D01*
X101869794Y-102241060D01*
X101758300Y-102352554D01*
X101758297Y-102352558D01*
X101670696Y-102483661D01*
X101670689Y-102483674D01*
X101610351Y-102629345D01*
X101610348Y-102629357D01*
X101579587Y-102784000D01*
X100500500Y-102784000D01*
X100500500Y-101795540D01*
X103214200Y-101795540D01*
X103214200Y-101942459D01*
X103242858Y-102086534D01*
X103242861Y-102086544D01*
X103299078Y-102222266D01*
X103299083Y-102222275D01*
X103380698Y-102344419D01*
X103380701Y-102344423D01*
X103484576Y-102448298D01*
X103484580Y-102448301D01*
X103606724Y-102529916D01*
X103606730Y-102529919D01*
X103606731Y-102529920D01*
X103742458Y-102586140D01*
X103886540Y-102614799D01*
X103886544Y-102614800D01*
X103886545Y-102614800D01*
X104033456Y-102614800D01*
X104033457Y-102614799D01*
X104177542Y-102586140D01*
X104313269Y-102529920D01*
X104435420Y-102448301D01*
X104539301Y-102344420D01*
X104620920Y-102222269D01*
X104677140Y-102086542D01*
X104705800Y-101942455D01*
X104705800Y-101795545D01*
X104677140Y-101651458D01*
X104620920Y-101515731D01*
X104620919Y-101515730D01*
X104620916Y-101515724D01*
X104539301Y-101393580D01*
X104539298Y-101393576D01*
X104435423Y-101289701D01*
X104435419Y-101289698D01*
X104313275Y-101208083D01*
X104313266Y-101208078D01*
X104177544Y-101151861D01*
X104177545Y-101151861D01*
X104177542Y-101151860D01*
X104177538Y-101151859D01*
X104177534Y-101151858D01*
X104033459Y-101123200D01*
X104033455Y-101123200D01*
X103886545Y-101123200D01*
X103886540Y-101123200D01*
X103742465Y-101151858D01*
X103742455Y-101151861D01*
X103606733Y-101208078D01*
X103606724Y-101208083D01*
X103484580Y-101289698D01*
X103484576Y-101289701D01*
X103380701Y-101393576D01*
X103380698Y-101393580D01*
X103299083Y-101515724D01*
X103299078Y-101515733D01*
X103242861Y-101651455D01*
X103242858Y-101651465D01*
X103214200Y-101795540D01*
X100500500Y-101795540D01*
X100500500Y-100624500D01*
X100520185Y-100557461D01*
X100572989Y-100511706D01*
X100624500Y-100500500D01*
X106197810Y-100500500D01*
X106264849Y-100520185D01*
G37*
%TD.AperFunction*%
%TD*%
%TA.AperFunction,Conductor*%
%TO.N,+BATT*%
G36*
X156443039Y-116269685D02*
G01*
X156488794Y-116322489D01*
X156500000Y-116374000D01*
X156500000Y-119126000D01*
X156480315Y-119193039D01*
X156427511Y-119238794D01*
X156376000Y-119250000D01*
X153374000Y-119250000D01*
X153306961Y-119230315D01*
X153261206Y-119177511D01*
X153250000Y-119126000D01*
X153250000Y-116374000D01*
X153269685Y-116306961D01*
X153322489Y-116261206D01*
X153374000Y-116250000D01*
X156376000Y-116250000D01*
X156443039Y-116269685D01*
G37*
%TD.AperFunction*%
%TD*%
M02*
